#N canvas 827 239 527 327 12;
#X obj 497 531 outlet~;
#X msg 547 369 0 \$2;
#X obj 427 329 pack f f f f;
#X msg 427 369 \$1 \$2 \, \$4 \$3 \$2;
#X obj 355 269 / 127;
#X obj 355 189 sel 0;
#X obj 547 329 pack f f;
#X obj 497 483 line~;
#X obj 355 149 inlet velocity;
#X obj 467 149 inlet a;
#X obj 527 149 inlet d;
#X obj 587 149 inlet s;
#X obj 647 149 inlet r;
#X connect 1 0 7 0;
#X connect 2 0 3 0;
#X connect 3 0 7 0;
#X connect 4 0 2 0;
#X connect 5 0 6 0;
#X connect 5 1 4 0;
#X connect 6 0 1 0;
#X connect 7 0 0 0;
#X connect 8 0 5 0;
#X connect 9 0 2 1;
#X connect 10 0 2 2;
#X connect 11 0 2 3;
#X connect 12 0 6 1;
