#N canvas 329 79 589 471 10;
#X obj 129 183 hslider 128 0 1 0.01 1 0 2 0 -262144 -1 -1;
#X obj 159 149 hslider 128 0 1 0.01 1 0 2 0 -262144 -1 -1;
#X obj 136 95 hslider 128 0 1 0.01 1 0 2 0 -262144 -1 -1;
#X msg 135 54 \$1(;
#X text 66 54 Increment Value:;
#X floatatom 134 70 5 0 0 0 - - -;
#X restore 105 288 0 1046 25 128 0 5 0;
#X connect 0 0 6 0;
#X connect 1 0 6 1;
#X connect 2 0 6 2;
