#N canvas 827 239 527 327 12;
#X obj 339 562 outlet;
#X obj 339 263 inlet;
#X obj 436 263 inlet (bang) reset;
#X obj 379 399 olm.increment;
#X obj 339 339 t b f;
#X obj 339 468 olm.counter;
#X obj 499 299 loadbang;
#X obj 436 339 bng 25 250 50 0 empty empty empty 17 7 0 10 #e4e4e4 #4d4d4d #373737;
#X connect 1 0 4 0;
#X connect 2 0 7 0;
#X connect 3 0 5 1;
#X connect 4 0 5 0;
#X connect 4 1 3 0;
#X connect 5 0 0 0;
#X connect 6 0 7 0;
#X connect 7 0 5 2;
