#N canvas 827 239 527 327 12;
#X obj 46 427 olm.juno;
#X obj 158 2431 dac~;
#X obj 1834 209 r Button2 @hv_param;
#X obj 1615 209 r Button1 @hv_param;
#X obj 1421 265 r Knob2 @hv_param;
#X obj 1243 209 r EncSwitch @hv_param;
#X obj 1421 209 r Encoder @hv_param;
#X obj 1597 260 r button1_press @hv_param;
#X obj 1815 260 r button2_press @hv_param;
#X obj 2394 555 r Knob1 @hv_param;
#X obj 2791 428 s juno-lfo-rate;
#X obj 3016 428 s juno-osc-sqr;
#X obj 3222 428 s juno-osc-saw;
#X obj 3427 428 s juno-osc-sub;
#X obj 3636 428 s juno-osc-noise;
#X obj 3844 483 s juno-osc-lfo;
#X obj 4051 428 s juno-osc-pwm;
#X obj 2705 602 s juno-fil-freq;
#X obj 2928 602 s juno-fil-res;
#X obj 3196 602 s juno-fil-lfo;
#X obj 3453 602 s juno-fil-env;
#X obj 2640 739 s juno-env-a;
#X obj 2928 777 s juno-env-d;
#X obj 3158 777 s juno-env-s;
#X obj 3392 739 s juno-env-r;
#X obj 2325 490 vsl 42 193 0 1 0 0 empty empty empty 0 -9 0 10 #e4e4e4 #4d4d4d #373737 0 1;
#X obj 3844 440 olm.remap_slider 0 0.5;
#X obj 2791 396 olm.pingpong 0.2 0.9;
#X obj 3016 396 olm.pingpong 1.2 0.6;
#X obj 3222 396 olm.pingpong 0.5 1.3;
#X obj 3427 396 olm.pingpong 0.1 1.1;
#X obj 3636 396 olm.pingpong 1.8 1.5;
#X obj 3844 396 olm.pingpong 0 1;
#X obj 4051 396 olm.pingpong 0.25 0.95;
#X obj 3453 550 olm.pingpong 0.1 1.1;
#X obj 3196 550 olm.pingpong 0.5 1.3;
#X obj 2928 551 olm.pingpong 1.2 0.6;
#X obj 2705 551 olm.pingpong 0.2 0.9;
#X obj 2640 691 olm.pingpong 1.8 1.5;
#X obj 2928 729 olm.pingpong 0 1;
#X obj 3158 729 olm.pingpong 0.25 0.95;
#X obj 3392 691 olm.pingpong 0.25 0.95;
#X obj 2220 628 random_start;
#X obj 2393 712 incounter;
#X obj 122 2376 clip~ -1 1;
#X obj 199 2376 clip~ -1 1;
#X obj 2394 625 olm.dejitter 1000;
#X obj 2260 802 +;
#X msg 2220 736 0;
#X obj 2220 700 t b f;
#X obj 46 1042 throw~ channel1;
#X obj 9 1547 catch~ channel1;
#X obj 45 1895 *~;
#X obj 45 1836 pow 3;
#X obj 51 1678 vsl 39 141 0 1 0 0 empty empty vol 0 -9 0 10 #e4e4e4 #4d4d4d #373737 0 1;
#X obj 219 2023 *~;
#X obj 219 1958 pow 3;
#X obj 222 1800 vsl 39 141 0 1 0 0 empty empty fx1\ send 0 -9 0 10 #e4e4e4 #4d4d4d #373737 0 1;
#X obj 122 2303 catch~ master_L;
#X obj 241 2303 catch~ master_R;
#X obj 45 1987 olm.panner~;
#X obj 45 2119 throw~ master_L;
#X obj 180 2119 throw~ master_R;
#X obj 108 1896 hsl 82 45 0 1 0 0 empty empty pan -2 -8 0 10 #e4e4e4 #4d4d4d #373737 0 1;
#X obj 316 2023 *~;
#X obj 219 2077 throw~ fx1_L;
#X obj 316 2077 throw~ fx1_R;
#X obj 2567 2018 *~;
#X obj 2655 2018 *~;
#X obj 2666 1960 pow 3;
#X obj 2669 1809 vsl 54 135 0 1 0 0 empty empty fx1\ vol 0 -9 0 10 #e4e4e4 #4d4d4d #373737 0 1;
#X obj 2666 2121 throw~ master_L;
#X obj 2784 2121 throw~ master_R;
#N canvas 0 50 450 300 fx1 0;
#X obj 195 819 ../fx/olm.reverb~ 1 50 12000;
#X obj 24 22 catch~ fx1_L;
#X obj 134 22 catch~ fx1_R;
#X obj 195 954 outlet~;
#X obj 348 954 outlet~;
#X obj 301 569 vsl 57 166 0 1 0 0 empty empty empty 0 -9 0 10 #e4e4e4 #4d4d4d #373737 0 1;
#X obj 396 569 vsl 64 166 0 1 0 0 empty empty empty 0 -9 0 10 #e4e4e4 #4d4d4d #373737 0 1;
#X obj 486 569 vsl 68 169 0 1 0 0 empty empty empty 0 -9 0 10 #e4e4e4 #4d4d4d #373737 0 1;
#X obj 483 761 pow 3.5;
#X obj 483 791 * 20000;
#X obj 393 761 * 100;
#X obj 345 480 loadbang;
#X msg 298 523 1;
#X msg 345 523 0.8;
#X msg 444 523 0.5;
#X connect 0 0 3 0;
#X connect 0 1 4 0;
#X connect 1 0 0 0;
#X connect 2 0 0 1;
#X connect 5 0 0 2;
#X connect 6 0 10 0;
#X connect 7 0 8 0;
#X connect 8 0 9 0;
#X connect 9 0 0 4;
#X connect 10 0 0 3;
#X connect 11 0 12 0;
#X connect 11 0 13 0;
#X connect 11 0 14 0;
#X connect 12 0 5 0;
#X connect 13 0 6 0;
#X connect 14 0 7 0;
#X restore 2592 1913 pd fx1;
#X obj 64 1582 loadbang;
#X msg 95 1633 0.5;
#X obj 219 1724 loadbang;
#X msg 219 1757 1;
#X obj 2666 1716 loadbang;
#X obj 1262 265 r Knob1 @hv_param;
#X obj 686 1911 *~;
#X obj 686 1852 pow 3;
#X obj 689 1694 vsl 39 141 0 1 0 0 empty empty vol 0 -9 0 10 #e4e4e4 #4d4d4d #373737 0 1;
#X obj 860 2039 *~;
#X obj 860 1974 pow 3;
#X obj 863 1816 vsl 39 141 0 1 0 0 empty empty fx1\ send 0 -9 0 10 #e4e4e4 #4d4d4d #373737 0 1;
#X obj 686 2003 olm.panner~;
#X obj 686 2135 throw~ master_L;
#X obj 821 2135 throw~ master_R;
#X obj 749 1912 hsl 82 45 0 1 0 0 empty empty pan -2 -8 0 10 #e4e4e4 #4d4d4d #373737 0 1;
#X obj 989 2039 *~;
#X obj 860 2093 throw~ fx1_L;
#X obj 1036 2182 throw~ fx1_R;
#X obj 705 1598 loadbang;
#X msg 736 1649 0.5;
#X obj 860 1740 loadbang;
#X msg 860 1773 1;
#X obj 650 1563 catch~ channel2;
#X obj 1037 458 olm.swarm~;
#X obj 1037 912 throw~ channel2;
#X obj 2578 936 s swarm-freq;
#X obj 2578 889 olm.pingpong 0.5 1.3;
#X obj 2260 844 s random_seed;
#X obj 2791 357 r random_seed;
#X obj 3016 357 r random_seed;
#X obj 3222 357 r random_seed;
#X obj 3427 351 r random_seed;
#X obj 3641 345 r random_seed;
#X obj 3844 351 r random_seed;
#X obj 4060 351 r random_seed;
#X obj 2715 499 r random_seed;
#X obj 2952 500 r random_seed;
#X obj 3175 502 r random_seed;
#X obj 3453 514 r random_seed;
#X obj 2650 649 r random_seed;
#X obj 3393 652 r random_seed;
#X obj 2577 847 r random_seed;
#X obj 2758 936 s swarm-swarm;
#X obj 2758 905 olm.pingpong 1.4 2;
#X obj 2758 864 r random_seed;
#X obj 2941 864 r random_seed;
#X obj 2941 917 olm.pingpong 1.67 3.123;
#X obj 2941 956 s swarm-fm;
#X obj 3184 950 s swarm-cut;
#X obj 3327 955 s swarm-res;
#X obj 3184 873 r random_seed;
#X obj 3367 873 r random_seed;
#X obj 3184 905 olm.pingpong 3.256 0.5;
#X obj 3367 905 olm.pingpong 2.223 0.1;
#X obj 2928 679 r random_seed;
#X obj 3161 683 r random_seed;
#X obj 3556 968 s swarm-alpha;
#X obj 3689 968 s swarm-med;
#X obj 3550 864 r random_seed;
#X obj 3706 864 r random_seed;
#X obj 3550 905 olm.pingpong 0.13 0.05;
#X obj 3723 905 olm.pingpong 4 1.3;
#X obj 2627 1061 olm.pingpong 0.5 1.3;
#X obj 2626 1019 r random_seed;
#X obj 2627 1108 s seq-randomstep;
#X obj 2802 1028 r random_seed;
#X obj 2803 1070 olm.pingpong 0.9 1.5;
#X obj 2803 1117 s seq-bpm;
#X obj 2966 1028 r random_seed;
#X obj 2967 1117 s seq-legato;
#X obj 3125 1028 r random_seed;
#X obj 3126 1117 s seq-steps;
#X obj 2967 1070 olm.pingpong 1.1 1.3;
#X obj 3126 1070 olm.pingpong 2.5 2;
#X obj 46 5 olm.bigseq;
#N canvas 0 50 450 300 fx2 0;
#X obj 387 270 vsl 49 143 0 1 0 0 empty empty empty 0 -9 0 10 #e4e4e4 #4d4d4d #373737 0 1;
#X obj 466 270 vsl 49 143 0 1 0 0 empty empty empty 0 -9 0 10 #e4e4e4 #4d4d4d #373737 0 1;
#X obj 550 270 vsl 52 142 0 1 0 0 empty empty empty 0 -9 0 10 #e4e4e4 #4d4d4d #373737 0 1;
#X obj 547 464 * 1.1;
#X obj 384 157 loadbang;
#X obj 323 507 ../fx/olm.delay~ 0.9 0.7 0.67;
#X obj 547 427 olm.easing-cubic;
#X obj 253 625 outlet~;
#X obj 475 625 outlet~;
#X obj 108 208 catch~ fx2_L;
#X obj 202 208 catch~ fx2_R;
#X msg 384 209 0.5;
#X msg 463 208 0.35;
#X obj 615 160 r Knob2 @hv_param;
#X msg 537 208 0.35;
#X connect 0 0 5 2;
#X connect 1 0 5 3;
#X connect 2 0 6 0;
#X connect 3 0 5 4;
#X connect 4 0 11 0;
#X connect 4 0 12 0;
#X connect 4 0 14 0;
#X connect 5 0 7 0;
#X connect 5 1 8 0;
#X connect 6 0 3 0;
#X connect 9 0 5 0;
#X connect 10 0 5 1;
#X connect 11 0 0 0;
#X connect 12 0 1 0;
#X connect 13 0 2 0;
#X connect 14 0 2 0;
#X restore 2815 1901 pd fx2;
#X obj 2800 2024 *~;
#X obj 2888 2024 *~;
#X obj 2899 1966 pow 3;
#X obj 2902 1815 vsl 54 135 0 1 0 0 empty empty fx1\ vol 0 -9 0 10 #e4e4e4 #4d4d4d #373737 0 1;
#X obj 2899 1716 loadbang;
#X obj 411 2023 *~;
#X obj 411 1958 pow 3;
#X obj 414 1800 vsl 39 141 0 1 0 0 empty empty fx1\ send 0 -9 0 10 #e4e4e4 #4d4d4d #373737 0 1;
#X obj 508 2023 *~;
#X obj 411 1724 loadbang;
#X msg 411 1757 1;
#X obj 411 2077 throw~ fx2_L;
#X obj 508 2077 throw~ fx2_R;
#X msg 689 1649 0.75;
#X obj 1316 1987 *~;
#X obj 1316 1928 pow 3;
#X obj 1319 1770 vsl 39 141 0 1 0 0 empty empty vol 0 -9 0 10 #e4e4e4 #4d4d4d #373737 0 1;
#X obj 1490 2115 *~;
#X obj 1490 2050 pow 3;
#X obj 1493 1892 vsl 39 141 0 1 0 0 empty empty fx1\ send 0 -9 0 10 #e4e4e4 #4d4d4d #373737 0 1;
#X obj 1316 2079 olm.panner~;
#X obj 1316 2211 throw~ master_L;
#X obj 1451 2211 throw~ master_R;
#X obj 1379 1988 hsl 82 45 0 1 0 0 empty empty pan -2 -8 0 10 #e4e4e4 #4d4d4d #373737 0 1;
#X obj 1619 2115 *~;
#X obj 1490 2169 throw~ fx1_L;
#X obj 1619 2169 throw~ fx1_R;
#X obj 1335 1674 loadbang;
#X obj 1490 1816 loadbang;
#X msg 1490 1849 1;
#X msg 1319 1725 0.75;
#X obj 1067 1487 throw~ channel3;
#X obj 1720 2115 *~;
#X obj 1720 2050 pow 3;
#X obj 1723 1892 vsl 39 141 0 1 0 0 empty empty fx1\ send 0 -9 0 10 #e4e4e4 #4d4d4d #373737 0 1;
#X obj 1817 2115 *~;
#X obj 1720 1816 loadbang;
#X msg 1720 1849 1;
#X obj 1720 2169 throw~ fx2_L;
#X obj 1817 2169 throw~ fx2_R;
#X obj 1194 1639 catch~ channel3;
#X obj 1933 2012 *~;
#X obj 1933 1953 pow 3;
#X obj 1936 1795 vsl 39 141 0 1 0 0 empty empty vol 0 -9 0 10 #e4e4e4 #4d4d4d #373737 0 1;
#X obj 2107 2140 *~;
#X obj 2107 2075 pow 3;
#X obj 2110 1917 vsl 39 141 0 1 0 0 empty empty fx1\ send 0 -9 0 10 #e4e4e4 #4d4d4d #373737 0 1;
#X obj 1933 2104 olm.panner~;
#X obj 1933 2236 throw~ master_L;
#X obj 2068 2236 throw~ master_R;
#X obj 1996 2013 hsl 82 45 0 1 0 0 empty empty pan -2 -8 0 10 #e4e4e4 #4d4d4d #373737 0 1;
#X obj 2236 2140 *~;
#X obj 2107 2194 throw~ fx1_L;
#X obj 2236 2194 throw~ fx1_R;
#X obj 1952 1699 loadbang;
#X obj 2107 1841 loadbang;
#X msg 2107 1874 1;
#X msg 1936 1750 0.75;
#X obj 2337 2140 *~;
#X obj 2337 2075 pow 3;
#X obj 2340 1917 vsl 39 141 0 1 0 0 empty empty fx1\ send 0 -9 0 10 #e4e4e4 #4d4d4d #373737 0 1;
#X obj 2434 2140 *~;
#X obj 2337 1841 loadbang;
#X msg 2337 1874 1;
#X obj 2337 2194 throw~ fx2_L;
#X obj 2434 2194 throw~ fx2_R;
#X obj 1811 1664 catch~ channel4;
#X obj 1849 1487 throw~ channel4;
#X obj 1067 1053 olm.percs~ 1;
#X obj 1849 1053 olm.percs~ 2;
#X msg 48 1633 0.5;
#X obj 2627 1219 olm.pingpong 0.5 1.3;
#X obj 2626 1177 r random_seed;
#X obj 2802 1186 r random_seed;
#X obj 2803 1228 olm.pingpong 0.9 1.5;
#X obj 2966 1186 r random_seed;
#X obj 3125 1186 r random_seed;
#X obj 2967 1228 olm.pingpong 1.1 1.3;
#X obj 3126 1228 olm.pingpong 2.5 2;
#X obj 3274 1228 olm.pingpong 0.5 1.3;
#X obj 3273 1186 r random_seed;
#X obj 3449 1195 r random_seed;
#X obj 3450 1237 olm.pingpong 0.9 1.5;
#X obj 3613 1195 r random_seed;
#X obj 3772 1195 r random_seed;
#X obj 3614 1237 olm.pingpong 1.1 1.3;
#X obj 3773 1237 olm.pingpong 2.5 2;
#X obj 2627 1275 s 1-perc-freq;
#X obj 2803 1275 s 1-perc-pwm;
#X obj 2967 1275 s 1-perc-tone;
#X obj 3126 1275 s 1-perc-snare;
#X obj 3274 1275 s 1-perc-decay;
#X obj 3450 1284 s 1-perc-cutoff;
#X obj 3614 1284 s 1-perc-res;
#X obj 3773 1284 s 1-perc-rhythm;
#X obj 2628 1323 r random_seed;
#X obj 2804 1332 r random_seed;
#X obj 2968 1332 r random_seed;
#X obj 3127 1332 r random_seed;
#X obj 3275 1332 r random_seed;
#X obj 3451 1341 r random_seed;
#X obj 3615 1341 r random_seed;
#X obj 3774 1341 r random_seed;
#X obj 2805 1374 olm.pingpong 1.5 1.5;
#X obj 3128 1374 olm.pingpong 2.1 0.5;
#X obj 2969 1374 olm.pingpong 0.8 0.1;
#X obj 2629 1365 olm.pingpong 1.1 0.4;
#X obj 3276 1374 olm.pingpong 1.6 0.1;
#X obj 3452 1383 olm.pingpong 0.7 1.2;
#X obj 3616 1383 olm.pingpong 3.3 0.6;
#X obj 3775 1383 olm.pingpong 2.5 0.7;
#X obj 2629 1421 s 2-perc-freq;
#X obj 2805 1421 s 2-perc-pwm;
#X obj 2969 1421 s 2-perc-tone;
#X obj 3128 1421 s 2-perc-snare;
#X obj 3276 1421 s 2-perc-decay;
#X obj 3452 1430 s 2-perc-cutoff;
#X obj 3616 1430 s 2-perc-res;
#X obj 3775 1430 s 2-perc-rhythm;
#X msg 2666 1745 0.5;
#X msg 2899 1745 0.5;
#X msg 1366 1725 0;
#X msg 1983 1750 1;
#X connect 0 0 50 0;
#X connect 9 0 46 0;
#X connect 25 0 43 0;
#X connect 26 0 15 0;
#X connect 27 0 10 0;
#X connect 28 0 11 0;
#X connect 29 0 12 0;
#X connect 30 0 13 0;
#X connect 31 0 14 0;
#X connect 32 0 26 0;
#X connect 33 0 16 0;
#X connect 34 0 20 0;
#X connect 35 0 19 0;
#X connect 36 0 18 0;
#X connect 37 0 17 0;
#X connect 38 0 21 0;
#X connect 39 0 22 0;
#X connect 40 0 23 0;
#X connect 41 0 24 0;
#X connect 42 0 49 0;
#X connect 43 0 47 0;
#X connect 44 0 1 0;
#X connect 45 0 1 1;
#X connect 46 0 43 0;
#X connect 47 0 102 0;
#X connect 48 0 47 0;
#X connect 49 0 48 0;
#X connect 49 1 47 1;
#X connect 51 0 52 0;
#X connect 52 0 60 0;
#X connect 53 0 52 1;
#X connect 54 0 53 0;
#X connect 55 0 65 0;
#X connect 56 0 55 1;
#X connect 56 0 64 1;
#X connect 57 0 56 0;
#X connect 58 0 44 0;
#X connect 59 0 45 0;
#X connect 60 0 61 0;
#X connect 60 0 55 0;
#X connect 60 0 156 0;
#X connect 60 1 62 0;
#X connect 60 1 64 0;
#X connect 60 1 159 0;
#X connect 63 0 60 1;
#X connect 64 0 66 0;
#X connect 67 0 71 0;
#X connect 68 0 72 0;
#X connect 69 0 67 1;
#X connect 69 0 68 1;
#X connect 70 0 69 0;
#X connect 73 0 67 0;
#X connect 73 1 68 0;
#X connect 74 0 221 0;
#X connect 74 0 75 0;
#X connect 75 0 63 0;
#X connect 76 0 77 0;
#X connect 77 0 57 0;
#X connect 78 0 270 0;
#X connect 80 0 86 0;
#X connect 81 0 80 1;
#X connect 82 0 81 0;
#X connect 83 0 91 0;
#X connect 84 0 83 1;
#X connect 84 0 90 1;
#X connect 85 0 84 0;
#X connect 86 0 87 0;
#X connect 86 0 83 0;
#X connect 86 1 88 0;
#X connect 86 1 90 0;
#X connect 89 0 86 1;
#X connect 90 0 92 0;
#X connect 93 0 164 0;
#X connect 93 0 94 0;
#X connect 94 0 89 0;
#X connect 95 0 96 0;
#X connect 96 0 85 0;
#X connect 97 0 80 0;
#X connect 98 0 99 0;
#X connect 101 0 100 0;
#X connect 103 0 27 0;
#X connect 104 0 28 0;
#X connect 105 0 29 0;
#X connect 106 0 30 0;
#X connect 107 0 31 0;
#X connect 108 0 32 0;
#X connect 109 0 33 0;
#X connect 110 0 37 0;
#X connect 111 0 36 0;
#X connect 112 0 35 0;
#X connect 113 0 34 0;
#X connect 114 0 38 0;
#X connect 115 0 41 0;
#X connect 116 0 101 0;
#X connect 118 0 117 0;
#X connect 119 0 118 0;
#X connect 120 0 121 0;
#X connect 121 0 122 0;
#X connect 125 0 127 0;
#X connect 126 0 128 0;
#X connect 127 0 123 0;
#X connect 128 0 124 0;
#X connect 129 0 39 0;
#X connect 130 0 40 0;
#X connect 133 0 135 0;
#X connect 134 0 136 0;
#X connect 135 0 131 0;
#X connect 136 0 132 0;
#X connect 137 0 139 0;
#X connect 138 0 137 0;
#X connect 140 0 141 0;
#X connect 141 0 142 0;
#X connect 143 0 147 0;
#X connect 145 0 148 0;
#X connect 147 0 144 0;
#X connect 148 0 146 0;
#X connect 149 0 0 0;
#X connect 150 0 151 0;
#X connect 150 1 152 0;
#X connect 151 0 71 0;
#X connect 152 0 72 0;
#X connect 153 0 151 1;
#X connect 153 0 152 1;
#X connect 154 0 153 0;
#X connect 155 0 271 0;
#X connect 156 0 162 0;
#X connect 157 0 156 1;
#X connect 157 0 159 1;
#X connect 158 0 157 0;
#X connect 159 0 163 0;
#X connect 160 0 161 0;
#X connect 161 0 158 0;
#X connect 164 0 82 0;
#X connect 165 0 171 0;
#X connect 166 0 165 1;
#X connect 167 0 166 0;
#X connect 168 0 176 0;
#X connect 169 0 168 1;
#X connect 169 0 175 1;
#X connect 170 0 169 0;
#X connect 171 0 172 0;
#X connect 171 0 168 0;
#X connect 171 0 183 0;
#X connect 171 1 173 0;
#X connect 171 1 175 0;
#X connect 171 1 186 0;
#X connect 174 0 171 1;
#X connect 175 0 177 0;
#X connect 178 0 181 0;
#X connect 178 0 272 0;
#X connect 179 0 180 0;
#X connect 180 0 170 0;
#X connect 181 0 167 0;
#X connect 183 0 189 0;
#X connect 184 0 183 1;
#X connect 184 0 186 1;
#X connect 185 0 184 0;
#X connect 186 0 190 0;
#X connect 187 0 188 0;
#X connect 188 0 185 0;
#X connect 191 0 165 0;
#X connect 192 0 198 0;
#X connect 193 0 192 1;
#X connect 194 0 193 0;
#X connect 195 0 203 0;
#X connect 196 0 195 1;
#X connect 196 0 202 1;
#X connect 197 0 196 0;
#X connect 198 0 199 0;
#X connect 198 0 195 0;
#X connect 198 0 209 0;
#X connect 198 1 200 0;
#X connect 198 1 202 0;
#X connect 198 1 212 0;
#X connect 201 0 198 1;
#X connect 202 0 204 0;
#X connect 205 0 208 0;
#X connect 205 0 273 0;
#X connect 206 0 207 0;
#X connect 207 0 197 0;
#X connect 208 0 194 0;
#X connect 209 0 215 0;
#X connect 210 0 209 1;
#X connect 210 0 212 1;
#X connect 211 0 210 0;
#X connect 212 0 216 0;
#X connect 213 0 214 0;
#X connect 214 0 211 0;
#X connect 217 0 192 0;
#X connect 219 0 182 0;
#X connect 220 0 218 0;
#X connect 221 0 54 0;
#X connect 222 0 238 0;
#X connect 223 0 222 0;
#X connect 224 0 225 0;
#X connect 225 0 239 0;
#X connect 226 0 228 0;
#X connect 227 0 229 0;
#X connect 228 0 240 0;
#X connect 229 0 241 0;
#X connect 230 0 242 0;
#X connect 231 0 230 0;
#X connect 232 0 233 0;
#X connect 233 0 243 0;
#X connect 234 0 236 0;
#X connect 235 0 237 0;
#X connect 236 0 244 0;
#X connect 237 0 245 0;
#X connect 246 0 257 0;
#X connect 247 0 254 0;
#X connect 248 0 256 0;
#X connect 249 0 255 0;
#X connect 250 0 258 0;
#X connect 251 0 259 0;
#X connect 252 0 260 0;
#X connect 253 0 261 0;
#X connect 254 0 263 0;
#X connect 255 0 265 0;
#X connect 256 0 264 0;
#X connect 257 0 262 0;
#X connect 258 0 266 0;
#X connect 259 0 267 0;
#X connect 260 0 268 0;
#X connect 261 0 269 0;
#X connect 270 0 70 0;
#X connect 271 0 154 0;
#X connect 272 0 174 0;
#X connect 273 0 201 0;
