#N canvas 827 239 527 327 12;
#X obj 607 955 dac~;
#X obj 468 140 notein;
#X obj 607 898 *~;
#X obj 468 241 juno;
#X obj 1000 584 vsl 56 185 0 1 0 1 empty empty empty 0 -9 0 10 #e4e4e4 #4d4d4d #373737 74 1;
#X obj 995 796 pow 3;
#X connect 1 0 3 0;
#X connect 1 1 3 1;
#X connect 2 0 0 0;
#X connect 2 0 0 1;
#X connect 3 0 2 0;
#X connect 4 0 5 0;
#X connect 5 0 2 1;
