#N canvas 827 239 527 327 12;
#X obj 321 91 inlet (float) control;
#X obj 139 91 inlet~ (audio) signal;
#X obj 349 196 / 4;
#X obj 402 315 + 0.75;
#X msg 402 368 \$1 10;
#X obj 402 397 line~;
#X obj 402 426 cos~;
#X obj 139 519 *~;
#X obj 363 503 *~;
#X msg 204 378 \$1 10;
#X obj 204 407 line~;
#X obj 204 436 cos~;
#X obj 139 608 outlet~ (audio) left;
#X obj 363 608 outlet~ (audio) right;
#X connect 0 0 2 0;
#X connect 1 0 7 0;
#X connect 1 0 8 0;
#X connect 2 0 3 0;
#X connect 2 0 9 0;
#X connect 3 0 4 0;
#X connect 4 0 5 0;
#X connect 5 0 6 0;
#X connect 6 0 8 1;
#X connect 7 0 12 0;
#X connect 8 0 13 0;
#X connect 9 0 10 0;
#X connect 10 0 11 0;
#X connect 11 0 7 1;
