#N canvas 827 239 527 327 12;
#X obj 79 419 olm.slider-randomizer;
#X obj 79 179 r \$1-chaos;
#X obj 119 219 r \$1-random-seed;
#X obj 119 339 olm.pingpong;
#X obj 301 589 olm.slider-controller \$1 \$2;
#X obj 299 179 route offset phase min max;
#X obj 299 659 outlet;
#X obj 239 119 inlet;
#X obj 299 119 r \$3-out;
#X obj 419 659 s \$3-in;
#X connect 0 0 4 0;
#X connect 1 0 0 0;
#X connect 2 0 3 0;
#X connect 3 0 0 1;
#X connect 4 0 6 0;
#X connect 4 0 9 0;
#X connect 5 0 3 1;
#X connect 5 1 3 2;
#X connect 5 2 0 2;
#X connect 5 3 0 3;
#X connect 5 4 4 1;
#X connect 7 0 5 0;
#X connect 8 0 5 0;
