#N canvas 827 239 527 327 12;
#X obj 328 521 * 500;
#X obj 159 199 delwrite~ pre-delay-L 500;
#X obj 348 199 delwrite~ pre-delay-R 500;
#X obj 328 679 delread4~ pre-delay-R;
#X obj 159 558 * 500;
#X obj 159 679 delread4~ pre-delay-L;
#X obj 159 274 - 0.5;
#X obj 159 310 * 2;
#X obj 184 434 < 0;
#X obj 159 483 *;
#X obj 159 394 t f f;
#X obj 159 521 abs;
#X obj 328 394 t f f;
#X obj 363 434 > 0;
#X obj 328 483 *;
#X obj 159 351 t f f;
#X msg 159 596 \$1 10;
#X obj 159 631 line~;
#X msg 328 596 \$1 10;
#X obj 328 631 line~;
#X obj 159 103 inlet~ L;
#X obj 352 103 inlet~ R;
#X obj 159 782 outlet~ L;
#X obj 332 782 outlet~ R;
#X obj 579 99 inlet (float) side;
#X connect 0 0 18 0;
#X connect 3 0 23 0;
#X connect 4 0 16 0;
#X connect 5 0 22 0;
#X connect 6 0 7 0;
#X connect 7 0 15 0;
#X connect 8 0 9 1;
#X connect 9 0 11 0;
#X connect 10 0 9 0;
#X connect 10 1 8 0;
#X connect 11 0 4 0;
#X connect 12 0 14 0;
#X connect 12 1 13 0;
#X connect 13 0 14 1;
#X connect 14 0 0 0;
#X connect 15 0 10 0;
#X connect 15 1 12 0;
#X connect 16 0 17 0;
#X connect 17 0 5 0;
#X connect 18 0 19 0;
#X connect 19 0 3 0;
#X connect 20 0 1 0;
#X connect 21 0 2 0;
#X connect 24 0 6 0;
