#N canvas 827 239 527 327 12;
#X obj 419 349 % 12;
#X msg 419 449 0;
#X obj 359 639 +;
#X msg 519 539 -1;
#X obj 359 268 int;
#X obj 359 300 t f f;
#X obj 359 219 inlet (float) note;
#X obj 359 685 outlet;
#X obj 419 389 sel 0 2 4 5 7 9 11;
#X msg 559 539 1;
#X obj 519 459 olm.cointoss;
#X connect 0 0 8 0;
#X connect 1 0 2 1;
#X connect 2 0 7 0;
#X connect 3 0 2 1;
#X connect 4 0 5 0;
#X connect 5 0 2 0;
#X connect 5 1 0 0;
#X connect 6 0 4 0;
#X connect 8 0 1 0;
#X connect 8 1 1 0;
#X connect 8 2 1 0;
#X connect 8 3 1 0;
#X connect 8 4 1 0;
#X connect 8 5 1 0;
#X connect 8 6 1 0;
#X connect 8 7 10 0;
#X connect 9 0 2 1;
#X connect 10 0 3 0;
#X connect 10 1 9 0;
