#N canvas 827 239 527 327 12;
#X obj 185 1171 outlet;
#X obj 249 795 sel 0 2 3 5 7 8 10;
#X obj 249 755 % 12;
#X msg 249 855 0;
#X floatatom 368 828 5 0 0 0 empty - - 12;
#X obj 189 915 +;
#X msg 368 855 -1;
#X obj 189 674 int;
#X obj 189 588 random 24;
#X obj 185 1035 makenote 127 400;
#X floatatom 246 178 22 0 0 0 empty - - 36;
#X obj 185 1082 pack f f;
#X obj 189 621 + 48;
#X obj 269 319 s \$0-metro;
#X obj 157 137 tgl 25 0 empty empty empty 17 7 0 10 #e4e4e4 #4d4d4d #373737 0 1;
#X obj 246 449 metro 1 120 permin;
#X msg 246 390 tempo \$1 permin;
#X msg 479 390 0.5;
#X msg 531 390 0.25;
#X msg 389 390 1;
#X msg 591 390 0.125;
#X obj 389 303 random 5;
#X obj 598 689 *;
#X msg 639 586 1;
#X msg 672 586 0.75;
#X msg 421 390 0.75;
#X msg 723 586 0.5;
#X obj 646 531 random 3;
#X obj 646 558 sel 0 1 2;
#X obj 246 497 t b b b;
#X floatatom 524 743 8 0 0 0 empty - - 16;
#X obj 598 908 s \$0-offtime;
#X obj 282 985 r \$0-offtime;
#X floatatom 48 1092 17 0 0 0 empty - - 36;
#X floatatom 282 1092 20 0 0 0 empty - - 36;
#X obj 598 855 *;
#X obj 672 689 r \$0-metro;
#X msg 246 137 120;
#X msg 334 137 240;
#X obj 246 268 t f f;
#X obj 189 706 t f f;
#X obj 389 338 sel 0 1 2 3 4;
#X msg 627 762 60000;
#X obj 672 721 t b f;
#X obj 673 806 /;
#X obj 246 236 / 4;
#X obj 639 640 * 0.999;
#X obj 157 50 loadbang;
#X connect 1 0 3 0;
#X connect 1 1 3 0;
#X connect 1 2 3 0;
#X connect 1 3 3 0;
#X connect 1 4 3 0;
#X connect 1 5 3 0;
#X connect 1 6 3 0;
#X connect 1 7 4 0;
#X connect 2 0 1 0;
#X connect 3 0 5 1;
#X connect 4 0 6 0;
#X connect 5 0 9 0;
#X connect 6 0 5 1;
#X connect 7 0 40 0;
#X connect 8 0 12 0;
#X connect 9 0 11 0;
#X connect 9 0 33 0;
#X connect 9 1 11 1;
#X connect 9 1 34 0;
#X connect 10 0 45 0;
#X connect 11 0 0 0;
#X connect 12 0 7 0;
#X connect 14 0 15 0;
#X connect 15 0 29 0;
#X connect 16 0 15 0;
#X connect 17 0 15 1;
#X connect 17 0 22 0;
#X connect 18 0 15 1;
#X connect 18 0 22 0;
#X connect 19 0 15 1;
#X connect 19 0 22 0;
#X connect 20 0 15 1;
#X connect 20 0 22 0;
#X connect 21 0 41 0;
#X connect 22 0 30 0;
#X connect 22 0 35 0;
#X connect 23 0 46 0;
#X connect 24 0 46 0;
#X connect 25 0 22 0;
#X connect 26 0 46 0;
#X connect 27 0 28 0;
#X connect 28 0 23 0;
#X connect 28 1 24 0;
#X connect 28 2 26 0;
#X connect 29 0 8 0;
#X connect 29 1 21 0;
#X connect 29 2 27 0;
#X connect 32 0 9 2;
#X connect 35 0 31 0;
#X connect 36 0 43 0;
#X connect 37 0 10 0;
#X connect 38 0 10 0;
#X connect 39 0 16 0;
#X connect 39 1 13 0;
#X connect 40 0 5 0;
#X connect 40 1 2 0;
#X connect 41 0 19 0;
#X connect 41 1 25 0;
#X connect 41 2 17 0;
#X connect 41 3 18 0;
#X connect 41 4 20 0;
#X connect 42 0 44 0;
#X connect 43 0 42 0;
#X connect 43 1 44 1;
#X connect 44 0 35 1;
#X connect 45 0 39 0;
#X connect 46 0 22 1;
#X connect 47 0 14 0;
#X connect 47 0 37 0;
