#N canvas 827 239 527 327 12;
#X obj 218 320 until;
#X obj 218 358 f;
#X obj 256 351 + 1;
#X msg 218 280 \$1;
#X obj 279 199 int \$1;
#X obj 256 377 mod \$1;
#X obj 279 239 t f f;
#X obj 199 459 outlet;
#X obj 439 79 inlet (int) set bank size \, no output;
#X obj 239 79 inlet (bang) start \; (int) sets bank size and starts;
#X obj 439 119 t f f;
#X obj 199 399 t f f;
#X connect 0 0 1 0;
#X connect 1 0 11 0;
#X connect 2 0 5 0;
#X connect 3 0 0 0;
#X connect 4 0 6 0;
#X connect 5 0 1 1;
#X connect 6 0 3 0;
#X connect 6 1 5 1;
#X connect 8 0 10 0;
#X connect 9 0 4 0;
#X connect 10 0 4 1;
#X connect 10 1 5 1;
#X connect 11 0 7 0;
#X connect 11 1 2 0;
