#N canvas 827 239 527 327 12;
#X obj 73 256 *;
#X obj 179 199 - \$1;
#X obj 73 55 inlet (float) 0-1;
#X obj 199 390 outlet;
#X obj 199 339 + \$1;
#X obj 139 159 f \$2;
#X obj 73 103 t f b;
#X obj 199 55 inlet (float) min;
#X obj 199 103 t f f;
#X obj 321 55 inlet (float) max;
#X connect 0 0 4 0;
#X connect 1 0 0 1;
#X connect 2 0 6 0;
#X connect 4 0 3 0;
#X connect 5 0 1 0;
#X connect 6 0 0 0;
#X connect 6 1 5 0;
#X connect 7 0 8 0;
#X connect 8 0 1 1;
#X connect 8 1 4 1;
#X connect 9 0 5 1;
