#N canvas 827 239 527 327 12;
#X obj -21 19 cnv 15 781 541 empty empty empty 20 12 0 14 #b7b7b7 #373737 0;
#N canvas 0 0 450 250 (subpatch) 0;
#X array perc-presets 128 float 2;
#X coords 0 1 128 0 1222 182 1;
#X restore 19 839 graph;
#X obj -1 19 olm.percs~ 0;
#X obj 219 19 olm.percs~ 1;
#X obj 439 19 olm.preset_ui perc-presets 24;
#X obj -1 779 outlet~ (signal) perc 0;
#X obj 219 779 outlet~ (signal) perc 1;
#N canvas 0 50 450 300 slider-mapping 0;
#X obj 59 59 loadbang;
#X obj 19 19 r 0-perc-freq-out;
#X obj 19 199 s 0-perc-freq-in;
#X obj 19 159 olm.slider-wrapper perc-presets 0;
#X msg 59 319 offset 0.388282 \, phase 0.0882813 \, min 0 \, max 1, f 40;
#X obj 59 279 loadbang;
#X obj 19 379 olm.slider-wrapper perc-presets 1;
#X obj 19 239 r 0-perc-pwm-out;
#X obj 19 419 s 0-perc-pwm-in;
#X msg 59 539 offset 0.851562 \, phase 0.135156 \, min 0 \, max 1, f 40;
#X obj 59 499 loadbang;
#X obj 19 599 olm.slider-wrapper perc-presets 2;
#X obj 19 459 r 0-perc-tone-out;
#X obj 19 639 s 0-perc-tone-in;
#X obj 59 719 loadbang;
#X obj 19 819 olm.slider-wrapper perc-presets 3;
#X obj 19 679 r 0-perc-snare-out;
#X obj 19 859 s 0-perc-snare-in;
#X obj 59 939 loadbang;
#X obj 19 1039 olm.slider-wrapper perc-presets 4;
#X obj 19 899 r 0-perc-decay-out;
#X obj 19 1079 s 0-perc-decay-in;
#X obj 59 1159 loadbang;
#X obj 19 1259 olm.slider-wrapper perc-presets 5;
#X obj 19 1119 r 0-perc-cutoff-out;
#X obj 19 1299 s 0-perc-cutoff-in;
#X obj 59 1379 loadbang;
#X obj 19 1479 olm.slider-wrapper perc-presets 6;
#X obj 19 1339 r 0-perc-res-out;
#X obj 19 1519 s 0-perc-res-in;
#X obj 59 1599 loadbang;
#X obj 19 1699 olm.slider-wrapper perc-presets 7;
#X obj 19 1559 r 0-perc-rhythm-out;
#X obj 19 1739 s 0-perc-rhythm-in;
#X obj 519 59 loadbang;
#X obj 479 19 r 1-perc-freq-out;
#X obj 479 199 s 1-perc-freq-in;
#X obj 479 159 olm.slider-wrapper perc-presets 8;
#X obj 519 279 loadbang;
#X obj 479 379 olm.slider-wrapper perc-presets 9;
#X obj 479 239 r 1-perc-pwm-out;
#X obj 479 419 s 1-perc-pwm-in;
#X obj 519 499 loadbang;
#X obj 479 599 olm.slider-wrapper perc-presets 10;
#X obj 479 459 r 1-perc-tone-out;
#X obj 479 639 s 1-perc-tone-in;
#X obj 519 719 loadbang;
#X obj 479 819 olm.slider-wrapper perc-presets 11;
#X obj 479 679 r 1-perc-snare-out;
#X obj 479 859 s 1-perc-snare-in;
#X obj 519 939 loadbang;
#X obj 479 1039 olm.slider-wrapper perc-presets 12;
#X obj 479 899 r 1-perc-decay-out;
#X obj 479 1079 s 1-perc-decay-in;
#X obj 519 1159 loadbang;
#X obj 479 1259 olm.slider-wrapper perc-presets 13;
#X obj 479 1119 r 1-perc-cutoff-out;
#X obj 479 1299 s 1-perc-cutoff-in;
#X obj 519 1379 loadbang;
#X obj 479 1479 olm.slider-wrapper perc-presets 14;
#X obj 479 1339 r 1-perc-res-out;
#X obj 479 1519 s 1-perc-res-in;
#X obj 519 1599 loadbang;
#X obj 479 1699 olm.slider-wrapper perc-presets 15;
#X obj 479 1559 r 1-perc-rhythm-out;
#X obj 479 1739 s 1-perc-rhythm-in;
#X msg 519 319 offset 0.53125 \, phase 0.103125 \, min 0 \, max 1, f 40;
#X msg 519 539 offset 0.367155 \, phase 0.0867187 \, min 0 \, max 1, f 40;
#X msg 519 759 offset 0.742188 \, phase 0.124219 \, min 0 \, max 1, f 40;
#X msg 519 979 offset 0.273438 \, phase 0.0773438 \, min 0.4 \, max 0.85, f 40;
#X msg 519 1199 offset 0.101562 \, phase 0.0601563 \, min 0.5 \, max 0.9, f 40;
#X msg 519 1419 offset 0.367188 \, phase 0.0867187 \, min 0 \, max 0.5, f 40;
#X msg 519 1639 offset 0.617188 \, phase 0.111719 \, min 0.8 \, max 1, f 40;
#X msg 59 759 offset 0.601156 \, phase 0.110156 \, min 0 \, max 1, f 40;
#X msg 59 979 offset 0.28125 \, phase 0.078125 \, min 0.4 \, max 0.85, f 40;
#X msg 59 1199 offset 0.164062 \, phase 0.0664062 \, min 0.5 \, max 0.9, f 40;
#X msg 59 1419 offset 0.492188 \, phase 0.0992188 \, min 0 \, max 0.5, f 40;
#X msg 59 1639 offset 0.414062 \, phase 0.0914063 \, min 0.8 \, max 1, f 40;
#X msg 59 99 offset 0.859375 \, phase 0.135938 \, min 0.4 \, max 0.8, f 40;
#X msg 519 99 offset 0.59375 \, phase 0.109375 \, min 0.4 \, max 0.8, f 40;
#X connect 0 0 78 0;
#X connect 1 0 3 0;
#X connect 3 0 2 0;
#X connect 4 0 6 0;
#X connect 5 0 4 0;
#X connect 6 0 8 0;
#X connect 7 0 6 0;
#X connect 9 0 11 0;
#X connect 10 0 9 0;
#X connect 11 0 13 0;
#X connect 12 0 11 0;
#X connect 14 0 73 0;
#X connect 15 0 17 0;
#X connect 16 0 15 0;
#X connect 18 0 74 0;
#X connect 19 0 21 0;
#X connect 20 0 19 0;
#X connect 22 0 75 0;
#X connect 23 0 25 0;
#X connect 24 0 23 0;
#X connect 26 0 76 0;
#X connect 27 0 29 0;
#X connect 28 0 27 0;
#X connect 30 0 77 0;
#X connect 31 0 33 0;
#X connect 32 0 31 0;
#X connect 34 0 79 0;
#X connect 35 0 37 0;
#X connect 37 0 36 0;
#X connect 38 0 66 0;
#X connect 39 0 41 0;
#X connect 40 0 39 0;
#X connect 42 0 67 0;
#X connect 43 0 45 0;
#X connect 44 0 43 0;
#X connect 46 0 68 0;
#X connect 47 0 49 0;
#X connect 48 0 47 0;
#X connect 50 0 69 0;
#X connect 51 0 53 0;
#X connect 52 0 51 0;
#X connect 54 0 70 0;
#X connect 55 0 57 0;
#X connect 56 0 55 0;
#X connect 58 0 71 0;
#X connect 59 0 61 0;
#X connect 60 0 59 0;
#X connect 62 0 72 0;
#X connect 63 0 65 0;
#X connect 64 0 63 0;
#X connect 66 0 39 0;
#X connect 67 0 43 0;
#X connect 68 0 47 0;
#X connect 69 0 51 0;
#X connect 70 0 55 0;
#X connect 71 0 59 0;
#X connect 72 0 63 0;
#X connect 73 0 15 0;
#X connect 74 0 19 0;
#X connect 75 0 23 0;
#X connect 76 0 27 0;
#X connect 77 0 31 0;
#X connect 78 0 3 0;
#X connect 79 0 37 0;
#X restore 499 579 pd slider-mapping;
#X connect 2 0 5 0;
#X connect 3 0 6 0;
#X coords 0 0 1 1 759 555 1 1 0;
