#N canvas 827 239 527 327 12;
#X obj 339 519 olm.pingpong;
#X obj 299 639 olm.slider-randomizer;
#X obj 819 379 tabread \$1-chaos-maxes;
#X obj 659 379 tabread \$1-chaos-mins;
#X obj 519 379 tabread \$1-phases;
#X obj 379 379 tabread \$1-offsets;
#X obj 719 179 loadbang;
#X obj 299 379 t b f;
#X obj 719 239 f \$2;
#X obj 299 979 olm.alpha;
#X obj 659 839 olm.alpha;
#X obj 839 759 tabread \$1-presets;
#X obj 844 633 *;
#X obj 844 533 r preset-select;
#X obj 844 573 int;
#X obj 984 533 int \$3;
#X obj 839 699 + \$2;
#X obj 704 573 r preset-load;
#X obj 704 753 tabread \$1-controls;
#X obj 704 673 f \$2;
#X obj 179 899 r random-alpha;
#X obj 299 899 t b f;
#X obj 339 899 t b f;
#X obj 139 1259 pack f f;
#X obj 319 1359 tabwrite \$1-controls;
#X obj 139 1179 f \$2;
#X obj 439 1319 f \$2;
#X obj 439 1279 loadbang;
#X obj 179 1099 t b f f;
#X obj 564 573 r loading-alpha;
#X obj 139 1359 s \$1;
#X obj 159 199 r param-chaos;
#X obj 299 199 r param-seed;
#X connect 0 0 1 1;
#X connect 1 0 21 0;
#X connect 2 0 1 3;
#X connect 3 0 1 2;
#X connect 4 0 0 2;
#X connect 5 0 0 1;
#X connect 6 0 8 0;
#X connect 7 0 1 0;
#X connect 7 1 0 0;
#X connect 8 0 5 0;
#X connect 8 0 4 0;
#X connect 8 0 3 0;
#X connect 8 0 2 0;
#X connect 9 0 28 0;
#X connect 10 0 22 0;
#X connect 11 0 10 2;
#X connect 12 0 16 0;
#X connect 13 0 14 0;
#X connect 14 0 12 0;
#X connect 15 0 12 1;
#X connect 16 0 11 0;
#X connect 17 0 19 0;
#X connect 18 0 10 1;
#X connect 19 0 18 0;
#X connect 20 0 9 0;
#X connect 21 0 9 0;
#X connect 21 1 9 2;
#X connect 22 0 9 0;
#X connect 22 1 9 1;
#X connect 23 0 30 0;
#X connect 25 0 23 0;
#X connect 26 0 24 1;
#X connect 27 0 26 0;
#X connect 28 0 25 0;
#X connect 28 1 23 1;
#X connect 28 2 24 0;
#X connect 29 0 10 0;
#X connect 31 0 1 0;
#X connect 32 0 7 0;
