#N canvas 827 239 527 327 12;
#N canvas 0 50 450 250 (subpatch) 0;
#X array \$0-arpeg-notes 6 float 2;
#X coords 0 90 6 20 200 140 1;
#X restore 494 157 graph;
#X obj 54 77 inlet;
#X obj 114 77 inlet;
#X obj 54 117 stripnote;
#X obj 114 197 f;
#X obj 174 197 + 1;
#X obj 174 237 % 6;
#X obj 54 157 t f b;
#X obj 275 111 tgl 25 0 empty empty empty 17 7 0 10 #e4e4e4 #4d4d4d #4d4d4d 0 1;
#X floatatom 334 217 11 0 0 0 empty - - 24;
#X obj 313 332 bng 25 250 50 0 empty empty empty 17 7 0 10 #e4e4e4 #4d4d4d #4d4d4d;
#X obj 357 77 vsl 17 128 300 50 0 0 empty empty empty 0 -9 0 10 #e4e4e4 #4d4d4d #4d4d4d 0 1;
#X obj 294 277 metro 100;
#X obj 311 419 f;
#X obj 371 419 + 1;
#X obj 371 459 % 6;
#X floatatom 314 477 5 0 0 0 empty - - 12;
#X msg 354 357 0;
#X floatatom 314 566 5 0 0 0 empty - - 12;
#X obj 314 657 pack f f;
#X obj 314 617 makenote 127 200;
#X obj 314 717 outlet;
#X obj 54 311 tabwrite \$0-arpeg-notes;
#X obj 314 521 tabread \$0-arpeg-notes;
#X connect 1 0 3 0;
#X connect 2 0 3 1;
#X connect 3 0 7 0;
#X connect 4 0 5 0;
#X connect 4 0 22 1;
#X connect 5 0 6 0;
#X connect 6 0 4 1;
#X connect 7 0 22 0;
#X connect 7 1 4 0;
#X connect 8 0 12 0;
#X connect 8 0 17 0;
#X connect 9 0 12 1;
#X connect 9 0 20 2;
#X connect 10 0 13 0;
#X connect 11 0 9 0;
#X connect 12 0 10 0;
#X connect 13 0 14 0;
#X connect 13 0 16 0;
#X connect 14 0 15 0;
#X connect 15 0 13 1;
#X connect 16 0 23 0;
#X connect 17 0 13 0;
#X connect 18 0 20 0;
#X connect 19 0 21 0;
#X connect 20 0 19 0;
#X connect 20 1 19 1;
#X connect 23 0 18 0;
