#N canvas 827 239 527 327 12;
#X obj 362 411 * 1;
#X obj 436 335 - 0;
#X obj 470 523 + 0;
#X obj 562 150 inlet (float) value;
#X obj 382 150 inlet (float) value;
#X obj 192 150 inlet (float) alpha;
#X obj 470 572 outlet;
#X obj 436 256 t b f f;
#X obj 404 17 loadbang;
#X obj 382 211 f \$1;
#X obj 562 211 f \$2;
#X connect 0 0 2 0;
#X connect 1 0 0 1;
#X connect 2 0 6 0;
#X connect 3 0 10 0;
#X connect 4 0 9 0;
#X connect 5 0 0 0;
#X connect 7 0 1 0;
#X connect 7 1 1 1;
#X connect 7 2 2 1;
#X connect 8 0 9 0;
#X connect 8 0 10 0;
#X connect 9 0 7 0;
#X connect 10 0 1 0;
