#N canvas 827 239 527 327 12;
#X obj 144 427 outlet~;
#X obj 144 86 inlet note in;
#X obj 295 182 inlet~ (signal) lfo;
#X obj 144 206 sig~;
#X obj 144 167 mtof;
#X obj 144 126 unpack f f;
#N canvas 0 50 450 300 amp 0;
#X obj 19 19 inlet~;
#X obj 239 379 outlet~;
#X obj 157 19 inlet;
#X obj 39 279 *~;
#X obj 239 279 *~;
#X obj 59 241 line~;
#X obj 59 161 > 0;
#X obj 259 19 inlet~ (signal) envelope;
#X msg 59 199 \$1 5;
#X connect 0 0 4 0;
#X connect 4 0 1 0;
#X connect 5 0 3 1;
#X connect 6 0 8 0;
#X connect 7 0 4 1;
#X connect 8 0 5 0;
#X restore 144 366 pd amp;
#N canvas 0 50 450 300 filter 0;
#X obj 372 168 inlet~;
#X obj 479 739 outlet~;
#X obj 799 268 *~;
#X obj 659 310 *~;
#X obj 503 374 +~;
#X obj 503 427 +~;
#X obj 519 479 *~ 10000;
#X obj 479 219 pow 3;
#X obj 696 256 pow 3;
#X obj 659 599 sig~;
#X obj 659 179 inlet~ lfo;
#X obj 799 179 inlet~ env;
#X obj 479 299 sig~;
#X obj 648 494 pow 3.5;
#X obj 474 647 mkmr.fi.lowpass~;
#X obj 390 487 hv.tanh~;
#X obj 479 59 r juno;
#X obj 479 99 route 7 8 9 10;
#X obj 519 599 clip~ 200 16000;
#X obj 479 259 olm.remap_slider 210 15000;
#X obj 659 559 olm.remap_slider 0.5 7;
#X obj 519 539 +~ 200;
#X connect 0 0 15 0;
#X connect 2 0 5 1;
#X connect 3 0 4 1;
#X connect 4 0 5 0;
#X connect 5 0 6 0;
#X connect 6 0 21 0;
#X connect 7 0 19 0;
#X connect 8 0 3 1;
#X connect 9 0 14 2;
#X connect 10 0 3 0;
#X connect 11 0 2 0;
#X connect 12 0 4 0;
#X connect 13 0 20 0;
#X connect 14 0 1 0;
#X connect 15 0 14 0;
#X connect 16 0 17 0;
#X connect 17 0 7 0;
#X connect 17 1 13 0;
#X connect 17 2 8 0;
#X connect 17 3 2 1;
#X connect 18 0 14 1;
#X connect 19 0 12 0;
#X connect 20 0 9 0;
#X connect 21 0 18 0;
#X restore 144 306 pd filter;
#N canvas 0 50 450 300 osc 1;
#X obj 631 941 outlet~;
#X obj 749 379 +~;
#X obj 878 332 *~;
#X obj 979 250 pow 3;
#X obj 631 659 hv.osc~ square;
#X obj 1019 628 /~ 2;
#X obj 878 214 inlet~ lfo in;
#X obj 747 214 inlet~ pitch freq;
#X obj 1152 651 noise~;
#X obj 979 279 * 100;
#X obj 631 759 *~ 0.5;
#X obj 803 761 *~ 0.5;
#X obj 1019 761 *~ 0.5;
#X obj 1152 761 *~ 0.5;
#X obj 803 693 *~ 2;
#X obj 803 726 -~ 1;
#X obj 803 659 phasor~ 440;
#X obj 1019 693 *~ 2;
#X obj 1019 726 -~ 1;
#X obj 1019 659 phasor~ 440;
#X obj 631 886 /~ 5;
#X obj 698 608 olm.remap_slider 0.1 0.5;
#X obj 421 107 r juno;
#X obj 419 159 route 1 2 3 4 5 6;
#X obj 979 219 * 0.4;
#X connect 1 0 4 0;
#X connect 1 0 5 0;
#X connect 1 0 16 0;
#X connect 2 0 1 1;
#X connect 3 0 9 0;
#X connect 4 0 10 0;
#X connect 5 0 19 0;
#X connect 6 0 2 0;
#X connect 7 0 1 0;
#X connect 8 0 13 0;
#X connect 9 0 2 1;
#X connect 10 0 20 0;
#X connect 11 0 20 0;
#X connect 12 0 20 0;
#X connect 13 0 20 0;
#X connect 14 0 15 0;
#X connect 15 0 11 0;
#X connect 16 0 14 0;
#X connect 17 0 18 0;
#X connect 18 0 12 0;
#X connect 19 0 17 0;
#X connect 20 0 0 0;
#X connect 21 0 4 1;
#X connect 22 0 23 0;
#X connect 23 0 10 1;
#X connect 23 1 11 1;
#X connect 23 2 12 1;
#X connect 23 3 13 1;
#X connect 23 4 24 0;
#X connect 23 5 21 0;
#X connect 24 0 3 0;
#X restore 144 246 pd osc;
#N canvas 0 50 450 300 env 0;
#X obj 158 477 outlet~;
#X obj 158 99 inlet velocity;
#X obj 158 373 olm.adsr2~;
#X obj 279 99 pow 3.5;
#X obj 389 99 pow 3.5;
#X obj 510 99 pow 3.5;
#X obj 619 99 pow 3.5;
#X obj 279 39 route 11 12 13 14;
#X obj 279 -1 r juno;
#X obj 399 239 olm.remap_slider 100 8000;
#X obj 739 239 olm.remap_slider 100 8000;
#X obj 579 239 olm.remap_slider 0.01 1;
#X obj 219 239 olm.remap_slider 25 8000;
#X connect 1 0 2 0;
#X connect 2 0 0 0;
#X connect 3 0 12 0;
#X connect 4 0 9 0;
#X connect 5 0 11 0;
#X connect 6 0 10 0;
#X connect 7 0 3 0;
#X connect 7 1 4 0;
#X connect 7 2 5 0;
#X connect 7 3 6 0;
#X connect 8 0 7 0;
#X connect 9 0 2 2;
#X connect 10 0 2 4;
#X connect 11 0 2 3;
#X connect 12 0 2 1;
#X restore 267 261 pd env;
#X connect 1 0 5 0;
#X connect 2 0 8 1;
#X connect 2 0 7 1;
#X connect 3 0 8 0;
#X connect 4 0 3 0;
#X connect 5 0 4 0;
#X connect 5 1 9 0;
#X connect 6 0 0 0;
#X connect 7 0 6 0;
#X connect 8 0 7 0;
#X connect 9 0 7 2;
#X connect 9 0 6 2;
