#N canvas 827 239 527 327 12;
#X obj 779 347 random 128;
#X obj 779 259 bng 61 250 50 0 empty empty empty 17 7 0 10 #e4e4e4 #4d4d4d #373737;
#X obj 779 379 / 128;
#X floatatom 699 539 22 0 0 0 - - - 36;
#X obj 897 481 olm.remap_slider 0.05 0.15;
#X floatatom 892 542 26 0 0 0 - - - 36;
#X connect 0 0 2 0;
#X connect 1 0 0 0;
#X connect 2 0 3 0;
#X connect 2 0 4 0;
#X connect 4 0 5 0;
