#N canvas 827 239 527 327 12;
#X obj 278 237 t b b;
#X obj 278 558 pow~ 3.5;
#X obj 278 168 inlet (bang) trigger;
#X obj 465 168 inlet (float) decay;
#X obj 465 248 clip 0 1;
#X obj 370 343 f \$1;
#X obj 278 605 outlet~;
#X obj 370 385 * 300;
#X obj 370 433 + 50;
#X msg 278 288 1 2;
#X obj 370 288 del 10;
#X obj 278 520 line~;
#X msg 370 484 0.0001 \$1;
#X connect 0 0 9 0;
#X connect 0 1 10 0;
#X connect 1 0 6 0;
#X connect 2 0 0 0;
#X connect 3 0 4 0;
#X connect 4 0 5 1;
#X connect 5 0 7 0;
#X connect 7 0 8 0;
#X connect 8 0 12 0;
#X connect 9 0 11 0;
#X connect 10 0 5 0;
#X connect 11 0 1 0;
#X connect 12 0 11 0;
