#N canvas 827 239 527 327 12;
#X obj -1 -1 cnv 15 1381 741 empty empty juno 20 27 0 35 #b79a96 #373737 0;
#N canvas 0 50 450 300 juno_poly 1;
#X obj 199 200 inlet (midi) note;
#X obj 207 724 outlet~;
#X obj 199 387 pack f f f;
#X obj 207 561 olm.juno_voice;
#X obj 331 561 olm.juno_voice;
#X obj 453 561 olm.juno_voice;
#X obj 199 479 route 1 2 3;
#X obj 199 307 poly 3 1;
#X obj 207 651 /~ 4;
#N canvas 0 50 450 300 lfo 0;
#X obj 361 533 throw~ lfoOsc;
#X obj 489 533 throw~ lfoFilter;
#X obj 281 533 outlet~;
#X obj 281 381 sig~;
#X obj 281 419 olm.triangle~;
#X obj 281 331 * 10;
#X obj 279 219 r juno;
#X obj 281 273 route 0;
#X connect 3 0 4 0;
#X connect 4 0 2 0;
#X connect 4 0 0 0;
#X connect 4 0 1 0;
#X connect 5 0 3 0;
#X connect 6 0 7 0;
#X connect 7 0 5 0;
#X restore 519 359 pd lfo;
#X connect 0 0 7 0;
#X connect 2 0 6 0;
#X connect 3 0 8 0 32.................i.........vH.........XD....;
#X connect 4 0 8 0 32.................i....T3++++H....E9+++aD....;
#X connect 5 0 8 0 32.................i....rv++++H....K7+++aD....;
#X connect 6 0 3 0;
#X connect 6 1 4 0;
#X connect 6 2 5 0;
#X connect 7 0 2 0;
#X connect 7 1 2 1;
#X connect 7 2 2 2;
#X connect 8 0 1 0;
#X connect 9 0 3 1;
#X connect 9 0 4 1;
#X connect 9 0 5 1;
#X restore 1179 457 pd juno_poly;
#X obj 1179 497 outlet~;
#N canvas 0 0 450 250 (subpatch) 0;
#X array juno-presets 60 float 2;
#X coords 0 1 60 0 1342 202 1;
#X restore 19 79 graph;
#X obj 1179 419 inlet (midi) note + velocity;
#N canvas 0 0 450 250 (subpatch) 0;
#X array juno-controls 15 float 2;
#X coords 0 1 15 0 322 202 1;
#X restore 359 299 graph;
#N canvas 0 0 450 250 (subpatch) 0;
#X array juno-offsets 15 float 3;
#A 0 0.876238 0.789604 0.277228 0.425743 0.574257 0.351485 0.514851 0.693069 0.351485 0.514851 0.613861 0.455446 0.242574 0.613861 0.965347;
#X coords 0 1 15 0 322 202 1;
#X restore 19 519 graph;
#N canvas 0 0 450 250 (subpatch) 0;
#X array juno-phases 15 float 3;
#A 0 0.425743 0.524752 0.336634 0.5 0.618812 0.425743 0.628713 0.415842 0.495049 0.376238 0.514851 0.460396 0.490099 0.539604 0.618812;
#X coords 0 1 15 0 322 202 1;
#X restore 359 519 graph;
#N canvas 0 0 450 250 (subpatch) 0;
#X array juno-chaos-mins 15 float 3;
#A 0 0.277228 0.277228 0.277228 0.267327 0.267327 0.262376 0.262376 0.262376 0.262376 0.272277 0.282178 0.287129 0.287129 0.287129 0.277228;
#X coords 0 1 15 0 322 202 1;
#X restore 699 519 graph;
#N canvas 0 0 450 250 (subpatch) 0;
#X array juno-chaos-maxes 15 float 3;
#A 0 0.732673 0.732673 0.732673 0.732673 0.727723 0.727723 0.727723 0.725248 0.722772 0.725248 0.732673 0.732673 0.747525 0.752475 0.772277;
#X coords 0 1 15 0 322 202 1;
#X restore 1039 519 graph;
#N canvas 0 0 450 250 (subpatch) 0;
#X array juno-loading 15 float 2;
#X coords 0 1 15 0 322 202 1;
#X restore 699 299 graph;
#N canvas 0 0 450 250 (subpatch) 0;
#X array juno-random 15 float 2;
#X coords 0 1 15 0 322 202 1;
#X restore 19 299 graph;
#X obj 1179 379 send juno;
#X obj 1179 299 r instrument-seed;
#X obj 1179 339 olm.control-system juno 15;
#X connect 1 0 2 0;
#X connect 4 0 1 0;
#X connect 13 0 14 0;
#X connect 14 0 12 0;
#X coords 0 0 1 1 1381 741 1 -1 -1;
