#N canvas 827 239 527 327 12;
#X obj 276 349 sel 0 2 3 5 7 8 10;
#X obj 276 309 % 12;
#X msg 276 409 0;
#X floatatom 395 382 5 0 0 0 empty - - 12;
#X obj 216 469 +;
#X msg 395 409 -1;
#X obj 216 228 int;
#X obj 216 260 t f f;
#X obj 216 179 inlet (float) note;
#X obj 216 515 outlet;
#X connect 0 0 2 0;
#X connect 0 1 2 0;
#X connect 0 2 2 0;
#X connect 0 3 2 0;
#X connect 0 4 2 0;
#X connect 0 5 2 0;
#X connect 0 6 2 0;
#X connect 0 7 3 0;
#X connect 1 0 0 0;
#X connect 2 0 4 1;
#X connect 3 0 5 0;
#X connect 4 0 9 0;
#X connect 5 0 4 1;
#X connect 6 0 7 0;
#X connect 7 0 4 0;
#X connect 7 1 1 0;
#X connect 8 0 6 0;
