#N canvas 827 239 527 327 12;
#X obj -1 -1 cnv 15 1381 741 empty empty seq 20 27 0 35 #a2a0b7 #373737 0;
#X obj 1139 439 outlet;
#N canvas 0 0 450 250 (subpatch) 0;
#X array seq-presets 16 float 2;
#X coords 0 1 16 0 1342 202 1;
#X restore 19 79 graph;
#N canvas 0 0 450 250 (subpatch) 0;
#X array seq-controls 4 float 2;
#X coords 0 1 4 0 322 202 1;
#X restore 359 299 graph;
#N canvas 0 0 450 250 (subpatch) 0;
#X array seq-offsets 4 float 3;
#A 0 0.445545 0.643564 0.30198 0.831683;
#X coords 0 1 4 0 322 202 1;
#X restore 19 519 graph;
#N canvas 0 0 450 250 (subpatch) 0;
#X array seq-phases 4 float 3;
#A 0 0.663366 0.460396 0.648515 0.891089;
#X coords 0 1 4 0 322 202 1;
#X restore 359 519 graph;
#N canvas 0 0 450 250 (subpatch) 0;
#X array seq-chaos-mins 4 float 3;
#A 0 0.0544555 0.292079 0 0;
#X coords 0 1 4 0 322 202 1;
#X restore 699 519 graph;
#N canvas 0 0 450 250 (subpatch) 0;
#X array seq-chaos-maxes 4 float 3;
#A 0 0.475248 0.990099 1 0.539604;
#X coords 0 1 4 0 322 202 1;
#X restore 1039 519 graph;
#N canvas 0 0 450 250 (subpatch) 0;
#X array seq-loading 4 float 2;
#X coords 0 1 4 0 322 202 1;
#X restore 699 299 graph;
#N canvas 0 0 450 250 (subpatch) 0;
#X array seq-random 4 float 2;
#X coords 0 1 4 0 322 202 1;
#X restore 19 299 graph;
#X obj 1039 299 r instrument-seed;
#X obj 1039 339 olm.control-system seq 4;
#X obj 1039 379 send seq;
#N canvas 0 50 450 300 seq-internals 0;
#X obj 1136 3585 outlet;
#X obj 650 1572 f;
#X obj 707 1572 + 1;
#X obj 650 1646 % 8;
#X obj 750 1606 int;
#X obj 530 986 loadbang;
#X obj 821 2426 *;
#X obj 812 2331 int;
#X obj 812 2358 / 4;
#X obj 559 2919 makenote 127 500;
#X obj 770 1026 s \$0-milliseconds;
#X obj 859 2379 r \$0-milliseconds;
#X obj 1479 2899 *;
#X obj 1479 2819 int;
#X obj 1479 2859 / 4;
#X obj 1399 2659 t f f f;
#X obj 1519 2859 r \$0-milliseconds;
#X obj 1136 3500 pack f f;
#X obj 110 466 int;
#X obj 2150 2291 + 1;
#X obj 1479 1879 r \$0-randomize;
#X obj 479 679 s \$0-randomize;
#X obj 1959 1776 r \$0-randomize;
#X obj 2150 2188 r \$0-randomize;
#X obj 2405 2286 + 1;
#X obj 2405 2181 r \$0-randomize;
#X obj 2679 1939 r \$0-randomize;
#X obj 599 679 s \$0-randomstep;
#X obj 479 459 * 16;
#X obj 1850 2226 r \$0-randomstep;
#X obj 2039 1959 r \$0-randomstep;
#X obj 2261 2253 r \$0-randomstep;
#X obj 2504 2248 r \$0-randomstep;
#X obj 2769 2253 r \$0-randomstep;
#X obj 3079 2299 r \$0-randomstep;
#X obj 1155 166 until;
#X obj 1155 215 f;
#X obj 1195 215 + 1;
#X obj 1155 335 t b f;
#X obj 1155 379 s \$0-randomize;
#X obj 1279 379 s \$0-randomstep;
#X obj 2679 2159 t f f;
#X obj 2957 2224 t f f;
#X obj 2676 2037 random 128;
#X obj 2951 2141 r \$0-randomize;
#X obj 2953 2170 random 128;
#X obj 110 506 s \$0-bpm;
#X obj 650 986 r \$0-bpm;
#X obj 290 566 s \$0-stepcount;
#X obj 750 1566 r \$0-stepcount;
#X obj 290 466 int;
#X obj 290 426 olm.remap_slider 4 16;
#X obj 479 499 int, f 5;
#X obj 650 1606 t f f;
#X obj 650 1126 metro 1000;
#X obj 839 2919 makenote 127 500;
#X obj 1139 2919 makenote 127 500;
#X obj 1399 2939 makenote 127 500;
#X obj 650 1691 t f f;
#X obj 550 2086 t f f;
#X obj 550 2486 t f f f;
#X obj 819 2479 s \$0-len-storage;
#X obj 669 2868 f;
#X obj 690 2816 r \$0-len-storage;
#X obj 944 2863 f;
#X obj 965 2811 r \$0-len-storage;
#X obj 1230 2843 f;
#X obj 1251 2791 r \$0-len-storage;
#X obj 2150 2253 random 4;
#X obj 2405 2248 random 4;
#X obj 1155 88 del 200;
#X msg 1155 123 16;
#X obj 1155 255 mod 16;
#X obj 1155 295 t f f;
#X obj 119 79 r seq;
#X obj 1630 2246 tabwrite \$0-pitches1;
#X obj 1959 2019 tabwrite \$0-pitches2;
#X obj 1139 2704 tabread \$0-pitches1;
#X obj 1399 2699 tabread \$0-pitches2;
#X obj 1171 2751 tabread \$0-velocities1;
#X obj 812 2288 tabread \$0-lengths1;
#X obj 559 2739 tabread \$0-3rds;
#X obj 839 2743 tabread \$0-7ths;
#X obj 1479 2779 tabread \$0-lengths2;
#X obj 2150 2326 tabwrite \$0-lengths1;
#X obj 2405 2321 tabwrite \$0-lengths2;
#X obj 2660 2326 tabwrite \$0-velocities1;
#X obj 1519 2439 tabwrite \$0-3rds;
#X obj 1439 2579 tabwrite \$0-7ths;
#X obj 1479 2059 +;
#X obj 1959 1979 +;
#X obj 479 579 change;
#X obj 479 639 t b f;
#X obj 290 506 t f f;
#X obj 1479 1957 + 36;
#X obj 1479 1919 random 16;
#X obj 1959 1879 + 60;
#X obj 1959 1841 random 36;
#X obj 1690 1626 int;
#X obj 1690 1586 olm.alpha;
#X obj 479 379 t f f;
#X obj 1810 1446 f;
#X obj 1750 1386 t f f f;
#X obj 1350 1486 incounter;
#X obj 1750 1346 random 12;
#X obj 1270 1406 spigot;
#X msg 1290 1326 1;
#X obj 1310 1286 t b b b;
#X obj 1350 1446 *;
#X obj 1690 1666 t f f f;
#X obj 1350 1246 t b f;
#X obj 1290 1366 tgl 25 0 empty empty empty 17 7 0 10 #e4e4e4 #4d4d4d #373737 0 1;
#X obj 1819 1639 s \$0-reached;
#X obj 1750 786 r \$0-reached;
#X obj 1650 1526 min 1;
#X obj 1350 1106 random 128;
#X obj 1350 1146 / 128;
#X obj 1750 826 t f f f;
#X obj 1819 1599 ==;
#X obj 1830 1386 sel 1;
#X obj 1550 1206 == 0;
#X obj 1879 1599 change;
#X obj 1350 926 incounter;
#X obj 1350 986 >=;
#X obj 1470 866 random 128;
#X obj 1470 906 / 128;
#X obj 1390 786 sel 1;
#X obj 1350 1026 sel 1;
#X obj 1310 886 spigot;
#X obj 1150 786 t f f;
#X obj 1390 826 t b b b;
#X msg 1330 806 1;
#X msg 1270 806 0;
#X obj 1330 846 tgl 25 0 empty empty empty 17 7 0 10 #e4e4e4 #4d4d4d #373737 0 1;
#X obj 1350 1186 olm.remap_slider 0.5 2;
#X obj 1470 946 olm.remap_slider 2 4;
#X obj 650 1066 del;
#X obj 1490 2136 t f f f;
#X obj 1499 2299 + 15;
#X obj 1419 2299 + 22;
#X obj 479 419 incounter;
#X obj 479 539 mod 16;
#X obj 650 1366 f;
#X obj 690 1366 + 1;
#X obj 690 1506 del;
#X obj 690 1466 bng 25 250 50 0 empty empty empty 17 7 0 10 #e4e4e4 #4d4d4d #373737;
#X obj 650 1466 bng 25 250 50 0 empty empty empty 17 7 0 10 #e4e4e4 #4d4d4d #373737;
#X obj 850 1446 *;
#X obj 930 1366 t b f;
#X obj 930 1326 * 0.4;
#X obj 930 1286 pow 3.5;
#X obj 650 1406 route 0 1;
#X obj 730 1366 mod 2;
#X obj 650 1326 del;
#X obj 810 1206 random 100;
#X obj 810 1246 / 100;
#X obj 650 1026 t f f f f f;
#X obj 770 1286 *;
#X obj 670 1166 t b b;
#X obj 710 1246 * 0.1;
#X obj 1439 2539 olm.scale-selector;
#X obj 1450 1086 random 3;
#X obj 1450 1126 s \$0-scale;
#X obj 1519 2399 olm.scale-selector;
#X obj 1579 2359 r \$0-scale;
#X obj 1479 1999 olm.scale-selector;
#X obj 1570 1966 r \$0-scale;
#X obj 1959 1919 olm.scale-selector;
#X obj 2039 1879 r \$0-scale;
#X obj 1350 1066 t b b b;
#X obj 110 386 pow 2.5;
#X obj 110 426 olm.remap_slider 200 5000;
#X obj 119 119 route 0 1 2;
#X obj 930 1166 r seq;
#X obj 930 1206 route 3;
#X obj 539 239 r load-setup;
#X obj 479 339 spigot;
#X msg 539 279 0;
#X msg 499 279 1;
#X obj 2659 2459 tabwrite \$0-velocities2;
#X obj 2779 2559 tabwrite \$0-velocities3;
#X obj 2659 2419 *;
#X obj 2679 2259 *;
#X obj 2779 2519 *;
#X obj 2639 2219 >= 48;
#X obj 2739 2179 random 2;
#X obj 2819 2179 random 2;
#X obj 2679 1979 t b b b;
#X obj 1139 2659 t f f b;
#X obj 839 2659 t f f b;
#X obj 2959 2339 tabwrite \$0-velocities4;
#X obj 1439 2739 tabread \$0-velocities4;
#X obj 559 2659 t f f b;
#X obj 2959 2299 *;
#X obj 2919 2259 >= 48;
#X obj 599 2779 tabread \$0-velocities2;
#X obj 889 2782 tabread \$0-velocities3;
#N canvas 0 50 450 300 arrays 0;
#N canvas 0 0 450 250 (subpatch) 0;
#X array \$0-pitches1 16 float 2;
#X coords 0 127 16 0 200 140 1;
#X restore 19 19 graph;
#N canvas 0 0 450 250 (subpatch) 0;
#X array \$0-pitches2 16 float 2;
#X coords 0 127 16 0 200 140 1;
#X restore 19 499 graph;
#N canvas 0 0 450 250 (subpatch) 0;
#X array \$0-lengths1 16 float 2;
#X coords 0 8 16 0 200 140 1;
#X restore 19 1299 graph;
#N canvas 0 0 450 250 (subpatch) 0;
#X array \$0-lengths2 16 float 2;
#X coords 0 8 16 0 200 140 1;
#X restore 19 1459 graph;
#N canvas 0 0 450 250 (subpatch) 0;
#X array \$0-velocities1 16 float 2;
#X coords 0 127 16 0 200 140 1;
#X restore 19 659 graph;
#N canvas 0 0 450 250 (subpatch) 0;
#X array \$0-velocities2 16 float 2;
#X coords 0 127 16 0 200 140 1;
#X restore 19 819 graph;
#N canvas 0 0 450 250 (subpatch) 0;
#X array \$0-3rds 16 float 2;
#X coords 0 127 16 0 200 140 1;
#X restore 19 179 graph;
#N canvas 0 0 450 250 (subpatch) 0;
#X array \$0-7ths 16 float 2;
#X coords 0 127 16 0 200 140 1;
#X restore 19 339 graph;
#N canvas 0 0 450 250 (subpatch) 0;
#X array \$0-pitches1-presets 64 float 2;
#X coords 0 127 64 0 800 140 1;
#X restore 239 19 graph;
#N canvas 0 0 450 250 (subpatch) 0;
#X array \$0-3rds-presets 64 float 2;
#X coords 0 127 64 0 800 140 1;
#X restore 239 179 graph;
#N canvas 0 0 450 250 (subpatch) 0;
#X array \$0-7ths-presets 64 float 2;
#X coords 0 127 64 0 800 140 1;
#X restore 239 339 graph;
#N canvas 0 0 450 250 (subpatch) 0;
#X array \$0-pitches2-presets 64 float 2;
#X coords 0 127 64 0 800 140 1;
#X restore 239 499 graph;
#N canvas 0 0 450 250 (subpatch) 0;
#X array \$0-velocities1-presets 64 float 2;
#X coords 0 127 64 0 800 140 1;
#X restore 239 659 graph;
#N canvas 0 0 450 250 (subpatch) 0;
#X array \$0-velocities2-presets 64 float 2;
#X coords 0 127 64 0 800 140 1;
#X restore 239 819 graph;
#N canvas 0 0 450 250 (subpatch) 0;
#X array \$0-lengths1-presets 64 float 2;
#X coords 0 8 64 0 800 140 1;
#X restore 239 1299 graph;
#N canvas 0 0 450 250 (subpatch) 0;
#X array \$0-lengths2-presets 64 float 2;
#X coords 0 8 64 0 800 140 1;
#X restore 239 1459 graph;
#X obj 1559 319 *;
#X obj 1479 359 +;
#X obj 1439 259 t f f;
#X obj 1539 139 t b b b;
#X obj 1659 239 r preset-select;
#X obj 1559 279 int;
#X obj 1539 99 r preset-save;
#X obj 1439 219 olm.iter-params 16;
#X obj 1619 199 int 16;
#X obj 1059 79 tabread \$0-pitches1;
#X obj 1059 119 tabwrite \$0-pitches1-presets;
#X obj 1059 559 tabread \$0-pitches2;
#X obj 1059 599 tabwrite \$0-pitches2-presets;
#X obj 1479 399 s \$0-preset;
#X obj 1379 399 s \$0-value;
#X obj 1219 79 r \$0-preset;
#X obj 1059 39 r \$0-value;
#X obj 1221 559 r \$0-preset;
#X obj 1059 519 r \$0-value;
#X obj 1219 239 r \$0-preset;
#X obj 1059 199 r \$0-value;
#X obj 1059 239 tabread \$0-3rds;
#X obj 1059 279 tabwrite \$0-3rds-presets;
#X obj 1221 399 r \$0-preset;
#X obj 1059 359 r \$0-value;
#X obj 1059 399 tabread \$0-7ths;
#X obj 1059 439 tabwrite \$0-7ths-presets;
#X obj 1221 719 r \$0-preset;
#X obj 1059 679 r \$0-value;
#X obj 1059 719 tabread \$0-velocities1;
#X obj 1059 759 tabwrite \$0-velocities1-presets;
#X obj 1221 879 r \$0-preset;
#X obj 1059 839 r \$0-value;
#X obj 1059 879 tabread \$0-velocities2;
#X obj 1059 919 tabwrite \$0-velocities2-presets;
#X obj 1221 1359 r \$0-preset;
#X obj 1059 1319 r \$0-value;
#X obj 1059 1359 tabread \$0-lengths1;
#X obj 1059 1399 tabwrite \$0-lengths1-presets;
#X obj 1221 1519 r \$0-preset;
#X obj 1059 1479 r \$0-value;
#X obj 1059 1519 tabread \$0-lengths2;
#X obj 1059 1559 tabwrite \$0-lengths2-presets;
#N canvas 0 0 450 250 (subpatch) 0;
#X array \$0-velocities3 16 float 2;
#X coords 0 127 16 0 200 140 1;
#X restore 19 979 graph;
#N canvas 0 0 450 250 (subpatch) 0;
#X array \$0-velocities4 16 float 2;
#X coords 0 127 16 0 200 140 1;
#X restore 19 1139 graph;
#N canvas 0 0 450 250 (subpatch) 0;
#X array \$0-velocities3-presets 64 float 2;
#X coords 0 127 64 0 800 140 1;
#X restore 239 979 graph;
#N canvas 0 0 450 250 (subpatch) 0;
#X array \$0-velocities4-presets 64 float 2;
#X coords 0 127 64 0 800 140 1;
#X restore 239 1139 graph;
#X obj 1221 1039 r \$0-preset;
#X obj 1059 999 r \$0-value;
#X obj 1221 1199 r \$0-preset;
#X obj 1059 1159 r \$0-value;
#X obj 1059 1039 tabread \$0-velocities3;
#X obj 1059 1079 tabwrite \$0-velocities3-presets;
#X obj 1059 1199 tabread \$0-velocities4;
#X obj 1059 1239 tabwrite \$0-velocities4-presets;
#X obj 1979 439 * 16;
#X obj 1979 479 int, f 5;
#X obj 1979 679 +;
#X obj 2159 559 r preset-select;
#X obj 2159 599 * 16;
#X obj 1539 1039 tabwrite \$0-pitches1;
#X obj 1979 559 t f f;
#X obj 1739 1039 tabwrite \$0-pitches2;
#X obj 1939 1039 tabwrite \$0-3rds;
#X obj 2139 1039 tabwrite \$0-7ths;
#X obj 2339 1039 tabwrite \$0-velocities1;
#X obj 2539 1039 tabwrite \$0-velocities2;
#X obj 2739 1039 tabwrite \$0-velocities3;
#X obj 2939 1039 tabwrite \$0-velocities4;
#X obj 3139 1039 tabwrite \$0-lengths1;
#X obj 3319 1039 tabwrite \$0-lengths2;
#X obj 1539 939 tabread \$0-pitches1-presets;
#X obj 1739 939 tabread \$0-pitches2-presets;
#X obj 1939 939 tabread \$0-3rds-presets;
#X obj 2139 939 tabread \$0-7ths-presets;
#X obj 2339 939 tabread \$0-velocities1-presets;
#X obj 2539 939 tabread \$0-velocities2-presets;
#X obj 2739 939 tabread \$0-velocities3-presets;
#X obj 2939 939 tabread \$0-velocities4-presets;
#X obj 3139 939 tabread \$0-lengths1-presets;
#X obj 3319 939 tabread \$0-lengths2-presets;
#X obj 2019 599 s \$0-load-ramp;
#X obj 1603 1003 r \$0-load-ramp;
#X obj 1799 979 r \$0-load-ramp;
#X obj 2004 977 r \$0-load-ramp;
#X obj 2217 996 r \$0-load-ramp;
#X obj 2418 989 r \$0-load-ramp;
#X obj 2608 988 r \$0-load-ramp;
#X obj 2815 985 r \$0-load-ramp;
#X obj 3019 985 r \$0-load-ramp;
#X obj 3197 985 r \$0-load-ramp;
#X obj 3377 984 r \$0-load-ramp;
#X obj 1979 719 s \$0-load-ramp-presets;
#X obj 1539 879 r \$0-load-ramp-presets;
#X obj 1739 879 r \$0-load-ramp-presets;
#X obj 1939 879 r \$0-load-ramp-presets;
#X obj 2147 883 r \$0-load-ramp-presets;
#X obj 2345 888 r \$0-load-ramp-presets;
#X obj 2557 877 r \$0-load-ramp-presets;
#X obj 2754 871 r \$0-load-ramp-presets;
#X obj 2957 883 r \$0-load-ramp-presets;
#X obj 3158 880 r \$0-load-ramp-presets;
#X obj 3357 874 r \$0-load-ramp-presets;
#X obj 1979 379 r load-alpha;
#X connect 16 0 17 1;
#X connect 17 0 29 0;
#X connect 18 0 30 0;
#X connect 18 1 17 0;
#X connect 19 0 23 0;
#X connect 19 1 21 0;
#X connect 19 2 24 0;
#X connect 20 0 21 1;
#X connect 21 0 16 0;
#X connect 22 0 19 0;
#X connect 23 0 18 0;
#X connect 24 0 16 1;
#X connect 25 0 26 0;
#X connect 27 0 28 0;
#X connect 31 0 26 1;
#X connect 32 0 25 0;
#X connect 33 0 28 1;
#X connect 34 0 27 0;
#X connect 35 0 38 1;
#X connect 36 0 37 0;
#X connect 37 0 38 0;
#X connect 39 0 42 1;
#X connect 40 0 41 0;
#X connect 41 0 42 0;
#X connect 43 0 46 1;
#X connect 44 0 45 0;
#X connect 45 0 46 0;
#X connect 47 0 50 1;
#X connect 48 0 49 0;
#X connect 49 0 50 0;
#X connect 51 0 54 1;
#X connect 52 0 53 0;
#X connect 53 0 54 0;
#X connect 55 0 58 1;
#X connect 56 0 57 0;
#X connect 57 0 58 0;
#X connect 63 0 68 1;
#X connect 64 0 67 0;
#X connect 65 0 70 1;
#X connect 66 0 69 0;
#X connect 67 0 68 0;
#X connect 69 0 70 0;
#X connect 71 0 72 0;
#X connect 72 0 77 0;
#X connect 73 0 108 0;
#X connect 74 0 75 0;
#X connect 75 0 73 1;
#X connect 77 0 73 0;
#X connect 77 1 97 0;
#X connect 87 0 76 0;
#X connect 88 0 78 0;
#X connect 89 0 79 0;
#X connect 90 0 80 0;
#X connect 91 0 81 0;
#X connect 92 0 82 0;
#X connect 93 0 83 0;
#X connect 94 0 84 0;
#X connect 95 0 85 0;
#X connect 96 0 86 0;
#X connect 98 0 76 1;
#X connect 99 0 78 1;
#X connect 100 0 79 1;
#X connect 101 0 80 1;
#X connect 102 0 81 1;
#X connect 103 0 82 1;
#X connect 104 0 83 1;
#X connect 105 0 84 1;
#X connect 106 0 85 1;
#X connect 107 0 86 1;
#X connect 109 0 87 0;
#X connect 110 0 88 0;
#X connect 111 0 89 0;
#X connect 112 0 90 0;
#X connect 113 0 91 0;
#X connect 114 0 92 0;
#X connect 115 0 93 0;
#X connect 116 0 94 0;
#X connect 117 0 95 0;
#X connect 118 0 96 0;
#X connect 119 0 71 0;
#X coords 0 0 1 1 1059 1619 2 0 0;
#X restore 2019 59 pd arrays;
#X obj 379 179 loadbang;
#X obj 1280 707 loadbang;
#X floatatom 1556 1689 17 0 0 0 - - - 36;
#X obj 1180 1276 loadbang;
#X msg 1179 1339 0;
#X obj 499 139 r load-complete;
#X obj 499 199 sel 1;
#X connect 1 0 53 0;
#X connect 2 0 1 1;
#X connect 3 0 58 0;
#X connect 4 0 3 1;
#X connect 5 0 54 0;
#X connect 6 0 61 0;
#X connect 7 0 8 0;
#X connect 8 0 6 0;
#X connect 9 0 17 0;
#X connect 9 1 17 1;
#X connect 11 0 6 1;
#X connect 12 0 57 2;
#X connect 13 0 14 0;
#X connect 14 0 12 0;
#X connect 15 0 78 0;
#X connect 15 1 191 0;
#X connect 15 2 83 0;
#X connect 16 0 12 1;
#X connect 17 0 0 0;
#X connect 18 0 46 0;
#X connect 19 0 84 0;
#X connect 20 0 95 0;
#X connect 22 0 97 0;
#X connect 23 0 68 0;
#X connect 24 0 85 0;
#X connect 25 0 69 0;
#X connect 26 0 187 0;
#X connect 28 0 52 0;
#X connect 29 0 75 1;
#X connect 29 0 87 1;
#X connect 29 0 88 1;
#X connect 30 0 76 1;
#X connect 31 0 84 1;
#X connect 32 0 85 1;
#X connect 33 0 86 1;
#X connect 33 0 179 1;
#X connect 33 0 180 1;
#X connect 34 0 190 1;
#X connect 35 0 36 0;
#X connect 36 0 72 0;
#X connect 37 0 36 1;
#X connect 38 0 39 0;
#X connect 38 1 40 0;
#X connect 41 0 184 0;
#X connect 41 1 182 1;
#X connect 42 0 194 0;
#X connect 42 1 193 1;
#X connect 43 0 41 0;
#X connect 44 0 45 0;
#X connect 45 0 42 0;
#X connect 47 0 156 0;
#X connect 49 0 4 0;
#X connect 50 0 93 0;
#X connect 51 0 50 0;
#X connect 52 0 141 0;
#X connect 53 0 3 0;
#X connect 53 1 2 0;
#X connect 54 0 158 0;
#X connect 54 0 153 0;
#X connect 55 0 17 0;
#X connect 55 1 17 1;
#X connect 56 0 17 0;
#X connect 56 1 17 1;
#X connect 57 0 17 0;
#X connect 57 1 17 1;
#X connect 58 0 59 0;
#X connect 58 1 15 0;
#X connect 59 0 60 0;
#X connect 59 1 80 0;
#X connect 60 0 192 0;
#X connect 60 1 189 0;
#X connect 60 2 188 0;
#X connect 62 0 9 2;
#X connect 63 0 62 1;
#X connect 64 0 55 2;
#X connect 65 0 64 1;
#X connect 66 0 56 2;
#X connect 67 0 66 1;
#X connect 68 0 19 0;
#X connect 69 0 24 0;
#X connect 70 0 71 0;
#X connect 71 0 35 0;
#X connect 72 0 73 0;
#X connect 73 0 38 0;
#X connect 73 1 37 0;
#X connect 74 0 172 0;
#X connect 77 0 56 0;
#X connect 78 0 57 0;
#X connect 79 0 56 1;
#X connect 80 0 7 0;
#X connect 81 0 9 0;
#X connect 82 0 55 0;
#X connect 83 0 13 0;
#X connect 89 0 137 0;
#X connect 90 0 76 0;
#X connect 91 0 92 0;
#X connect 92 0 21 0;
#X connect 92 1 27 0;
#X connect 93 0 48 0;
#X connect 93 1 28 1;
#X connect 94 0 165 0;
#X connect 95 0 94 0;
#X connect 96 0 167 0;
#X connect 97 0 96 0;
#X connect 98 0 109 0;
#X connect 98 0 200 0;
#X connect 99 0 98 0;
#X connect 100 0 140 0;
#X connect 100 1 129 0;
#X connect 101 0 99 1;
#X connect 102 0 99 2;
#X connect 102 1 118 1;
#X connect 102 2 101 1;
#X connect 103 0 114 0;
#X connect 104 0 102 0;
#X connect 105 0 108 0;
#X connect 106 0 111 0;
#X connect 107 0 106 0;
#X connect 107 1 103 1;
#X connect 107 2 104 0;
#X connect 108 0 103 0;
#X connect 109 0 118 0;
#X connect 109 1 89 1;
#X connect 109 2 90 1;
#X connect 110 0 107 0;
#X connect 110 1 108 1;
#X connect 111 0 105 1;
#X connect 113 0 117 0;
#X connect 114 0 99 0;
#X connect 115 0 116 0;
#X connect 116 0 134 0;
#X connect 117 0 126 0;
#X connect 117 1 120 0;
#X connect 117 2 119 0;
#X connect 118 0 112 0;
#X connect 119 0 101 0;
#X connect 120 0 111 0;
#X connect 122 0 123 0;
#X connect 123 0 127 0;
#X connect 124 0 125 0;
#X connect 125 0 135 0;
#X connect 126 0 130 0;
#X connect 127 0 169 0;
#X connect 128 0 122 0;
#X connect 129 0 105 0;
#X connect 129 1 128 0;
#X connect 130 0 131 0;
#X connect 130 1 122 1;
#X connect 130 2 124 0;
#X connect 131 0 133 0;
#X connect 132 0 133 0;
#X connect 133 0 128 1;
#X connect 134 0 110 0;
#X connect 135 0 123 1;
#X connect 136 0 54 0;
#X connect 137 0 139 0;
#X connect 137 1 138 0;
#X connect 137 2 75 0;
#X connect 138 0 163 0;
#X connect 139 0 160 0;
#X connect 140 0 28 0;
#X connect 141 0 91 0;
#X connect 142 0 143 0;
#X connect 142 0 151 0;
#X connect 143 0 152 0;
#X connect 144 0 1 0;
#X connect 145 0 144 0;
#X connect 146 0 1 0;
#X connect 147 0 144 1;
#X connect 148 0 147 0;
#X connect 148 1 147 1;
#X connect 149 0 148 0;
#X connect 150 0 149 0;
#X connect 151 0 146 0;
#X connect 151 1 145 0;
#X connect 152 0 142 1;
#X connect 153 0 142 0;
#X connect 154 0 155 0;
#X connect 155 0 157 1;
#X connect 156 0 136 0;
#X connect 156 1 54 1;
#X connect 156 2 147 0;
#X connect 156 3 159 0;
#X connect 156 4 10 0;
#X connect 157 0 153 1;
#X connect 158 1 154 0;
#X connect 159 0 157 0;
#X connect 160 0 88 0;
#X connect 161 0 162 0;
#X connect 163 0 87 0;
#X connect 164 0 163 1;
#X connect 164 0 160 1;
#X connect 165 0 89 0;
#X connect 166 0 165 1;
#X connect 167 0 90 0;
#X connect 168 0 167 1;
#X connect 169 0 115 0;
#X connect 169 1 132 0;
#X connect 169 2 161 0;
#X connect 170 0 171 0;
#X connect 171 0 18 0;
#X connect 172 0 170 0;
#X connect 172 1 51 0;
#X connect 172 2 176 0;
#X connect 173 0 174 0;
#X connect 174 0 150 0;
#X connect 175 0 177 0;
#X connect 176 0 100 0;
#X connect 177 0 176 1;
#X connect 178 0 176 1;
#X connect 181 0 179 0;
#X connect 182 0 86 0;
#X connect 182 0 181 0;
#X connect 182 0 183 0;
#X connect 183 0 180 0;
#X connect 184 0 182 0;
#X connect 185 0 181 1;
#X connect 186 0 183 1;
#X connect 187 0 43 0;
#X connect 187 1 185 0;
#X connect 187 2 186 0;
#X connect 188 0 77 0;
#X connect 188 1 79 0;
#X connect 188 2 66 0;
#X connect 189 0 82 0;
#X connect 189 1 196 0;
#X connect 189 2 64 0;
#X connect 191 0 57 1;
#X connect 192 0 81 0;
#X connect 192 1 195 0;
#X connect 192 2 62 0;
#X connect 193 0 190 0;
#X connect 194 0 193 0;
#X connect 195 0 9 1;
#X connect 196 0 55 1;
#X connect 198 0 178 0;
#X connect 199 0 131 0;
#X connect 201 0 202 0;
#X connect 202 0 111 0;
#X connect 203 0 204 0;
#X connect 204 0 178 0;
#X restore 1139 399 pd seq-internals;
#X connect 10 0 11 0;
#X connect 11 0 12 0;
#X connect 13 0 1 0;
#X coords 0 0 1 1 1380 739 1 0 1;
