#N canvas 827 239 527 327 12;
#X obj -1 19 cnv 15 481 161 empty empty empty 20 12 0 14 #7c7c7c #373737 0;
#X obj 19 59 hradio 20 1 0 4 empty empty preset 0 -8 0 20 #e4e4e4 #4d4d4d #373737 0;
#X obj 19 99 s preset-select;
#X obj 119 39 bng 41 250 50 0 empty empty save 17 7 0 10 #e4e4e4 #4d4d4d #373737;
#X obj 19 -141 r \$0-p;
#X obj 179 39 bng 41 250 50 0 empty empty load 17 7 0 10 #e4e4e4 #4d4d4d #373737;
#X obj 39 -101 loadbang;
#X msg 39 -61 0;
#X obj 242 39 vsl 56 128 0 1 0 0 empty empty instrument 0 -9 0 15 #e4e4e4 #4d4d4d #373737 0 1;
#X obj 519 579 incounter;
#X obj 759 279 s global-chaos;
#X obj 539 839 s instrument-seed;
#X obj 402 39 vsl 57 128 0 1 0 0 empty empty chaos 0 -9 0 15 #e4e4e4 #4d4d4d #373737 0 1;
#X obj 119 179 s \$0-save-out;
#X obj 179 139 s \$0-load-out;
#N canvas 0 50 450 300 saveload 0;
#X obj 59 199 s preset-save;
#X obj 979 299 s preset-load;
#X obj 699 719 f;
#X obj 619 819 sel 0;
#X obj 639 879 f;
#X obj 619 679 t f b f;
#X obj 639 919 t f f;
#X obj 619 759 == 12563;
#X obj 779 719 bng 25 250 50 0 empty empty empty 17 7 0 10 #e4e4e4 #4d4d4d #373737;
#X obj 619 619 random 4;
#X obj 439 999 s \$0-p;
#X obj 499 199 spigot;
#X msg 479 119 1;
#X msg 539 119 0;
#X obj 279 119 t b b b;
#X obj 239 199 f;
#X obj 319 199 + 1;
#X obj 239 279 mod 4;
#X obj 239 319 s \$0-p;
#X obj 619 559 spigot;
#X obj 439 559 spigot;
#X obj 459 519 == 2;
#X obj 439 619 tgl 25 0 empty empty empty 17 7 0 10 #e4e4e4 #4d4d4d #373737 0 1;
#X obj 359 519 == 1;
#X obj 419 319 t f f f f;
#X obj 319 559 spigot;
#X msg 319 619 0;
#X obj 259 79 r \$0-save-out;
#X obj 419 59 r \$0-load-out;
#X obj 539 79 loadbang;
#X obj 599 299 s load-setup;
#X obj 506 251 t b b b;
#X obj 959 439 line;
#X obj 959 479 t f f;
#X obj 919 539 >= 1;
#X obj 979 539 s load-alpha;
#X obj 941 218 t b b;
#X obj 919 619 s load-complete;
#X obj 239 239 t f f;
#X obj 319 239 t f f;
#X obj 559 439 == 3;
#X obj 519 559 spigot;
#X obj 519 359 t b b b b;
#X msg 699 559 3;
#X msg 739 559 4;
#X obj 579 519 sel 1;
#X obj 559 479 t f f;
#X obj 639 479 t f f;
#X obj 739 519 sel 1;
#X obj 639 439 >= 4;
#X msg 959 399 0 \, 1 4000;
#X connect 2 0 7 1;
#X connect 3 0 4 0;
#X connect 3 1 8 0;
#X connect 4 0 6 0;
#X connect 5 0 7 0;
#X connect 5 1 2 0;
#X connect 5 2 4 1;
#X connect 6 0 10 0;
#X connect 6 1 2 1;
#X connect 7 0 3 0;
#X connect 8 0 9 0;
#X connect 9 0 5 0;
#X connect 11 0 31 0;
#X connect 12 0 11 1;
#X connect 13 0 11 1;
#X connect 14 0 0 0;
#X connect 14 1 15 0;
#X connect 14 2 12 0;
#X connect 15 0 38 0;
#X connect 16 0 39 0;
#X connect 17 0 18 0;
#X connect 19 0 9 0;
#X connect 20 0 22 0;
#X connect 21 0 20 1;
#X connect 22 0 10 0;
#X connect 23 0 25 1;
#X connect 24 0 23 0;
#X connect 24 1 21 0;
#X connect 24 2 40 0;
#X connect 24 3 49 0;
#X connect 25 0 26 0;
#X connect 26 0 10 0;
#X connect 27 0 14 0;
#X connect 28 0 11 0;
#X connect 29 0 13 0;
#X connect 31 0 36 0;
#X connect 31 1 42 0;
#X connect 31 2 30 0;
#X connect 32 0 33 0;
#X connect 33 0 34 0;
#X connect 33 1 35 0;
#X connect 34 0 37 0;
#X connect 36 0 50 0;
#X connect 36 1 1 0;
#X connect 38 0 17 0;
#X connect 38 1 16 0;
#X connect 39 0 15 1;
#X connect 39 1 24 0;
#X connect 40 0 46 0;
#X connect 41 0 9 0;
#X connect 42 0 25 0;
#X connect 42 1 20 0;
#X connect 42 2 41 0;
#X connect 42 3 19 0;
#X connect 43 0 9 1;
#X connect 44 0 9 1;
#X connect 45 0 43 0;
#X connect 46 0 41 1;
#X connect 46 1 45 0;
#X connect 47 0 19 1;
#X connect 47 1 48 0;
#X connect 48 0 44 0;
#X connect 49 0 47 0;
#X connect 50 0 32 0;
#X restore 39 239 pd saveload;
#X obj 322 39 vsl 56 128 0 1 0 0 empty empty space 0 -9 0 15 #e4e4e4 #4d4d4d #373737 0 1;
#X obj 659 579 incounter;
#X obj 719 839 s space-seed;
#X obj 739 639 random_start;
#X obj 539 779 +;
#X obj 719 779 +;
#X obj 739 679 t b f;
#X obj 99 99 nbx 11 39 -1e+37 1e+37 0 0 empty empty empty 0 -8 0 10 #e4e4e4 #4d4d4d #373737 0 256;
#X obj 519 179 r knob1 @hv_param;
#X obj 659 179 r knob2 @hv_param;
#X obj 799 179 r knob3 @hv_param;
#X obj 19 -281 r sw1 @hv_param;
#X obj 139 -281 r sw2 @hv_param;
#X obj 759 219 olm.dejitter 128;
#X obj 639 219 olm.dejitter 128;
#X obj 519 219 olm.dejitter 128;
#X obj 519 279 sig~;
#X obj 519 379 snapshot~;
#X obj 359 219 loadbang;
#X obj 639 279 sig~;
#X obj 639 379 snapshot~;
#X obj 519 419 change;
#X obj 639 419 change;
#X obj 359 259 del 1000;
#X msg 359 299 1;
#X obj 439 319 metro 10;
#X obj 519 319 lop~ 2;
#X obj 639 319 lop~ 2;
#X connect 1 0 2 0;
#X connect 3 0 13 0;
#X connect 4 0 1 0;
#X connect 5 0 14 0;
#X connect 6 0 7 0;
#X connect 7 0 1 0;
#X connect 8 0 32 0;
#X connect 9 0 20 0;
#X connect 16 0 35 0;
#X connect 17 0 21 0;
#X connect 19 0 22 0;
#X connect 20 0 11 0;
#X connect 21 0 18 0;
#X connect 22 0 20 0;
#X connect 22 0 21 0;
#X connect 22 1 20 1;
#X connect 22 1 21 1;
#X connect 22 1 23 0;
#X connect 24 0 31 0;
#X connect 25 0 30 0;
#X connect 26 0 29 0;
#X connect 27 0 3 0;
#X connect 28 0 5 0;
#X connect 29 0 10 0;
#X connect 30 0 35 0;
#X connect 31 0 32 0;
#X connect 32 0 42 0;
#X connect 33 0 37 0;
#X connect 34 0 39 0;
#X connect 35 0 43 0;
#X connect 36 0 38 0;
#X connect 37 0 9 0;
#X connect 38 0 17 0;
#X connect 39 0 40 0;
#X connect 40 0 41 0;
#X connect 41 0 33 0;
#X connect 41 0 36 0;
#X connect 42 0 33 0;
#X connect 43 0 36 0;
#X coords 0 0 1 1 481 180 1 0 0;
