#N canvas 827 239 527 327 12;
#X obj 19 499 *~;
#X obj 39 459 pow 3;
#X obj 19 559 olm.panner~;
#X obj 19 819 throw~ master_L;
#X obj 139 819 throw~ master_R;
#X obj 279 765 *~;
#X obj 319 599 pow 3;
#X obj 376 765 *~;
#X obj 279 819 throw~ fx1_L;
#X obj 376 819 throw~ fx1_R;
#X obj 479 765 *~;
#X obj 499 599 pow 3;
#X obj 576 765 *~;
#X obj 479 819 throw~ fx2_L;
#X obj 576 819 throw~ fx2_R;
#X obj 19 19 inlet~ (signal) audio in;
#X obj 359 139 r \$1;
#X obj 359 199 route 0 1 2 3;
#X connect 0 0 2 0;
#X connect 1 0 0 1;
#X connect 2 0 3 0;
#X connect 2 0 5 0;
#X connect 2 0 10 0;
#X connect 2 1 4 0;
#X connect 2 1 7 0;
#X connect 2 1 12 0;
#X connect 5 0 8 0;
#X connect 6 0 5 1;
#X connect 6 0 7 1;
#X connect 7 0 9 0;
#X connect 10 0 13 0;
#X connect 11 0 10 1;
#X connect 11 0 12 1;
#X connect 12 0 14 0;
#X connect 15 0 0 0;
#X connect 16 0 17 0;
#X connect 17 0 1 0;
#X connect 17 1 2 1;
#X connect 17 2 6 0;
#X connect 17 3 11 0;
#X coords 0 0 1 1 179 21 0;
