#N canvas 827 239 527 327 12;
#X obj 522 966 *~ 100;
#X obj 19 219 olm.alpha;
#X obj 99 1059 *~;
#X obj 120 986 *~;
#X obj 120 953 -~ 1;
#X obj 120 1018 +~ 1;
#X obj 99 1099 olm.panner-sig~;
#X obj 59 139 t b f f;
#X obj 519 1039 outlet~ (signal) fm;
#X obj 359 239 inlet~ (signal) fm;
#X obj 499 239 inlet~ (signal) lfo;
#X obj 89 182 * \$3;
#X obj 259 899 olm.triangle-uni~ \$4;
#X obj 99 1219 outlet~ (signal) L;
#X obj 219 1219 outlet~ (signal) R;
#X obj 119 379 * 1;
#X obj 199 306 loadbang;
#X obj 99 468 sig~;
#X obj 99 419 + 0;
#X obj 100 603 phasor~;
#X obj 100 688 -~ 1;
#X obj 100 649 *~ 2;
#X obj 100 517 +~;
#X obj 100 562 +~;
#X obj 199 339 f \$2;
#X text 279 38 arg \$1 = \$0 \; arg \$2 = span-amt \; arg \$3 = harmonic \; arg \$4 = lfo speed;
#X obj 119 339 * 500;
#X obj 59 99 olm.remap_slider 50 880;
#X obj 99 299 t b f;
#X obj 79 379 f;
#X obj 559 919 * 500;
#X obj 82 -148 r swarm;
#X obj 79 -101 route 0 1 2 3 4;
#X connect 0 0 8 0;
#X connect 1 0 29 0;
#X connect 2 0 6 0;
#X connect 3 0 5 0;
#X connect 4 0 3 0;
#X connect 5 0 2 1;
#X connect 6 0 13 0;
#X connect 6 1 14 0;
#X connect 7 0 1 0;
#X connect 7 1 1 1;
#X connect 7 2 11 0;
#X connect 9 0 22 1;
#X connect 10 0 23 1;
#X connect 11 0 1 2;
#X connect 12 0 4 0;
#X connect 12 0 6 1;
#X connect 15 0 18 1;
#X connect 16 0 24 0;
#X connect 17 0 22 0;
#X connect 18 0 17 0;
#X connect 19 0 21 0;
#X connect 20 0 2 0;
#X connect 20 0 0 0;
#X connect 21 0 20 0;
#X connect 22 0 23 0;
#X connect 23 0 19 0;
#X connect 24 0 15 1;
#X connect 26 0 15 0;
#X connect 27 0 7 0;
#X connect 28 0 29 0;
#X connect 28 1 26 0;
#X connect 29 0 18 0;
#X connect 30 0 0 1;
#X connect 31 0 32 0;
#X connect 32 0 27 0;
#X connect 32 1 28 0;
#X connect 32 2 30 0;
#X connect 32 3 1 0;
#X connect 32 4 3 1;
