#N canvas 827 239 527 327 12;
#X obj 276 309 % 12;
#X msg 276 409 0;
#X obj 219 639 +;
#X obj 216 228 int;
#X obj 216 260 t f f;
#X obj 216 179 inlet (float) note;
#X obj 219 685 outlet;
#X obj 439 399 sel 9;
#X obj 519 439 sel 10;
#X obj 276 349 sel 0 2 3 5 7 8 11;
#X msg 599 539 -1;
#X msg 659 539 1;
#X obj 599 499 olm.cointoss;
#X msg 380 501 -1;
#X obj 379 459 olm.cointoss;
#X msg 439 499 2;
#X msg 499 519 1;
#X msg 539 519 -2;
#X obj 495 476 olm.cointoss;
#X connect 0 0 9 0;
#X connect 1 0 2 1;
#X connect 2 0 6 0;
#X connect 3 0 4 0;
#X connect 4 0 2 0;
#X connect 4 1 0 0;
#X connect 5 0 3 0;
#X connect 7 0 14 0;
#X connect 7 1 8 0;
#X connect 8 0 18 0;
#X connect 8 1 12 0;
#X connect 9 0 1 0;
#X connect 9 1 1 0;
#X connect 9 2 1 0;
#X connect 9 3 1 0;
#X connect 9 4 1 0;
#X connect 9 5 1 0;
#X connect 9 6 1 0;
#X connect 9 7 7 0;
#X connect 10 0 2 1;
#X connect 11 0 2 1;
#X connect 12 0 10 0;
#X connect 12 1 11 0;
#X connect 13 0 2 1;
#X connect 14 0 13 0;
#X connect 14 1 15 0;
#X connect 15 0 2 1;
#X connect 16 0 2 1;
#X connect 17 0 2 1;
#X connect 18 0 16 0;
#X connect 18 1 17 0;
