#N canvas 827 239 527 327 12;
#X obj 459 181 inlet~ (signal) source 1;
#X obj 650 181 inlet~ (signal) source 2;
#X obj 815 181 inlet (float) crossfade;
#X obj 650 504 *~;
#X obj 650 641 outlet~;
#X obj 826 386 - 1;
#X obj 826 423 * -1;
#X obj 459 504 *~;
#X obj 815 285 clip 0 1;
#X obj 815 334 t f f;
#X obj 815 237 f \$1;
#X obj 981 181 loadbang;
#X connect 0 0 7 0;
#X connect 1 0 3 0;
#X connect 2 0 10 0;
#X connect 3 0 4 0;
#X connect 5 0 6 0;
#X connect 6 0 7 1;
#X connect 7 0 4 0;
#X connect 8 0 9 0;
#X connect 9 0 3 1;
#X connect 9 1 5 0;
#X connect 10 0 8 0;
#X connect 11 0 10 0;
