#N canvas 827 239 527 327 12;
#X obj 211 257 sel 0;
#X msg 384 649 \$1 \$2;
#X obj 312 560 pack f f;
#X obj 454 476 del;
#X obj 384 336 t f f;
#X obj 454 432 f;
#X obj 454 560 pack f f;
#X obj 454 522 f;
#X obj 691 264 clip 0.1 1;
#X obj 848 423 f;
#X obj 211 467 s \$0-noteoff;
#X obj 637 421 *;
#X obj 227 344 t f b f;
#X obj 727 330 r \$0-noteoff;
#X obj 227 299 / 127;
#X obj 384 717 line~;
#X obj 727 393 t b b;
#X msg 499 439 stop;
#X obj 211 150 inlet (float) velocity;
#X obj 384 142 inlet (float) A;
#X obj 535 137 inlet (float) D;
#X obj 694 142 inlet (float) S;
#X obj 859 142 inlet (float) R;
#X obj 385 808 outlet~;
#X obj 384 264 clip 2 8000;
#X obj 535 264 clip 10 8000;
#X obj 859 264 clip 10 8000;
#X msg 839 479 0.001 \$1;
#X obj 619 479 t b b;
#X msg 439 719 stop;
#X connect 0 0 10 0;
#X connect 0 1 14 0;
#X connect 1 0 15 0;
#X connect 2 0 1 0;
#X connect 3 0 7 0;
#X connect 4 0 2 1;
#X connect 4 1 5 1;
#X connect 5 0 3 0;
#X connect 6 0 1 0;
#X connect 7 0 6 0;
#X connect 8 0 11 1;
#X connect 9 0 27 0;
#X connect 11 0 7 1;
#X connect 12 0 2 0;
#X connect 12 1 5 0;
#X connect 12 2 11 0;
#X connect 13 0 16 0;
#X connect 14 0 12 0;
#X connect 15 0 23 0;
#X connect 16 0 9 0;
#X connect 16 1 28 0;
#X connect 17 0 3 0;
#X connect 18 0 0 0;
#X connect 19 0 24 0;
#X connect 20 0 25 0;
#X connect 21 0 8 0;
#X connect 22 0 26 0;
#X connect 24 0 4 0;
#X connect 25 0 6 1;
#X connect 26 0 9 1;
#X connect 27 0 15 0;
#X connect 28 0 17 0;
#X connect 28 1 29 0;
#X connect 29 0 15 0;
