#N canvas 827 239 527 327 12;
#X obj 219 319 cnv 15 321 181 empty empty empty 20 12 0 14 #7c7c7c #373737 0;
#X obj 239 399 bng 41 250 50 0 empty empty SAVE -5 -11 0 20 #e4e4e4 #4d4d4d #373737;
#X obj 239 339 hradio 22 1 0 8 empty empty preset 0 -8 0 20 #e4e4e4 #4d4d4d #373737 0;
#X obj 240 498 s \$1-save;
#X obj 122 498 s \$1-preset;
#X obj 299 199 s \$1-bank-size;
#X obj 299 156 int \$2;
#X obj 299 399 bng 41 250 50 0 empty empty LOAD -5 -11 0 20 #e4e4e4 #4d4d4d #373737;
#X obj 359 639 s \$1-load;
#X obj 362 399 hsl 56 42 0 1 0 0 empty empty speed -2 -8 0 20 #e4e4e4 #4d4d4d #373737 0 1;
#X obj 439 539 * 10000;
#X obj 99 318 r preset-save;
#X obj 240 246 r preset-select;
#X obj 352 246 r preset-load;
#X obj 500 246 r preset-tween;
#X msg 239 159 0.2;
#X obj 199 -1 loadbang;
#X msg 199 159 0;
#X obj 199 39 del 10;
#X obj 319 861 line;
#X obj 319 910 olm.easeinout-sine;
#X obj 319 779 f;
#X msg 319 819 0 \, 1 \$1;
#X obj 419 719 t f f;
#X msg 399 819 1 \$1;
#X obj 319 959 s \$1-load-alpha;
#X obj 119 819 incounter;
#X obj 119 859 min 1, f 6;
#X obj 119 899 olm.easeinout-sine;
#X obj 319 579 t b b b;
#X obj 119 939 s \$1-random-alpha;
#X obj 199 79 t b b b;
#X obj 579 359 r global-chaos;
#X obj 659 239 r instrument-seed;
#X obj 442 399 hsl 83 41 0 1 0 0 empty empty chaos -2 -8 0 20 #e4e4e4 #4d4d4d #373737 0 1;
#X obj 119 619 t f f;
#X obj 439 479 s \$1-chaos;
#X obj 139 659 s \$1-random-seed;
#X obj 599 319 f;
#X obj 439 339 nbx 8 21 -1e+37 1e+37 0 0 empty empty seed 0 -8 0 10 #e4e4e4 #4d4d4d #373737 0 256;
#X connect 1 0 3 0;
#X connect 2 0 4 0;
#X connect 6 0 5 0;
#X connect 7 0 29 0;
#X connect 9 0 10 0;
#X connect 10 0 23 0;
#X connect 11 0 1 0;
#X connect 12 0 2 0;
#X connect 13 0 7 0;
#X connect 14 0 9 0;
#X connect 15 0 9 0;
#X connect 16 0 18 0;
#X connect 17 0 2 0;
#X connect 18 0 31 0;
#X connect 19 0 20 0;
#X connect 20 0 25 0;
#X connect 21 0 22 0;
#X connect 22 0 19 0;
#X connect 23 0 21 1;
#X connect 23 1 24 0;
#X connect 24 0 19 0;
#X connect 26 0 27 0;
#X connect 27 0 28 0;
#X connect 28 0 30 0;
#X connect 29 0 26 1;
#X connect 29 1 21 0;
#X connect 29 2 8 0;
#X connect 31 0 17 0;
#X connect 31 1 15 0;
#X connect 31 2 6 0;
#X connect 32 0 34 0;
#X connect 33 0 38 0;
#X connect 34 0 36 0;
#X connect 35 0 26 0;
#X connect 35 1 37 0;
#X connect 38 0 35 0;
#X connect 38 0 39 0;
#X coords 0 0 1 1 320 179 1 220 300;
