#N canvas 827 239 527 327 12;
#X obj 719 639 t b f;
#N canvas 0 50 450 300 write-controls 0;
#X obj 159 459 pack f f;
#X obj 379 219 inlet (float) value;
#X obj 159 219 inlet (int) control number;
#X obj 159 279 t f f;
#X obj 219 379 t f f;
#X obj 339 499 f;
#X obj 339 419 t b f;
#X obj 339 559 tabwrite \$1-controls;
#X obj 159 619 outlet;
#X connect 0 0 8 0;
#X connect 1 0 4 0;
#X connect 2 0 3 0;
#X connect 3 0 0 0;
#X connect 3 1 6 0;
#X connect 4 0 0 1;
#X connect 4 1 5 1;
#X connect 5 0 7 0;
#X connect 6 0 5 0;
#X connect 6 1 7 1;
#X restore 419 1499 pd write-controls;
#N canvas 0 50 450 300 write-random 0;
#X obj 239 439 olm.pingpong;
#X obj 199 559 olm.slider-randomizer;
#X obj 539 259 t f f f f f;
#X obj 39 139 inlet (int) index;
#X obj 299 139 inlet (float) random-seed;
#X obj 159 139 inlet (float) chaos;
#X obj 99 639 f;
#X obj 103 216 t b b b f;
#X obj 499 739 tabwrite \$1-random;
#X obj 479 519 tabread \$1-chaos-maxes;
#X obj 379 479 tabread \$1-chaos-mins;
#X obj 339 399 tabread \$1-phases;
#X obj 299 359 tabread \$1-offsets;
#X connect 0 0 1 1;
#X connect 1 0 6 1;
#X connect 2 0 12 0;
#X connect 2 1 11 0;
#X connect 2 2 10 0;
#X connect 2 3 9 0;
#X connect 2 4 8 1;
#X connect 3 0 7 0;
#X connect 4 0 0 0;
#X connect 5 0 1 0;
#X connect 6 0 8 0;
#X connect 7 0 6 0;
#X connect 7 1 1 0;
#X connect 7 2 0 0;
#X connect 7 3 2 0;
#X connect 9 0 1 3;
#X connect 10 0 1 2;
#X connect 11 0 0 2;
#X connect 12 0 0 1;
#X restore 759 1099 pd write-random;
#X obj 939 39 r preset-load;
#X obj 1059 319 t f f;
#X obj 559 599 r global-chaos;
#X obj 559 639 t b f;
#X obj 1019 719 olm.easeinout-sine;
#X obj 719 699 spigot;
#X obj 559 699 spigot;
#X obj 739 439 tgl 25 0 empty empty empty 17 7 0 10 #e4e4e4 #4d4d4d #373737 0 1;
#X obj 799 699 s \$0-seed;
#X obj 839 1059 r \$0-seed;
#X obj 699 999 t f f f;
#X obj 619 699 s \$0-chaos;
#X obj 799 1019 r \$0-chaos;
#X msg 739 399 0;
#X obj 1139 759 *;
#X obj 1139 639 r preset-select;
#X obj 1139 699 int;
#X obj 1019 759 t b f;
#X obj 599 1399 olm.alpha;
#X obj 779 1259 spigot;
#X obj 659 639 t f f;
#X obj 739 479 t f f;
#X obj 799 539 s \$0-loading;
#N canvas 0 50 450 300 get-loading-value 0;
#X obj 814 465 +;
#X obj 634 605 olm.alpha;
#X obj 634 525 f;
#X obj 699 419 t b f f;
#X obj 479 279 inlet (int) index;
#X obj 639 279 inlet (float) alpha;
#X obj 830 278 inlet (int) preset;
#X obj 639 659 outlet;
#X obj 674 525 tabread \$1-loading;
#X obj 814 525 tabread \$1-presets;
#X connect 0 0 9 0;
#X connect 1 0 7 0;
#X connect 2 0 1 0;
#X connect 3 0 2 0;
#X connect 3 1 8 0;
#X connect 3 2 0 0;
#X connect 4 0 3 0;
#X connect 5 0 2 1;
#X connect 6 0 0 1;
#X connect 8 0 1 1;
#X connect 9 0 1 2;
#X restore 819 1299 pd get-loading-value;
#X obj 259 899 incounter;
#X obj 399 1039 min 1, f 6;
#X obj 399 1079 olm.easeinout-sine;
#X obj 1079 219 s \$0-reset-random-alpha-counter;
#X obj 339 759 r \$0-reset-random-alpha-counter;
#X obj 679 879 t f f;
#X obj 419 1239 t f b;
#X obj 259 799 r \$0-seed;
#X obj 619 339 loadbang;
#X msg 619 399 1;
#X obj 499 1299 f;
#X obj 939 259 t b b;
#X obj 519 1179 < 1;
#X obj 459 1119 t f f;
#X obj 399 799 r \$0-chaos;
#X obj 399 899 incounter;
#X obj 339 799 t b b;
#X obj 399 999 +;
#X obj 399 939 t b f;
#X obj 1059 359 tabread \$1-controls;
#X obj 1059 399 tabwrite \$1-loading;
#X obj 1059 279 olm.iter-params \$2;
#X obj 679 839 olm.iter-params \$2;
#X obj 1259 639 int \$2;
#X text 1136 61 \$1 = synth name (prefixes arrays) \; \$2 = number of controls \;;
#X obj 619 1299 tabread \$1-random;
#X obj 419 1579 outlet;
#N canvas 0 50 450 300 preset-save 0;
#X obj 339 399 *;
#X obj 259 479 +;
#X obj 219 379 t f f;
#X obj 328 148 t b b b;
#X obj 439 259 r preset-select;
#X obj 339 299 int;
#X obj 319 79 r preset-save;
#X obj 99 459 tabread \$1-controls;
#X obj 99 519 tabwrite \$1-presets;
#X obj 219 239 olm.iter-params \$2;
#X obj 399 219 int \$2;
#X connect 0 0 1 1;
#X connect 1 0 8 1;
#X connect 2 0 7 0;
#X connect 2 1 1 0;
#X connect 3 0 9 0;
#X connect 3 1 5 0;
#X connect 3 2 10 0;
#X connect 4 0 5 1;
#X connect 5 0 0 0;
#X connect 6 0 3 0;
#X connect 7 0 8 0;
#X connect 9 0 2 0;
#X connect 10 0 0 1;
#X restore 339 199 pd preset-save;
#X obj 519 99 inlet (float) seed;
#X obj 939 119 t b b b;
#X obj 1019 639 r load-alpha;
#X obj 1059 499 t b b;
#X obj 799 359 r load-complete;
#X connect 0 0 8 0;
#X connect 0 1 11 0;
#X connect 1 0 53 0;
#X connect 3 0 56 0;
#X connect 4 0 46 0;
#X connect 4 1 47 1;
#X connect 5 0 6 0;
#X connect 6 0 9 0;
#X connect 6 1 14 0;
#X connect 7 0 20 0;
#X connect 8 0 49 0;
#X connect 9 0 49 0;
#X connect 10 0 24 0;
#X connect 12 0 2 2;
#X connect 13 0 52 0;
#X connect 13 1 22 0;
#X connect 13 2 2 0;
#X connect 15 0 2 1;
#X connect 16 0 10 0;
#X connect 17 0 26 2;
#X connect 18 0 19 1;
#X connect 19 0 17 0;
#X connect 20 0 49 0;
#X connect 20 1 26 1;
#X connect 21 0 1 1;
#X connect 22 0 26 0;
#X connect 23 0 9 1;
#X connect 23 1 8 1;
#X connect 24 0 23 0;
#X connect 24 1 25 0;
#X connect 26 0 21 1;
#X connect 27 0 44 0;
#X connect 28 0 29 0;
#X connect 29 0 40 0;
#X connect 31 0 43 0;
#X connect 32 0 33 0;
#X connect 32 1 13 0;
#X connect 33 0 1 0;
#X connect 33 1 37 0;
#X connect 34 0 27 0;
#X connect 35 0 36 0;
#X connect 36 0 10 0;
#X connect 37 0 21 0;
#X connect 38 0 58 0;
#X connect 38 1 16 0;
#X connect 39 0 22 1;
#X connect 40 0 37 1;
#X connect 40 1 39 0;
#X connect 41 0 42 0;
#X connect 42 0 45 0;
#X connect 43 0 27 1;
#X connect 43 1 42 1;
#X connect 44 0 28 0;
#X connect 45 0 44 0;
#X connect 45 1 44 1;
#X connect 46 0 47 0;
#X connect 48 0 4 0;
#X connect 49 0 32 0;
#X connect 50 0 17 1;
#X connect 52 0 21 2;
#X connect 55 0 0 0;
#X connect 56 0 38 0;
#X connect 56 1 48 0;
#X connect 56 2 30 0;
#X connect 57 0 7 0;
#X connect 58 0 19 0;
#X connect 58 1 50 0;
#X connect 59 0 10 0;
