#N canvas 827 239 527 327 12;
#X obj 308 303 -~ 0.5;
#X obj 308 335 abs~;
#X obj 308 375 *~ 2;
#X obj 308 264 phasor~ 0.25;
#X obj 308 159 inlet~ (signal) freq;
#X obj 308 216 *~ 2;
#X obj 308 432 outlet~;
#X obj 458 179 f \$1;
#X obj 458 216 sig~;
#X obj 458 136 loadbang;
#X connect 0 0 1 0;
#X connect 1 0 2 0;
#X connect 2 0 6 0;
#X connect 3 0 0 0;
#X connect 4 0 5 0;
#X connect 5 0 3 0;
#X connect 7 0 8 0;
#X connect 8 0 3 0;
#X connect 9 0 7 0;
