#N canvas 827 239 527 327 12;
#X obj 499 259 cnv 15 141 181 empty empty empty 20 12 0 14 #b7b7b7 #373737 0;
#X obj 359 519 *~;
#X obj 479 519 *~;
#X obj 519 459 pow 3;
#X obj 522 279 vsl 36 141 0 1 0 0 empty empty return 0 -9 0 15 #e4e4e4 #4d4d4d #373737 0 1;
#X obj 359 599 throw~ master_L;
#X obj 479 599 throw~ master_R;
#X obj 599 130 loadbang;
#X obj 279 199 inlet~ (signal) audio L;
#X obj 439 199 inlet~ (signal) audio R;
#X msg 599 159 0.95;
#X connect 1 0 5 0;
#X connect 2 0 6 0;
#X connect 3 0 1 1;
#X connect 3 0 2 1;
#X connect 4 0 3 0;
#X connect 7 0 10 0;
#X connect 8 0 1 0;
#X connect 9 0 2 0;
#X connect 10 0 4 0;
#X coords 0 0 1 1 130 180 1 500 260;
