#N canvas 827 239 527 327 12;
#X obj 271 407 noise~;
#X obj 342 277 hv.osc~ square;
#X obj 407 151 / 2;
#X obj 227 229 /~ 2;
#X obj 227 277 hv.osc~ sine;
#X obj 209 559 outlet~;
#X obj 227 67 inlet~ (signal) freq;
#X obj 407 211 clip 0.1 0.5;
#X obj 583 67 inlet (float) tone;
#X obj 583 277 clip 0 1;
#X obj 407 67 inlet (float) PWM;
#X obj 719 67 inlet (float) snare;
#X obj 719 277 clip 0 1;
#X obj 207 473 olm.crossfade~ 0.3;
#X obj 227 364 olm.crossfade~ 0.25;
#X connect 0 0 13 1;
#X connect 1 0 14 1;
#X connect 2 0 7 0;
#X connect 3 0 4 0;
#X connect 4 0 14 0;
#X connect 6 0 3 0;
#X connect 6 0 1 0;
#X connect 7 0 1 1;
#X connect 8 0 9 0;
#X connect 9 0 14 2;
#X connect 10 0 2 0;
#X connect 11 0 12 0;
#X connect 12 0 13 2;
#X connect 13 0 5 0;
#X connect 14 0 13 0;
