#N canvas 827 239 527 327 12;
#N canvas 0 0 450 250 (subpatch) 0;
#X array percs-offsets 24 float 3;
#A 0 0 0 0 0 0 0 0 0 0 0 0 0 0 0 0 0 0 0 0 0 0 0 0 0;
#X coords 0 1 24 0 200 140 1;
#X restore 99 79 graph;
#N canvas 0 0 450 250 (subpatch) 0;
#X array percs-phases 24 float 3;
#A 0 0 0 0 0 0 0 0 0 0 0 0 0 0 0 0 0 0 0 0 0 0 0 0 0;
#X coords 0 1 24 0 200 140 1;
#X restore 99 239 graph;
#N canvas 0 0 450 250 (subpatch) 0;
#X array percs-chaos-mins 24 float 3;
#A 0 0 0 0 0 0 0 0 0 0 0 0 0 0 0 0 0 0 0 0 0 0 0 0 0;
#X coords 0 1 24 0 200 140 1;
#X restore 99 399 graph;
#N canvas 0 0 450 250 (subpatch) 0;
#X array percs-chaos-maxes 24 float 3;
#A 0 0 0 0 0 0 0 0 0 0 0 0 0 0 0 0 0 0 0 0 0 0 0 0 0;
#X coords 0 1 24 0 200 140 1;
#X restore 99 559 graph;
#X obj 459 299 tabwrite percs-offsets;
#X floatatom 959 179 19 0 0 0 - - - 36;
#X obj 959 259 int;
#X obj 459 179 inlet (float) offset;
#X obj 619 179 inlet (float) phase;
#X obj 619 359 tabwrite percs-phases;
#X obj 765 432 tabwrite percs-chaos-mins;
#X obj 939 499 tabwrite percs-chaos-maxes;
#X connect 5 0 6 0;
#X connect 6 0 4 1;
#X connect 6 0 9 1;
#X connect 6 0 10 1;
#X connect 6 0 11 1;
#X connect 7 0 4 0;
#X connect 8 0 9 0;
