#N canvas 827 239 527 327 12;
#X obj 682 593 *~;
#X obj 810 593 *~;
#X obj 41 17 inlet~;
#X obj 119 19 inlet~;
#X obj 439 579 outlet~;
#X obj 579 579 outlet~;
#X obj 1091 170 samplerate~;
#X obj 499 239 pow 3;
#X obj 1031 81 loadbang;
#X obj 628 399 pack f f;
#X obj 1031 221 /;
#X msg 1031 170 1024;
#X obj 1031 259 * 1000;
#X obj 999 299 * 4;
#X text 1027 43 Samples to milliseconds, f 28;
#X text 1017 325 This makes the delay sound wooshier when you sweep the knob, f 23;
#X obj 821 706 hv.tanh~;
#X obj 672 706 hv.tanh~;
#X obj 659 244 pow 3;
#X obj 819 399 pack f f;
#X obj 1031 120 t b b;
#X obj 499 139 f \$1;
#X obj 659 139 f \$2;
#X obj 559 99 loadbang;
#X obj 879 219 s \$0-feedback;
#X obj 910 544 r \$0-feedback;
#X obj 795 39 inlet (float) feedback 0-1.1;
#X obj 879 139 f \$3;
#X obj 904 89 loadbang;
#X obj 426 39 inlet (float) delay time L 0-1;
#X obj 611 39 inlet (float) delay time R 0-1;
#X obj 279 139 r~ \$0-feedback_L;
#X obj 59 139 r~ \$0-feedback_R;
#X obj 672 740 s~ \$0-feedback_L;
#X obj 821 740 s~ \$0-feedback_R;
#X obj 628 477 delread4~ \$0-tapedelay_L;
#X obj 819 477 delread4~ \$0-tapedelay_R;
#X obj 628 435 line~;
#X obj 819 435 line~;
#X obj 39 219 delwrite~ \$0-tapedelay_L 1024;
#X obj 259 219 delwrite~ \$0-tapedelay_R 1024;
#X obj 499 279 * 1024;
#X obj 659 279 * 1024;
#X obj 879 179 clip 0 1.1;
#X obj 499 199 clip 0 1;
#X obj 659 199 clip 0 1;
#X connect 0 0 17 0;
#X connect 1 0 16 0;
#X connect 2 0 39 0;
#X connect 3 0 40 0;
#X connect 6 0 10 1;
#X connect 7 0 41 0;
#X connect 8 0 20 0;
#X connect 9 0 37 0;
#X connect 10 0 12 0;
#X connect 11 0 10 0;
#X connect 12 0 13 0;
#X connect 13 0 9 1;
#X connect 13 0 19 1;
#X connect 16 0 34 0;
#X connect 17 0 33 0;
#X connect 18 0 42 0;
#X connect 19 0 38 0;
#X connect 20 0 11 0;
#X connect 20 1 6 0;
#X connect 21 0 44 0;
#X connect 22 0 45 0;
#X connect 23 0 21 0;
#X connect 23 0 22 0;
#X connect 25 0 0 1;
#X connect 25 0 1 1;
#X connect 26 0 27 0;
#X connect 27 0 43 0;
#X connect 28 0 27 0;
#X connect 29 0 21 0;
#X connect 30 0 22 0;
#X connect 31 0 40 0;
#X connect 32 0 39 0;
#X connect 35 0 0 0;
#X connect 35 0 4 0;
#X connect 36 0 1 0;
#X connect 36 0 5 0;
#X connect 37 0 35 0;
#X connect 38 0 36 0;
#X connect 41 0 9 0;
#X connect 42 0 19 0;
#X connect 43 0 24 0;
#X connect 44 0 7 0;
#X connect 45 0 18 0;
