#N canvas 827 239 527 327 12;
#X obj 239 299 tabread \$1;
#X obj 239 259 f;
#X obj 250 585 outlet;
#X obj 272 399 f 0;
#X obj 283 340 t b f;
#X obj 354 185 int \$2;
#X obj 354 153 loadbang;
#X text 403 188 arg2 = parameter #;
#X obj 250 82 r \$1-preset;
#X obj 302 118 r \$1-bank-size;
#X obj 250 220 olm.preset-selector;
#X obj 250 466 olm.alpha;
#X obj 583 39 inlet (float) value;
#X obj 59 33 inlet (bang) load;
#X obj 131 393 r \$1-load-alpha;
#X floatatom 279 499 18 0 0 0 - - - 36;
#X floatatom 459 499 18 0 0 0 - - - 36;
#X floatatom 118 509 18 0 0 0 - - - 36;
#X floatatom 157 641 18 0 0 0 - - - 36;
#X connect 0 0 4 0;
#X connect 1 0 0 0;
#X connect 3 0 11 1;
#X connect 3 0 15 0;
#X connect 4 0 3 0;
#X connect 4 1 11 2;
#X connect 4 1 16 0;
#X connect 5 0 10 2;
#X connect 6 0 5 0;
#X connect 8 0 10 0;
#X connect 9 0 10 1;
#X connect 10 0 1 1;
#X connect 11 0 2 0;
#X connect 11 0 18 0;
#X connect 12 0 3 1;
#X connect 13 0 1 0;
#X connect 14 0 11 0;
#X connect 14 0 17 0;
