#N canvas 827 239 527 327 12;
#X obj 449 224 inlet (float) value;
#X msg 434 319 1;
#X obj 450 370 -;
#X obj 449 269 t b f;
#X obj 450 409 pow 3;
#X obj 451 529 -;
#X obj 450 438 t b f;
#X msg 434 485 1;
#X obj 451 575 outlet;
#X connect 0 0 3 0;
#X connect 1 0 2 0;
#X connect 2 0 4 0;
#X connect 3 0 1 0;
#X connect 3 1 2 1;
#X connect 4 0 6 0;
#X connect 5 0 8 0;
#X connect 6 0 7 0;
#X connect 6 1 5 1;
#X connect 7 0 5 0;
