#N canvas 827 239 527 327 12;
#X obj 599 449 % 12;
#X msg 579 719 0;
#X obj 539 839 +;
#X msg 899 759 -1;
#X obj 539 368 int;
#X obj 539 400 t f f;
#X obj 539 319 inlet (float) note;
#X obj 539 885 outlet;
#X msg 959 759 1;
#X msg 679 719 -1;
#X msg 739 719 2;
#X obj 679 679 olm.cointoss;
#X obj 779 619 sel 6;
#X obj 779 679 olm.cointoss;
#X msg 779 719 -2;
#X msg 839 719 1;
#X obj 599 499 sel 0 2 4 7 9;
#X obj 679 579 sel 5 10;
#X obj 899 679 bng 25 250 50 0 empty empty empty 17 7 0 10 #e4e4e4 #4d4d4d #373737;
#X obj 899 719 olm.cointoss;
#X connect 0 0 16 0;
#X connect 1 0 2 1;
#X connect 2 0 7 0;
#X connect 3 0 2 1;
#X connect 4 0 5 0;
#X connect 5 0 2 0;
#X connect 5 1 0 0;
#X connect 6 0 4 0;
#X connect 8 0 2 1;
#X connect 9 0 2 1;
#X connect 10 0 2 1;
#X connect 11 0 9 0;
#X connect 11 1 10 0;
#X connect 12 0 13 0;
#X connect 12 1 18 0;
#X connect 13 0 14 0;
#X connect 13 1 15 0;
#X connect 14 0 2 1;
#X connect 15 0 2 1;
#X connect 16 0 1 0;
#X connect 16 1 1 0;
#X connect 16 2 1 0;
#X connect 16 3 1 0;
#X connect 16 4 1 0;
#X connect 16 5 17 0;
#X connect 17 0 11 0;
#X connect 17 1 11 0;
#X connect 17 2 12 0;
#X connect 18 0 19 0;
#X connect 19 0 3 0;
#X connect 19 1 8 0;
