#N canvas 827 239 527 327 12;
#X obj 424 462 t f f;
#X obj 410 194 inlet (float) increment;
#X obj 222 226 inlet (bang or float);
#X msg 562 299 0;
#X obj 424 511 outlet;
#X obj 579 139 inlet (bang) reset;
#X obj 597 299 f \$1;
#X obj 479 419 +;
#X obj 639 179 loadbang;
#X obj 579 245 t b b;
#X obj 389 273 t b f;
#X obj 424 419 f;
#X connect 0 0 4 0;
#X connect 0 1 7 0;
#X connect 1 0 10 0;
#X connect 2 0 11 0;
#X connect 3 0 11 0;
#X connect 5 0 9 0;
#X connect 6 0 7 1;
#X connect 7 0 11 1;
#X connect 8 0 9 0;
#X connect 9 0 3 0;
#X connect 9 1 6 0;
#X connect 10 0 7 0;
#X connect 10 1 7 1;
#X connect 11 0 0 0;
