#N canvas 827 239 527 327 12;
#X obj 159 119 i;
#X obj 159 79 inlet (int) note;
#X obj 159 519 outlet;
#X obj 199 379 t f f;
#X obj 259 379 t f f;
#X obj 319 379 t f f;
#X obj 199 279 pack f f;
#X obj 199 319 route 0 1 2;
#X obj 199 239 f;
#X obj 259 79 inlet (int) inversion;
#X obj 159 159 t f b f;
#X obj 319 439 + \$3;
#X obj 379 439 + \$4;
#X obj 199 439 + \$1;
#X obj 259 439 + \$2;
#X connect 0 0 10 0;
#X connect 1 0 0 0;
#X connect 3 0 13 0;
#X connect 3 1 14 0;
#X connect 4 0 14 0;
#X connect 4 1 11 0;
#X connect 5 0 11 0;
#X connect 5 1 12 0;
#X connect 6 0 7 0;
#X connect 7 0 3 0;
#X connect 7 1 4 0;
#X connect 7 2 5 0;
#X connect 8 0 6 0;
#X connect 9 0 8 1;
#X connect 10 0 2 0;
#X connect 10 1 8 0;
#X connect 10 2 6 1;
#X connect 11 0 2 0;
#X connect 12 0 2 0;
#X connect 13 0 2 0;
#X connect 14 0 2 0;
