#N canvas 827 239 527 327 12;
#X obj 279 139 t f f;
#X obj 131 591 olm.alpha;
#X obj 148 512 t b f;
#X obj 209 512 t b f;
#X obj 159 259 r \$1-load;
#X obj 334 248 r \$1-save;
#X obj 279 39 inlet (float) incoming value;
#X obj 131 670 outlet (float) outgoing value;
#X obj 159 299 olm.preset-load \$1 \$2;
#X obj 334 297 olm.preset_store \$1 \$2;
#X obj 12 547 r \$1-random-alpha;
#X text 19 18 arg \$1 = table name \; arg \$2 = control number \;, f 28;
#X obj 39 59 inlet (float) random seed;
#X connect 0 0 8 1;
#X connect 0 1 9 1;
#X connect 1 0 7 0;
#X connect 2 0 1 0;
#X connect 2 1 1 1;
#X connect 3 0 1 0;
#X connect 3 1 1 2;
#X connect 4 0 8 0;
#X connect 5 0 9 0;
#X connect 6 0 0 0;
#X connect 8 0 2 0;
#X connect 10 0 1 0;
#X connect 12 0 3 0;
