#N canvas 827 239 527 327 12;
#X obj 159 583 olm.alpha;
#X obj 159 173 inlet (float) chaos;
#X obj 296 173 inlet (float) random seed;
#X obj 159 678 outlet;
#X obj 268 541 olm.remap_slider \$1 \$2;
#X obj 479 179 inlet (float) min;
#X obj 619 179 inlet (float) max;
#X obj 199 479 t f f;
#X connect 0 0 3 0;
#X connect 1 0 0 0;
#X connect 2 0 7 0;
#X connect 4 0 0 2;
#X connect 5 0 4 1;
#X connect 6 0 4 2;
#X connect 7 0 0 1;
#X connect 7 1 4 0;
