#N canvas 827 239 527 327 12;
#X obj 89 152 inlet~;
#X obj 89 1043 outlet~;
#X obj 176 932 *~;
#X obj 89 932 *~;
#X obj 271 617 clip~ -1 1;
#X obj 271 491 *~ 256;
#X obj 271 528 +~ 256;
#X obj 269 452 hv.filter.gain~ peak;
#X obj 282 179 vsl 17 128 0 1 0 0 empty empty empty 0 -9 0 10 #e4e4e4 #4d4d4d #373737 0 1;
#X obj 277 361 mtof;
#X obj 347 179 vsl 17 128 0 1 0 0 empty empty empty 0 -9 0 10 #e4e4e4 #4d4d4d #373737 0 1;
#X obj 342 361 olm.remap_slider 0.1 100;
#X obj 414 185 vsl 17 128 0 1 0 0 empty empty empty 0 -9 0 10 #e4e4e4 #4d4d4d #373737 0 1;
#X obj 409 392 olm.remap_slider -24 24;
#X obj 342 327 pow 3.5;
#X obj 277 86 loadbang;
#X obj 271 667 lop~ 8000;
#X obj 271 707 lop~ 8000;
#X obj 361 793 hv.compressor~ 60 5;
#X obj 277 320 * 127;
#X msg 277 148 0.6;
#X msg 409 152 0.75;
#X msg 342 148 0.08;
#X obj 129 835 - 1;
#X obj 129 872 * -1;
#X obj 176 674 clip 0 1;
#X obj 176 723 t f f;
#X obj 167 152 inlet;
#X obj 271 573 tabread~ \$1;
#X obj 271 835 /~ 5;
#X connect 0 0 3 0;
#X connect 0 0 7 0;
#X connect 2 0 1 0;
#X connect 3 0 1 0;
#X connect 4 0 16 0;
#X connect 5 0 6 0;
#X connect 6 0 28 0;
#X connect 7 0 5 0;
#X connect 8 0 19 0;
#X connect 9 0 7 1;
#X connect 10 0 14 0;
#X connect 11 0 7 2;
#X connect 12 0 13 0;
#X connect 13 0 7 3;
#X connect 14 0 11 0;
#X connect 15 0 20 0;
#X connect 15 0 22 0;
#X connect 15 0 21 0;
#X connect 16 0 17 0;
#X connect 17 0 18 0;
#X connect 17 0 29 0;
#X connect 19 0 9 0;
#X connect 20 0 8 0;
#X connect 21 0 12 0;
#X connect 22 0 10 0;
#X connect 23 0 24 0;
#X connect 24 0 3 1;
#X connect 25 0 26 0;
#X connect 26 0 23 0;
#X connect 26 1 2 1;
#X connect 27 0 25 0;
#X connect 28 0 4 0;
#X connect 29 0 2 0;
