#N canvas 827 239 527 327 12;
#X obj 179 99 inlet;
#X obj 219 973 outlet;
#X msg 179 302 0;
#X obj 179 179 sel 0 1;
#X msg 221 302 1;
#X obj 439 259 < 0.5;
#X obj 326 399 spigot;
#X msg 326 600 2;
#X obj 351 666 pow;
#X msg 351 516 20;
#X obj 399 556 *;
#X obj 399 590 - 10;
#X obj 351 712 / 2;
#X obj 326 439 t b b f;
#X obj 564 348 == 0;
#X obj 439 293 t f f;
#X obj 539 399 spigot;
#X msg 565 566 2;
#X obj 564 688 pow;
#X msg 589 534 -20;
#X obj 644 588 *;
#X obj 644 630 + 10;
#X msg 539 662 2;
#X obj 539 740 -;
#X obj 539 788 / 2;
#X obj 539 439 t b b b f;
#X obj 298 222 t f f f;
#X obj 219 919 f;
#X connect 0 0 3 0;
#X connect 2 0 27 0;
#X connect 3 0 2 0;
#X connect 3 1 4 0;
#X connect 3 2 26 0;
#X connect 4 0 27 0;
#X connect 5 0 15 0;
#X connect 6 0 13 0;
#X connect 7 0 8 0;
#X connect 8 0 12 0;
#X connect 9 0 10 0;
#X connect 10 0 11 0;
#X connect 11 0 8 1;
#X connect 12 0 27 0;
#X connect 13 0 7 0;
#X connect 13 1 9 0;
#X connect 13 2 10 1;
#X connect 14 0 16 1;
#X connect 15 0 6 1;
#X connect 15 1 14 0;
#X connect 16 0 25 0;
#X connect 17 0 18 0;
#X connect 18 0 23 1;
#X connect 19 0 20 0;
#X connect 20 0 21 0;
#X connect 21 0 18 1;
#X connect 22 0 23 0;
#X connect 23 0 24 0;
#X connect 24 0 27 0;
#X connect 25 0 22 0;
#X connect 25 1 17 0;
#X connect 25 2 19 0;
#X connect 25 3 20 1;
#X connect 26 0 6 0;
#X connect 26 1 16 0;
#X connect 26 2 5 0;
#X connect 27 0 1 0;
