#N canvas 827 239 527 327 12;
#X obj 519 239 hv.tanh~;
#X obj 639 239 hv.tanh~;
#X obj 459 99 catch~ master_L;
#X obj 699 99 catch~ master_R;
#X obj 650 961 dac~;
#X obj 139 486 s headphonegate @hv_param;
#X obj 1098 316 r bat @hv_param;
#X obj 935 198 r stereoswitch_press @hv_param;
#X obj 139 399 r headphoneswitch_press @hv_param;
#X obj 775 221 r knob4 @hv_param;
#X obj 1286 450 s led_red @hv_param;
#X obj 1098 450 s led_green @hv_param;
#X obj 581 321 *~;
#X obj 689 321 *~;
#X obj 1098 370 == 0;
#X obj 775 258 pow 3;
#X obj 594 879 clip~ -1 1;
#X obj 679 879 clip~ -1 1;
#X obj 601 446 *~;
#X obj 661 446 *~;
#X obj 837 409 +~;
#X obj 841 486 *~;
#X obj 841 446 /~ 2;
#X obj 1171 370 == 1;
#X obj 935 266 == 0;
#X obj 995 266 == 1;
#X obj 441 540 *~;
#X obj 501 540 *~;
#X obj 344 450 == 0;
#X obj 589 540 *~;
#X obj 407 450 == 1;
#X obj 674 540 *~;
#X obj 757 540 *~;
#X obj 899 539 loadbang;
#X obj 819 619 del 1000;
#X obj 919 699 line~;
#X msg 819 659 0 \, 1 3000;
#X msg 919 639 0;
#X obj 899 579 t b b;
#X obj 679 819 *~;
#X obj 599 819 *~;
#X obj 919 739 pow~ 3.5;
#X obj 399 99 inlet~;
#X obj 639 99 inlet~;
#X connect 0 0 12 0;
#X connect 1 0 13 0;
#X connect 2 0 0 0;
#X connect 3 0 1 0;
#X connect 6 0 14 0;
#X connect 6 0 23 0;
#X connect 7 0 24 0;
#X connect 7 0 25 0;
#X connect 8 0 5 0;
#X connect 8 0 28 0;
#X connect 8 0 30 0;
#X connect 9 0 15 0;
#X connect 12 0 18 0;
#X connect 12 0 20 0;
#X connect 12 0 26 0;
#X connect 13 0 19 0;
#X connect 13 0 20 1;
#X connect 13 0 27 0;
#X connect 14 0 11 0;
#X connect 15 0 12 1;
#X connect 15 0 13 1;
#X connect 16 0 4 0;
#X connect 17 0 4 1;
#X connect 18 0 29 0;
#X connect 19 0 31 0;
#X connect 20 0 22 0;
#X connect 21 0 32 0;
#X connect 22 0 21 0;
#X connect 23 0 10 0;
#X connect 24 0 18 1;
#X connect 24 0 19 1;
#X connect 25 0 21 1;
#X connect 26 0 40 0;
#X connect 27 0 39 0;
#X connect 28 0 26 1;
#X connect 28 0 27 1;
#X connect 29 0 40 0;
#X connect 30 0 29 1;
#X connect 30 0 31 1;
#X connect 30 0 32 1;
#X connect 31 0 39 0;
#X connect 32 0 39 0;
#X connect 32 0 40 0;
#X connect 33 0 38 0;
#X connect 34 0 36 0;
#X connect 35 0 41 0;
#X connect 36 0 35 0;
#X connect 37 0 35 0;
#X connect 38 0 34 0;
#X connect 38 1 37 0;
#X connect 39 0 17 0;
#X connect 40 0 16 0;
#X connect 41 0 40 1;
#X connect 41 0 39 1;
#X connect 42 0 0 0;
#X connect 43 0 1 0;
