#N canvas 827 239 527 327 12;
#X obj 84 222 f;
#X obj 204 119 inlet (float) value;
#X obj 268 453 int \$2;
#X obj 268 421 loadbang;
#X text 266 353 arg1 = array name;
#X text 317 456 arg2 = parameter #;
#X obj 164 350 r \$1-preset;
#X obj 216 386 r \$1-bank-size;
#X obj 84 611 tabwrite \$1;
#X obj 164 488 olm.preset-selector;
#X floatatom 233 558 29 0 0 0 - - - 36;
#X floatatom 228 191 21 0 0 0 - - - 36;
#X obj 84 119 inlet (bang) save;
#X connect 0 0 8 0;
#X connect 1 0 0 1;
#X connect 1 0 11 0;
#X connect 2 0 9 2;
#X connect 3 0 2 0;
#X connect 6 0 9 0;
#X connect 7 0 9 1;
#X connect 9 0 8 1;
#X connect 9 0 10 0;
#X connect 12 0 0 0;
