#N canvas 827 239 527 327 12;
#X obj 479 799 * 2;
#X obj 479 896 abs;
#X obj 479 471 * 0.5;
#X obj 479 427 + 1;
#X obj 479 379 inlet (float);
#X obj 479 943 outlet;
#X obj 598 379 inlet (float) offset;
#X obj 744 379 inlet (float) scale;
#X obj 479 543 + 0;
#X obj 479 590 * 1;
#X obj 649 420 loadbang;
#X obj 598 464 f \$1;
#X obj 744 464 f \$2;
#X obj 479 639 * 512;
#X obj 479 692 mod 512;
#X obj 479 743 / 512;
#X obj 479 847 - 1;
#X connect 0 0 16 0;
#X connect 1 0 5 0;
#X connect 2 0 8 0;
#X connect 3 0 2 0;
#X connect 4 0 3 0;
#X connect 6 0 11 0;
#X connect 7 0 12 0;
#X connect 8 0 9 0;
#X connect 9 0 13 0;
#X connect 10 0 11 0;
#X connect 10 0 12 0;
#X connect 11 0 8 1;
#X connect 12 0 9 1;
#X connect 13 0 14 0;
#X connect 14 0 15 0;
#X connect 15 0 0 0;
#X connect 16 0 1 0;
