#N canvas 827 239 527 327 12;
#X obj 254 303 f;
#X obj 285 371 -;
#X obj 285 415 abs;
#X obj 266 196 inlet;
#X obj 285 527 outlet;
#X obj 266 244 t f b f;
#X obj 375 198 inlet (bang) reset;
#X msg 375 237 0;
#X obj 375 267 t f f;
#X connect 0 0 1 0;
#X connect 1 0 2 0;
#X connect 2 0 4 0;
#X connect 3 0 5 0;
#X connect 5 0 0 1;
#X connect 5 1 0 0;
#X connect 5 2 1 1;
#X connect 6 0 7 0;
#X connect 7 0 8 0;
#X connect 8 0 0 0;
#X connect 8 1 1 1;
