#N canvas 827 239 527 327 12;
#X obj 279 79 inlet;
#X obj 419 179 < 0.5;
#X msg 205 472 8;
#X obj 205 527 *;
#X obj 279 378 f;
#X obj 205 570 *;
#X obj 205 619 *;
#X obj 205 666 *;
#X obj 279 418 t b f f f f;
#X msg 481 506 -2;
#X obj 538 546 *;
#X obj 459 378 f;
#X obj 538 592 + 2;
#X obj 538 634 pow 4;
#X obj 538 687 / 2;
#X msg 459 698 1;
#X obj 513 772 -;
#X obj 459 425 t b b f;
#X obj 279 295 spigot;
#X obj 459 295 spigot;
#X obj 279 115 t f f f;
#X obj 479 259 == 0;
#X obj 384 931 outlet;
#X obj 419 211 t f f;
#X connect 0 0 20 0;
#X connect 1 0 23 0;
#X connect 2 0 3 0;
#X connect 3 0 5 0;
#X connect 4 0 8 0;
#X connect 5 0 6 0;
#X connect 6 0 7 0;
#X connect 7 0 22 0;
#X connect 8 0 2 0;
#X connect 8 1 3 1;
#X connect 8 2 5 1;
#X connect 8 3 6 1;
#X connect 8 4 7 1;
#X connect 9 0 10 0;
#X connect 10 0 12 0;
#X connect 11 0 17 0;
#X connect 12 0 13 0;
#X connect 13 0 14 0;
#X connect 14 0 16 1;
#X connect 15 0 16 0;
#X connect 16 0 22 0;
#X connect 17 0 15 0;
#X connect 17 1 9 0;
#X connect 17 2 10 1;
#X connect 18 0 4 0;
#X connect 19 0 11 0;
#X connect 20 0 18 0;
#X connect 20 1 19 0;
#X connect 20 2 1 0;
#X connect 21 0 19 1;
#X connect 23 0 18 1;
#X connect 23 1 21 0;
