#N canvas 827 239 527 327 12;
#X obj 562 323 -~ 0.5;
#X obj 562 369 abs~;
#X obj 562 413 *~ 4;
#X obj 562 464 -~ 1;
#X obj 562 203 inlet~ frequency;
#X obj 562 281 phasor~ \$1;
#X obj 562 523 outlet~;
#X obj 710 203 inlet phase-reset;
#X obj 457 215 f \$1;
#X obj 457 185 loadbang;
#X obj 457 249 sig~;
#X connect 0 0 1 0;
#X connect 1 0 2 0;
#X connect 2 0 3 0;
#X connect 3 0 6 0;
#X connect 4 0 5 0;
#X connect 5 0 0 0;
#X connect 7 0 5 1;
#X connect 8 0 10 0;
#X connect 9 0 8 0;
#X connect 10 0 5 0;
