#N canvas 827 239 527 327 12;
#X obj 49 62 inlet (float) freq;
#X obj 175 62 inlet (float) span;
#X obj 175 193 * 1;
#X obj 435 62 inlet~ (signal) lfo;
#X obj 211 137 f \$1;
#X obj 211 104 loadbang;
#X obj 162 557 outlet~;
#X obj 161 295 sig~;
#X obj 305 62 inlet~ (signal) fm;
#X obj 161 246 + 0;
#X obj 162 430 phasor~;
#X obj 162 515 -~ 1;
#X obj 162 476 *~ 2;
#X obj 162 344 +~;
#X obj 162 389 +~;
#X connect 0 0 9 0;
#X connect 1 0 2 0;
#X connect 2 0 9 1;
#X connect 3 0 14 1;
#X connect 4 0 2 1;
#X connect 5 0 4 0;
#X connect 7 0 13 0;
#X connect 8 0 13 1;
#X connect 9 0 7 0;
#X connect 10 0 12 0;
#X connect 11 0 6 0;
#X connect 12 0 11 0;
#X connect 13 0 14 0;
#X connect 14 0 10 0;
