#N canvas 827 239 527 327 12;
#X obj 144 315 *;
#X obj 144 395 +;
#X obj 259 259 int 16;
#X obj 144 259 int 0;
#X obj 144 130 inlet (int) preset;
#X obj 259 130 inlet (int) bank-size;
#X obj 395 130 inlet (int) parameter #;
#X obj 395 259 int 0;
#X obj 144 463 outlet;
#X connect 0 0 1 0;
#X connect 1 0 8 0;
#X connect 2 0 0 1;
#X connect 3 0 0 0;
#X connect 4 0 3 0;
#X connect 5 0 2 0;
#X connect 6 0 7 0;
#X connect 7 0 1 1;
