#N canvas 827 239 527 327 12;
#X obj 199 519 olm.slider-randomizer;
#X obj 359 559 inlet;
#X obj 19 359 r \$1-chaos;
#X obj 119 359 r \$1-random-seed;
#X obj 239 439 olm.pingpong;
#X obj 199 619 olm.slider-controller \$1 \$2;
#X obj 197 689 outlet;
#X obj 199 219 tabread \$1-offsets;
#X obj 339 219 tabread \$1-phases;
#X obj 479 219 tabread \$1-chaos-mins;
#X obj 639 219 tabread \$1-chaos-maxes;
#X obj 199 99 f \$2;
#X obj 439 559 r \$1-\$2-in;
#X obj 277 689 s \$1-\$2-out;
#X obj 199 139 t f f f f;
#X obj 199 39 loadbang;
#X connect 0 0 5 0;
#X connect 1 0 5 1;
#X connect 2 0 0 0;
#X connect 3 0 4 0;
#X connect 4 0 0 1;
#X connect 5 0 6 0;
#X connect 5 0 13 0;
#X connect 7 0 4 1;
#X connect 8 0 4 2;
#X connect 9 0 0 2;
#X connect 10 0 0 3;
#X connect 11 0 14 0;
#X connect 12 0 5 1;
#X connect 14 0 7 0;
#X connect 14 1 8 0;
#X connect 14 2 9 0;
#X connect 14 3 10 0;
#X connect 15 0 11 0;
