#N canvas 827 239 527 327 12;
#X obj 51 133 tgl 21 0 empty empty empty 0 -11 0 12 #fcfcfc #000000 #000000 0 1;
#X obj 229 1123 pack f f;
#X obj 229 1188 outlet;
#X obj 56 961 makenote 127 400;
#X floatatom 51 550 5 0 0 0 empty - - 12;
#X obj 86 780 + 7;
#X obj 118 639 + 3;
#X obj 196 961 makenote 127 400;
#X obj 336 961 makenote 127 400;
#X floatatom 86 855 5 0 0 0 empty - - 12;
#X floatatom 118 721 5 0 0 0 empty - - 12;
#X floatatom 130 178 16 0 0 0 empty - - 24;
#X obj 51 418 random 14;
#X obj 433 530 * 0.8;
#X obj 51 458 + 48;
#X obj 49 63 del 100;
#X obj 49 24 loadbang;
#X obj 131 325 /;
#X msg 78 279 60000;
#X obj 51 499 olm.quantize-minor;
#X obj 49 96 t b b;
#X obj 130 239 t b f;
#X obj 86 818 olm.quantize-minor;
#X obj 118 677 olm.quantize-minor;
#X obj 51 370 metro 1000;
#X obj 51 580 t f f f;
#X msg 130 139 40;
#X connect 0 0 24 0;
#X connect 1 0 2 0;
#X connect 3 0 1 0;
#X connect 3 1 1 1;
#X connect 4 0 25 0;
#X connect 5 0 22 0;
#X connect 6 0 23 0;
#X connect 7 0 1 0;
#X connect 7 1 1 1;
#X connect 8 0 1 0;
#X connect 8 1 1 1;
#X connect 9 0 7 0;
#X connect 10 0 8 0;
#X connect 11 0 21 0;
#X connect 12 0 14 0;
#X connect 13 0 3 2;
#X connect 13 0 7 2;
#X connect 13 0 8 2;
#X connect 14 0 19 0;
#X connect 15 0 20 0;
#X connect 16 0 15 0;
#X connect 17 0 13 0;
#X connect 17 0 24 1;
#X connect 18 0 17 0;
#X connect 19 0 4 0;
#X connect 20 0 0 0;
#X connect 20 1 26 0;
#X connect 21 0 18 0;
#X connect 21 1 17 1;
#X connect 22 0 9 0;
#X connect 23 0 10 0;
#X connect 24 0 12 0;
#X connect 25 0 3 0;
#X connect 25 1 5 0;
#X connect 25 2 6 0;
#X connect 26 0 11 0;
