#N canvas 827 239 527 327 12;
#X obj 437 601 +~;
#X obj 506 601 +~;
#X obj 436 677 +~;
#X obj 506 677 -~;
#X obj 590 677 +~;
#X obj 660 677 -~;
#X obj 436 792 +~;
#X obj 506 792 +~;
#X obj 590 792 -~;
#X obj 660 792 -~;
#X obj 436 898 *~;
#X obj 506 898 *~;
#X obj 590 898 *~;
#X obj 660 898 *~;
#X obj 747 819 / 200;
#X obj 436 1062 lop~;
#X obj 436 1100 lop~;
#X obj 506 1062 lop~;
#X obj 506 1100 lop~;
#X obj 590 1062 lop~;
#X obj 590 1100 lop~;
#X obj 660 1062 lop~;
#X obj 660 1100 lop~;
#X obj 437 486 *~;
#X obj 510 486 *~;
#X obj 200 51 inlet~;
#X obj 235 748 outlet~;
#X obj 306 748 outlet~;
#X obj 579 119 inlet (float) presence 0-1;
#X obj 699 159 loadbang;
#X obj 819 326 s \$0-feedback;
#X obj 747 784 r \$0-feedback;
#X obj 1059 326 s \$0-lowpass;
#X obj 747 996 r \$0-lowpass;
#X obj 811 122 inlet (float) feedback 0-100;
#X obj 819 279 clip 0 100;
#X obj 1054 122 inlet (float) lowpass 0-20000;
#X obj 579 279 clip 0 1;
#X obj 579 239 f \$1;
#X obj 819 239 f \$2;
#X obj 1059 239 f \$3;
#X obj 202 219 reverb-echo 13.4367;
#X obj 365 219 reverb-echo 21.5463;
#X obj 202 300 reverb-echo 34.3876;
#X obj 365 303 reverb-echo 55.5437;
#X obj 559 519 delread~ \$0-loop-del1 60;
#X obj 573 554 delread~ \$0-loop-del2 71.9345;
#X obj 590 588 delread~ \$0-loop-del3 86.7545;
#X obj 671 621 delread~ \$0-loop-del4 95.945;
#X obj 659 1141 delwrite~ \$0-loop-del4 95.945;
#X obj 589 1179 delwrite~ \$0-loop-del3 86.7545;
#X obj 505 1216 delwrite~ \$0-loop-del2 71.9345;
#X obj 436 1254 delwrite~ \$0-loop-del1 60;
#X obj 365 51 inlet~;
#X obj 394 408 *~ 0.33;
#X obj 484 408 *~ 0.33;
#X obj 1059 279 clip 200 16000;
#X connect 0 0 2 0;
#X connect 0 0 3 0;
#X connect 0 0 26 0;
#X connect 1 0 2 1;
#X connect 1 0 3 1;
#X connect 1 0 27 0;
#X connect 2 0 6 0;
#X connect 2 0 8 0;
#X connect 3 0 7 0;
#X connect 3 0 9 0;
#X connect 4 0 6 1;
#X connect 4 0 8 1;
#X connect 5 0 7 1;
#X connect 5 0 9 1;
#X connect 6 0 10 0;
#X connect 7 0 11 0;
#X connect 8 0 12 0;
#X connect 9 0 13 0;
#X connect 10 0 15 0;
#X connect 11 0 17 0;
#X connect 12 0 19 0;
#X connect 13 0 21 0;
#X connect 14 0 10 1;
#X connect 14 0 11 1;
#X connect 14 0 12 1;
#X connect 14 0 13 1;
#X connect 15 0 16 0;
#X connect 16 0 52 0;
#X connect 17 0 18 0;
#X connect 18 0 51 0;
#X connect 19 0 20 0;
#X connect 20 0 50 0;
#X connect 21 0 22 0;
#X connect 22 0 49 0;
#X connect 23 0 0 0;
#X connect 24 0 1 0;
#X connect 25 0 41 0;
#X connect 28 0 38 0;
#X connect 29 0 38 0;
#X connect 29 0 39 0;
#X connect 29 0 40 0;
#X connect 31 0 14 0;
#X connect 33 0 15 1;
#X connect 33 0 16 1;
#X connect 33 0 17 1;
#X connect 33 0 18 1;
#X connect 33 0 19 1;
#X connect 33 0 20 1;
#X connect 33 0 21 1;
#X connect 33 0 22 1;
#X connect 34 0 39 0;
#X connect 35 0 30 0;
#X connect 36 0 40 0;
#X connect 37 0 24 1;
#X connect 37 0 23 1;
#X connect 38 0 37 0;
#X connect 39 0 35 0;
#X connect 40 0 56 0;
#X connect 41 0 43 0;
#X connect 41 1 43 1;
#X connect 42 0 44 0;
#X connect 42 1 44 1;
#X connect 43 0 54 0;
#X connect 43 1 55 0;
#X connect 44 0 54 0;
#X connect 44 1 55 0;
#X connect 45 0 0 1;
#X connect 46 0 1 1;
#X connect 47 0 4 0;
#X connect 47 0 5 0;
#X connect 48 0 4 1;
#X connect 48 0 5 1;
#X connect 53 0 42 0;
#X connect 54 0 23 0;
#X connect 55 0 24 0;
#X connect 56 0 32 0;
