#N canvas 827 239 527 327 12;
#X obj 1419 19 olm.swarm~;
#X obj 1439 719 throw~ channel2_L;
#X obj 2819 699 throw~ channel2_R;
#X obj 19 1539 olm.global-preset-ui;
#X obj 19 779 olm.juno;
#X obj 19 19 olm.bigseq;
#X obj -101 1479 throw~ channel1;
#N canvas 0 50 450 300 mixer 1;
#X obj -1 -1 cnv 15 1381 741 empty empty mixer 20 27 0 35 #b2b1b7 #373737 0;
#N canvas 0 0 450 250 (subpatch) 0;
#X array mixer-presets 44 float 2;
#X coords 0 1 44 0 1342 202 1;
#X restore 19 79 graph;
#N canvas 0 0 450 250 (subpatch) 0;
#X array mixer-controls 12 float 2;
#X coords 0 1 12 0 322 202 1;
#X restore 359 299 graph;
#N canvas 0 0 450 250 (subpatch) 0;
#X array mixer-offsets 12 float 3;
#A 0 0.475248 0.282178 0.658416 0.0396039 0.306931 0.282178 0.876238 0.40099 0.554455 0.69802 0.168317 0.601485;
#X coords 0 1 12 0 322 202 1;
#X restore 19 519 graph;
#N canvas 0 0 450 250 (subpatch) 0;
#X array mixer-phases 12 float 3;
#A 0 0.118812 0.279703 0.391089 0.495049 0.554455 0.608911 0.767327 0.460396 0.29703 0.623762 0.445545 0.69802;
#X coords 0 1 12 0 322 202 1;
#X restore 359 519 graph;
#N canvas 0 0 450 250 (subpatch) 0;
#X array mixer-chaos-mins 12 float 3;
#A 0 0.420792 0.361386 0.376238 0.420792 0.455446 0.420792 0.435644 0.40099 0.445545 0.490099 0.549505 0.460396;
#X coords 0 1 12 0 322 202 1;
#X restore 699 519 graph;
#N canvas 0 0 450 250 (subpatch) 0;
#X array mixer-chaos-maxes 12 float 3;
#A 0 0.727723 0.742574 0.772277 0.752475 0.717822 0.742574 0.752475 0.717822 0.767327 0.70297 0.757426 0.683168;
#X coords 0 1 12 0 322 202 1;
#X restore 1039 519 graph;
#N canvas 0 0 450 250 (subpatch) 0;
#X array mixer-loading 12 float 2;
#X coords 0 1 12 0 322 202 1;
#X restore 699 299 graph;
#N canvas 0 0 450 250 (subpatch) 0;
#X array mixer-random 12 float 2;
#X coords 0 1 12 0 322 202 1;
#X restore 19 299 graph;
#X obj 1039 379 send mixer;
#N canvas 0 50 450 300 mixer-internals 1;
#X obj 458 81 catch~ channel2_L;
#X obj 618 81 catch~ channel2_R;
#X obj 99 219 catch~ channel1;
#X obj 99 399 *~;
#X obj 119 359 pow 3;
#X obj 99 719 throw~ master_L;
#X obj 278 721 throw~ master_R;
#X obj 219 259 r mixer;
#X obj 458 341 *~;
#X obj 558 261 pow 3;
#X obj 458 461 olm.panner~;
#X obj 458 721 throw~ master_L;
#X obj 618 721 throw~ master_R;
#X obj 618 341 *~;
#X obj 618 461 olm.panner~;
#X obj 778 341 * 2;
#X obj 778 301 clip 0 0.5;
#X obj 678 301 clip 0.5 1;
#X obj 678 341 * 2;
#X obj 678 381 - 1;
#X obj 458 541 +~;
#X obj 598 541 +~;
#X obj 718 141 r mixer;
#X obj 939 679 *~;
#X obj 1059 679 *~;
#X obj 1079 619 pow 3;
#X obj 939 739 throw~ master_L;
#X obj 1059 739 throw~ master_R;
#X obj 1038 421 r mixer;
#X obj 1319 679 *~;
#X obj 1439 679 *~;
#X obj 1459 619 pow 3;
#X obj 1319 739 throw~ master_L;
#X obj 1439 739 throw~ master_R;
#X obj 1459 399 r mixer;
#X obj 1519 499 * 1.1;
#X obj 1019 539 * 100;
#X obj 1079 539 olm.remap_slider 200 16000;
#X obj 437 743 throw~ fx_L;
#X obj 597 743 throw~ fx_R;
#X obj 78 741 throw~ fx_L;
#X obj 258 741 throw~ fx_R;
#X obj 898 221 catch~ fx_L;
#X obj 998 221 catch~ fx_R;
#X obj 299 339 catch~ swarm-lfo;
#N canvas 0 50 450 300 signal-panner 0;
#X obj 219 159 inlet~ (audio) signal;
#X obj 482 494 cos~;
#X obj 219 587 *~;
#X obj 443 571 *~;
#X obj 284 504 cos~;
#X obj 219 676 outlet~ (audio) left;
#X obj 443 676 outlet~ (audio) right;
#X obj 401 159 inlet~ (signal) control;
#X obj 399 279 /~ 4;
#X obj 479 379 +~ 0.75;
#X connect 0 0 2 0;
#X connect 0 0 3 0;
#X connect 1 0 3 1;
#X connect 2 0 5 0;
#X connect 3 0 6 0;
#X connect 4 0 2 1;
#X connect 7 0 8 0;
#X connect 8 0 9 0;
#X connect 8 0 4 0;
#X connect 9 0 1 0;
#X restore 99 499 pd signal-panner;
#N canvas 0 50 450 300 signal-alpha 0;
#X obj 339 259 -~;
#X obj 219 339 *~;
#X obj 279 439 +~;
#X obj 179 179 inlet~ alpha;
#X obj 299 179 inlet~ sig 1;
#X obj 399 179 inlet~ sig 2;
#X obj 279 499 outlet~;
#X connect 0 0 1 1;
#X connect 1 0 2 0;
#X connect 2 0 6 0;
#X connect 3 0 1 0;
#X connect 4 0 0 1;
#X connect 4 0 2 1;
#X connect 5 0 0 0;
#X restore 179 459 pd signal-alpha;
#X obj 239 339 sig~;
#X obj 179 419 sig~;
#X obj 219 299 route 0 1 2;
#X obj 718 181 route 3 4;
#X obj 1038 461 route 5 6 7;
#X obj 1459 439 route 8 9 10 11;
#X obj 899 579 olm.reverb~ 1 50 12000;
#X obj 1319 599 olm.delay~;
#X connect 0 0 8 0;
#X connect 1 0 13 0;
#X connect 2 0 3 0;
#X connect 3 0 45 0;
#X connect 4 0 3 1;
#X connect 7 0 49 0;
#X connect 8 0 10 0;
#X connect 9 0 8 1;
#X connect 9 0 13 1;
#X connect 10 0 20 0;
#X connect 10 1 21 0;
#X connect 13 0 14 0;
#X connect 14 0 20 1;
#X connect 14 1 21 1;
#X connect 15 0 14 1;
#X connect 16 0 15 0;
#X connect 17 0 18 0;
#X connect 18 0 19 0;
#X connect 19 0 10 1;
#X connect 20 0 11 0;
#X connect 20 0 38 0;
#X connect 21 0 12 0;
#X connect 21 0 39 0;
#X connect 22 0 50 0;
#X connect 23 0 26 0;
#X connect 24 0 27 0;
#X connect 25 0 23 1;
#X connect 25 0 24 1;
#X connect 28 0 51 0;
#X connect 29 0 32 0;
#X connect 30 0 33 0;
#X connect 31 0 30 1;
#X connect 31 0 29 1;
#X connect 34 0 52 0;
#X connect 35 0 54 4;
#X connect 36 0 53 3;
#X connect 37 0 53 4;
#X connect 42 0 53 0;
#X connect 42 0 54 0;
#X connect 43 0 53 1;
#X connect 43 0 54 1;
#X connect 44 0 46 2;
#X connect 45 0 5 0;
#X connect 45 0 40 0;
#X connect 45 1 6 0;
#X connect 45 1 41 0;
#X connect 46 0 45 1;
#X connect 47 0 46 1;
#X connect 48 0 46 0;
#X connect 49 0 4 0;
#X connect 49 1 47 0;
#X connect 49 2 48 0;
#X connect 50 0 9 0;
#X connect 50 1 17 0;
#X connect 50 1 16 0;
#X connect 51 0 25 0;
#X connect 51 1 36 0;
#X connect 51 2 37 0;
#X connect 52 0 31 0;
#X connect 52 1 54 2;
#X connect 52 2 54 3;
#X connect 52 3 35 0;
#X connect 53 0 23 0;
#X connect 53 1 24 0;
#X connect 54 0 29 0;
#X connect 54 1 30 0;
#X restore 1039 419 pd mixer-internals;
#X obj 1039 299 r space-seed;
#X obj 1039 339 olm.control-system mixer 12;
#X connect 11 0 12 0;
#X connect 12 0 9 0;
#X coords 0 0 1 1 1380 740 1 0 0;
#X restore 1419 779 pd mixer;
#X connect 0 0 1 0;
#X connect 0 1 2 0;
#X connect 4 0 6 0;
#X connect 5 0 4 0;
#X coords 0 0 1 1 2821 1735 1 0 0;
