#N canvas 827 239 527 327 12;
#X obj 199 19 cnv 15 21 519 empty empty empty 20 12 0 14 #5a5a5a #373737 0;
#X obj -1 19 cnv 15 201 521 empty empty empty 20 12 0 14 #b7b7b7 #373737 0;
#X obj 379 509 *~;
#X obj 619 373 bng 25 250 50 0 empty empty empty 17 7 0 10 #e4e4e4 #4d4d4d #373737;
#X obj 619 280 tgl 25 0 empty empty empty 17 7 0 10 #e4e4e4 #4d4d4d #373737 0 1;
#X obj 379 446 olm.perc-osc~;
#X obj 619 439 olm.perc-env~ 0.75;
#X obj 619 330 olm.perc-randomizer;
#X obj 619 202 loadbang;
#X msg 619 231 1;
#X obj 379 139 pow 3.5;
#X obj 179 279 s \$1-perc-decay-out;
#X obj 722 379 r \$1-perc-decay-out;
#X obj 403 251 r \$1-perc-pwm-out;
#X obj -101 279 s \$1-perc-tone-out;
#X obj 459 379 r \$1-perc-snare-out;
#X obj 179 239 s \$1-perc-snare-out;
#X obj 428 310 r \$1-perc-tone-out;
#X obj -121 439 s \$1-perc-cutoff-out;
#X obj 159 439 s \$1-perc-res-out;
#X obj 479 538 r \$1-perc-cutoff-out;
#X obj 659 538 r \$1-perc-res-out;
#X obj 379 174 olm.remap_slider 20 10000;
#X obj 479 578 pow 3.5;
#X obj 379 794 outlet~;
#X obj -101 39 r \$1-perc-freq-in;
#X obj -101 99 r \$1-perc-pwm-in;
#X obj -101 199 r \$1-perc-snare-in;
#X obj -101 159 r \$1-perc-tone-in;
#X obj 179 159 r \$1-perc-decay-in;
#X obj -101 319 r \$1-perc-cutoff-in;
#X obj 159 319 r \$1-perc-res-in;
#X obj 403 279 olm.easein-cubic;
#X obj 428 345 olm.easein-cubic;
#X obj 453 411 olm.easein-cubic;
#X obj 179 499 s \$1-perc-rhythm-out;
#X obj 748 268 r \$1-perc-rhythm-out;
#X obj -121 479 r \$1-perc-rhythm-in;
#X obj 479 618 olm.remap_slider 40 12000;
#X obj 479 658 sig~;
#X obj 659 658 sig~;
#X obj 379 220 sig~;
#X obj 659 578 pow 3.5;
#X obj 659 618 olm.remap_slider 0.1 8;
#X obj 379 738 mkmr.fi.lowpass~;
#X obj 379 559 *~ 0.8;
#X obj 379 630 hv.tanh~;
#X obj 22 39 hsl 156 41 0 1 0 0 empty empty freq -2 -8 0 15 #e4e4e4 #4d4d4d #373737 0 1;
#X obj 22 99 hsl 156 41 0 1 0 0 empty empty pwm -2 -8 0 15 #e4e4e4 #4d4d4d #373737 0 1;
#X obj 22 159 vsl 36 141 0 1 0 0 empty empty tone 0 -9 0 15 #e4e4e4 #4d4d4d #373737 0 1;
#X obj 82 159 vsl 36 141 0 1 0 0 empty empty snare 0 -9 0 15 #e4e4e4 #4d4d4d #373737 0 1;
#X obj 142 159 vsl 36 141 0 1 0 0 empty empty decay 0 -9 0 15 #e4e4e4 #4d4d4d #373737 0 1;
#X obj 42 319 vsl 36 141 0 1 0 0 empty empty cutoff 0 -9 0 15 #e4e4e4 #4d4d4d #373737 0 1;
#X obj 122 319 vsl 36 141 0 1 0 0 empty empty res 0 -9 0 15 #e4e4e4 #4d4d4d #373737 0 1;
#X obj 22 479 hsl 156 41 0 1 0 0 empty empty rhythm -2 -8 0 15 #e4e4e4 #4d4d4d #373737 0 1;
#X obj 179 39 s \$1-perc-freq-out;
#X obj 379 99 r \$1-perc-freq-out;
#X obj 179 99 s \$1-perc-pwm-out;
#X connect 2 0 45 0;
#X connect 3 0 6 0;
#X connect 4 0 7 0;
#X connect 5 0 2 0;
#X connect 6 0 2 1;
#X connect 7 0 3 0;
#X connect 8 0 9 0;
#X connect 9 0 4 0;
#X connect 10 0 22 0;
#X connect 12 0 6 1;
#X connect 13 0 32 0;
#X connect 15 0 34 0;
#X connect 17 0 33 0;
#X connect 20 0 23 0;
#X connect 21 0 42 0;
#X connect 22 0 41 0;
#X connect 23 0 38 0;
#X connect 25 0 47 0;
#X connect 26 0 48 0;
#X connect 27 0 50 0;
#X connect 28 0 49 0;
#X connect 29 0 51 0;
#X connect 30 0 52 0;
#X connect 31 0 53 0;
#X connect 32 0 5 1;
#X connect 33 0 5 2;
#X connect 34 0 5 3;
#X connect 36 0 7 1;
#X connect 37 0 54 0;
#X connect 38 0 39 0;
#X connect 39 0 44 1;
#X connect 40 0 44 2;
#X connect 41 0 5 0;
#X connect 42 0 43 0;
#X connect 43 0 40 0;
#X connect 44 0 24 0;
#X connect 45 0 46 0;
#X connect 46 0 44 0;
#X connect 47 0 55 0;
#X connect 48 0 57 0;
#X connect 49 0 14 0;
#X connect 50 0 16 0;
#X connect 51 0 11 0;
#X connect 52 0 18 0;
#X connect 53 0 19 0;
#X connect 54 0 35 0;
#X connect 56 0 10 0;
#X coords 0 0 1 1 220 539 1 0 1;
