#N canvas 827 239 527 327 12;
#X obj 210 711 metro 1000;
#X obj 287 564 t b f;
#X obj 287 656 /;
#X msg 255 610 60000;
#X obj 287 440 + 50;
#X obj 287 520 line;
#X obj 287 267 random 500;
#X obj 287 309 / 500;
#X obj 287 407 * 500;
#X obj 287 360 olm.easein-cubic;
#X msg 287 486 \$1 4000;
#X obj 210 786 outlet;
#X obj 210 100 inlet (float or bang) non-zero starts;
#X obj 210 153 t f f;
#X floatatom 441 332 18 0 0 0 - - - 36;
#X floatatom 372 679 30 0 0 0 - - - 36;
#X obj 90 431 loadbang;
#X msg 90 479 set 120;
#X obj 287 226 metro 20000;
#X obj 471 100 inlet (float) rhythm;
#X obj 471 146 olm.remap_slider 4000 20000;
#X connect 0 0 11 0;
#X connect 1 0 3 0;
#X connect 1 1 2 1;
#X connect 2 0 0 1;
#X connect 2 0 15 0;
#X connect 3 0 2 0;
#X connect 4 0 10 0;
#X connect 5 0 1 0;
#X connect 6 0 7 0;
#X connect 6 0 14 0;
#X connect 7 0 9 0;
#X connect 8 0 4 0;
#X connect 9 0 8 0;
#X connect 10 0 5 0;
#X connect 12 0 13 0;
#X connect 13 0 0 0;
#X connect 13 1 18 0;
#X connect 16 0 17 0;
#X connect 17 0 5 0;
#X connect 18 0 6 0;
#X connect 19 0 20 0;
#X connect 20 0 18 1;
