#N canvas 827 239 527 327 12;
#X obj 419 19 cnv 15 161 261 empty empty channel-stereo 20 12 0 20 #b7b7b7 #373737 0;
#X obj 19 439 *~;
#X obj 119 359 pow 3;
#X obj 442 59 vsl 36 201 0 1 0 0 empty empty vol 0 -9 0 15 #e4e4e4 #4d4d4d #373737 0 1;
#X obj 19 559 olm.panner~;
#X obj 19 819 throw~ master_L;
#X obj 159 819 throw~ master_R;
#X obj 502 59 hsl 56 45 0 1 0 0 empty empty pan -2 -8 0 15 #e4e4e4 #4d4d4d #373737 0 1;
#X obj 659 -81 loadbang;
#X obj 299 765 *~;
#X obj 339 599 pow 3;
#X obj 502 141 vsl 16 119 0 1 0 0 empty empty fx1 0 -9 0 15 #e4e4e4 #4d4d4d #373737 0 1;
#X obj 396 765 *~;
#X obj 299 819 throw~ fx1_L;
#X obj 396 819 throw~ fx1_R;
#X obj 519 765 *~;
#X obj 539 599 pow 3;
#X obj 542 141 vsl 16 119 0 1 0 0 empty empty fx2 0 -9 0 15 #e4e4e4 #4d4d4d #373737 0 1;
#X obj 616 765 *~;
#X obj 519 819 throw~ fx2_L;
#X obj 616 819 throw~ fx2_R;
#X msg 699 -21 0.5;
#X obj 19 19 inlet~ (signal) audio in L;
#X obj 179 19 inlet~ (signal) audio in R;
#X obj 179 439 *~;
#X obj 179 559 olm.panner~;
#X obj 339 439 * 2;
#X obj 339 399 clip 0 0.5;
#X obj 239 399 clip 0.5 1;
#X obj 239 439 * 2;
#X obj 239 479 - 1;
#X obj 19 639 +~;
#X obj 159 639 +~;
#X msg 659 -21 0.9;
#X msg 739 -21 0.9;
#X msg 779 -21 0.9;
#X connect 1 0 4 0;
#X connect 2 0 1 1;
#X connect 2 0 24 1;
#X connect 3 0 2 0;
#X connect 4 0 31 0;
#X connect 4 1 32 0;
#X connect 7 0 27 0;
#X connect 7 0 28 0;
#X connect 8 0 33 0;
#X connect 8 0 21 0;
#X connect 8 0 34 0;
#X connect 8 0 35 0;
#X connect 9 0 13 0;
#X connect 10 0 9 1;
#X connect 10 0 12 1;
#X connect 11 0 10 0;
#X connect 12 0 14 0;
#X connect 15 0 19 0;
#X connect 16 0 15 1;
#X connect 16 0 18 1;
#X connect 17 0 16 0;
#X connect 18 0 20 0;
#X connect 21 0 7 0;
#X connect 22 0 1 0;
#X connect 23 0 24 0;
#X connect 24 0 25 0;
#X connect 25 0 31 1;
#X connect 25 1 32 1;
#X connect 26 0 25 1;
#X connect 27 0 26 0;
#X connect 28 0 29 0;
#X connect 29 0 30 0;
#X connect 30 0 4 1;
#X connect 31 0 5 0;
#X connect 31 0 9 0;
#X connect 31 0 15 0;
#X connect 32 0 6 0;
#X connect 32 0 12 0;
#X connect 32 0 18 0;
#X connect 33 0 3 0;
#X connect 34 0 11 0;
#X connect 35 0 17 0;
#X coords 0 0 1 1 160 260 1 420 20;
