#N canvas 827 239 527 327 12;
#X obj 239 319 sel 0;
#X obj 259 359 bng 25 250 50 0 empty empty empty 17 7 0 10 #e4e4e4 #4d4d4d #373737;
#X obj 239 279 random 2;
#X obj 239 159 inlet (bang) randomly selects which outlet to bang;
#X obj 199 439 outlet;
#X obj 259 439 outlet;
#X obj 239 219 bng 25 250 50 0 empty empty empty 17 7 0 10 #e4e4e4 #4d4d4d #373737;
#X connect 0 0 4 0;
#X connect 0 1 1 0;
#X connect 1 0 5 0;
#X connect 2 0 0 0;
#X connect 3 0 6 0;
#X connect 6 0 2 0;
