#N canvas 827 239 527 327 12;
#X obj 144 224 inlet~ (audio) signal;
#X obj 407 559 cos~;
#X obj 144 652 *~;
#X obj 368 636 *~;
#X obj 209 569 cos~;
#X obj 144 741 outlet~ (audio) left;
#X obj 368 741 outlet~ (audio) right;
#X obj 326 224 inlet~ (float) control;
#X obj 354 329 /~ 4;
#X obj 407 448 +~ 0.75;
#X connect 0 0 2 0;
#X connect 0 0 3 0;
#X connect 1 0 3 1;
#X connect 2 0 5 0;
#X connect 3 0 6 0;
#X connect 4 0 2 1;
#X connect 7 0 8 0;
#X connect 8 0 4 0;
#X connect 8 0 9 0;
#X connect 9 0 1 0;
