#N canvas 827 239 527 327 12;
#X obj 599 679 olm.quantize-diatonic;
#X obj 759 679 olm.quantize-pentatonic;
#X obj 939 679 olm.quantize-minor-harmonic;
#X obj 599 639 spigot;
#X obj 759 639 spigot;
#X obj 939 639 spigot;
#X obj 599 299 inlet (int) note;
#X obj 941 297 inlet (int) scale;
#X obj 599 839 outlet;
#X obj 639 579 == 0;
#X obj 779 579 == 1;
#X obj 959 579 == 2;
#X obj 939 399 min 2;
#X obj 939 459 t f f f;
#X obj 599 339 t f f f;
#X obj 1059 299 loadbang;
#X obj 941 357 int 0;
#X connect 0 0 8 0;
#X connect 1 0 8 0;
#X connect 2 0 8 0;
#X connect 3 0 0 0;
#X connect 4 0 1 0;
#X connect 5 0 2 0;
#X connect 6 0 14 0;
#X connect 7 0 16 0;
#X connect 9 0 3 1;
#X connect 10 0 4 1;
#X connect 11 0 5 1;
#X connect 12 0 13 0;
#X connect 13 0 9 0;
#X connect 13 1 10 0;
#X connect 13 2 11 0;
#X connect 14 0 3 0;
#X connect 14 1 4 0;
#X connect 14 2 5 0;
#X connect 15 0 16 0;
#X connect 16 0 12 0;
