#N canvas 827 239 527 327 12;
#X obj 318 254 * 3.14159;
#X obj 318 291 cos;
#X obj 318 326 - 1;
#X obj 318 367 * -1;
#X obj 318 412 / 2;
#X obj 318 209 inlet (float) value;
#X obj 318 457 outlet;
#X connect 0 0 1 0;
#X connect 1 0 2 0;
#X connect 2 0 3 0;
#X connect 3 0 4 0;
#X connect 4 0 6 0;
#X connect 5 0 0 0;
