#N canvas 827 239 527 327 12;
#X obj 293 300 *;
#X obj 314 342 *;
#X obj 293 252 t f f f;
#X obj 298 144 inlet (float) value;
#X obj 296 200 clip 0 1;
#X obj 314 413 outlet;
#X connect 0 0 1 0;
#X connect 1 0 5 0;
#X connect 2 0 0 0;
#X connect 2 1 0 1;
#X connect 2 2 1 1;
#X connect 3 0 4 0;
#X connect 4 0 2 0;
