#N canvas 827 239 527 327 12;
#X obj -1 -1 cnv 15 1381 741 empty empty swarm 20 27 0 35 #b7b7b7 #373737 0;
#N canvas 0 0 450 250 (subpatch) 0;
#X array swarm-presets 28 float 2;
#X coords 0 1 28 0 1342 202 1;
#X restore 19 79 graph;
#N canvas 0 0 450 250 (subpatch) 0;
#X array swarm-controls 7 float 2;
#X coords 0 1 7 0 322 202 1;
#X restore 359 299 graph;
#N canvas 0 0 450 250 (subpatch) 0;
#X array swarm-offsets 7 float 3;
#A 0 0.643564 0.361386 0.876238 0.727723 0.0990099 0.519802 0.247525;
#X coords 0 1 7 0 322 202 1;
#X restore 19 519 graph;
#N canvas 0 0 450 250 (subpatch) 0;
#X array swarm-phases 7 float 3;
#A 0 0.19802 0.504951 0.381188 0.60396 0.430693 0.514851 0.727723;
#X coords 0 1 7 0 322 202 1;
#X restore 359 519 graph;
#N canvas 0 0 450 250 (subpatch) 0;
#X array swarm-chaos-mins 7 float 3;
#A 0 0.277228 0.277228 0.277228 0.267327 0.267327 0.262376 0.262376;
#X coords 0 1 7 0 322 202 1;
#X restore 699 519 graph;
#N canvas 0 0 450 250 (subpatch) 0;
#X array swarm-chaos-maxes 7 float 3;
#A 0 0.732673 0.732673 0.732673 0.732673 0.727723 0.727723 0.727723;
#X coords 0 1 7 0 322 202 1;
#X restore 1039 519 graph;
#N canvas 0 0 450 250 (subpatch) 0;
#X array swarm-loading 7 float 2;
#X coords 0 1 7 0 322 202 1;
#X restore 699 299 graph;
#N canvas 0 0 450 250 (subpatch) 0;
#X array swarm-random 7 float 2;
#X coords 0 1 7 0 322 202 1;
#X restore 19 299 graph;
#X obj 1039 359 send swarm;
#N canvas 0 50 450 300 swarm-internals 0;
#X obj 179 1359 outlet~;
#X obj 191 1292 mkmr.fi.lowpass~;
#X obj 231 1032 sig~;
#X obj 531 1032 sig~;
#X obj 419 1359 outlet~;
#X obj 431 1292 mkmr.fi.lowpass~;
#X obj 111 1212 /~ 16;
#X obj 571 1212 /~ 16;
#X obj 111 1252 hv.tanh~;
#X obj 571 1252 hv.tanh~;
#X obj 111 1172 catch~ \$0-outL;
#X obj 571 1172 catch~ \$0-outR;
#X obj 219 899 pow 3;
#X obj 519 899 pow 3.5;
#X obj 219 819 r swarm;
#X obj 219 859 route 6 7;
#X obj 217 158 hv.osc~ sine;
#X obj 339 158 hv.osc~ sine;
#X obj 471 158 hv.osc~ sine;
#X obj 217 235 s~ \$0-lfo1;
#X obj 339 235 s~ \$0-lfo2;
#X obj 471 235 s~ \$0-lfo3;
#X obj 217 197 *~ 0.18;
#X obj 339 197 *~ 0.2;
#X obj 471 197 *~ 0.47;
#X obj 217 118 sig~ 0.113;
#X obj 339 112 sig~ 0.048;
#X obj 471 112 sig~ 0.14;
#X obj 1171 365 sig~;
#X obj 1171 394 phasor~;
#X obj 1171 479 -~ 1;
#X obj 1171 440 *~ 2;
#X obj 332 399 r~ \$0-lfo1;
#X obj 717 411 r~ \$0-lfo2;
#X obj 1064 411 r~ \$0-lfo3;
#X obj 1171 312 olm.remap_slider 50 880;
#X obj 1171 654 *~;
#X obj 1189 515 olm.triangle-uni~ 0.086;
#X obj 1228 543 r \$0-lfo-inf;
#X obj 1189 576 *~;
#X obj 1189 543 -~ 1;
#X obj 1189 618 +~ 1;
#X obj 1171 749 olm.panner-sig~;
#X obj 79 459 olm.swarm-voice-wrapper \$0 -1.3 0.25 0.143;
#X obj 79 543 throw~ \$0-outL;
#X obj 205 543 throw~ \$0-outR;
#X obj 438 459 olm.swarm-voice-wrapper \$0 -1.2 0.33333 0.023;
#X obj 438 543 throw~ \$0-outL;
#X obj 577 543 throw~ \$0-outR;
#X obj 821 459 olm.swarm-voice-wrapper \$0 -1.1 0.5 0.196;
#X obj 821 543 throw~ \$0-outL;
#X obj 942 543 throw~ \$0-outR;
#X obj 2057 450 olm.swarm-voice-wrapper \$0 1.3 4 0.0997;
#X obj 2295 404 r~ \$0-lfo3;
#X obj 2057 543 throw~ \$0-outL;
#X obj 2176 543 throw~ \$0-outR;
#X obj 1042 930 throw~ \$0-outL;
#X obj 1311 932 throw~ \$0-outR;
#X obj 1705 450 olm.swarm-voice-wrapper \$0 1.2 3 0.142;
#X obj 1705 543 throw~ \$0-outL;
#X obj 1819 543 throw~ \$0-outR;
#X obj 1934 404 r~ \$0-lfo2;
#X obj 79 399 catch~ \$0-fm4;
#X obj 438 405 catch~ \$0-fm5;
#X obj 821 411 catch~ \$0-fm6;
#X obj 1705 397 catch~ \$0-fm2;
#X obj 2057 401 catch~ \$0-fm3;
#X obj 1934 543 throw~ \$0-fm5;
#X obj 2295 543 throw~ \$0-fm6;
#X obj 1064 543 throw~ \$0-fm3;
#X obj 717 543 throw~ \$0-fm2;
#X obj 332 543 throw~ \$0-fm1;
#X obj 1365 449 olm.swarm-voice-wrapper \$0 1.1 2 0.056;
#X obj 1365 543 throw~ \$0-outL;
#X obj 1479 543 throw~ \$0-outR;
#X obj 1365 397 catch~ \$0-fm1;
#X obj 1593 397 r~ \$0-lfo1;
#X obj 1593 543 throw~ \$0-fm4;
#X obj 1171 192 r swarm;
#X obj 1171 252 route 0;
#X obj 219 939 olm.remap_slider 200 16000;
#X obj 219 979 clip 200 16000;
#X obj 519 939 olm.remap_slider 0.5 7;
#X obj 519 979 clip 0.5 7;
#X obj 1321 629 throw~ swarm-lfo;
#X connect 1 0 0 0;
#X connect 2 0 5 1;
#X connect 2 0 1 1;
#X connect 3 0 1 2;
#X connect 3 0 5 2;
#X connect 5 0 4 0;
#X connect 6 0 8 0;
#X connect 7 0 9 0;
#X connect 8 0 1 0;
#X connect 9 0 5 0;
#X connect 10 0 6 0;
#X connect 11 0 7 0;
#X connect 12 0 80 0;
#X connect 13 0 82 0;
#X connect 14 0 15 0;
#X connect 15 0 12 0;
#X connect 15 1 13 0;
#X connect 16 0 22 0;
#X connect 17 0 23 0;
#X connect 18 0 24 0;
#X connect 22 0 19 0;
#X connect 23 0 20 0;
#X connect 24 0 21 0;
#X connect 25 0 16 0;
#X connect 26 0 17 0;
#X connect 27 0 18 0;
#X connect 28 0 29 0;
#X connect 29 0 31 0;
#X connect 30 0 36 0;
#X connect 31 0 30 0;
#X connect 32 0 43 1;
#X connect 33 0 46 1;
#X connect 34 0 49 1;
#X connect 35 0 28 0;
#X connect 36 0 42 0;
#X connect 37 0 40 0;
#X connect 37 0 42 1;
#X connect 37 0 84 0;
#X connect 38 0 39 1;
#X connect 39 0 41 0;
#X connect 40 0 39 0;
#X connect 41 0 36 1;
#X connect 42 0 56 0;
#X connect 42 1 57 0;
#X connect 43 0 44 0;
#X connect 43 1 45 0;
#X connect 43 2 71 0;
#X connect 46 0 47 0;
#X connect 46 1 48 0;
#X connect 46 2 70 0;
#X connect 49 0 50 0;
#X connect 49 1 51 0;
#X connect 49 2 69 0;
#X connect 52 0 54 0;
#X connect 52 1 55 0;
#X connect 52 2 68 0;
#X connect 53 0 52 1;
#X connect 58 0 59 0;
#X connect 58 1 60 0;
#X connect 58 2 67 0;
#X connect 61 0 58 1;
#X connect 62 0 43 0;
#X connect 63 0 46 0;
#X connect 64 0 49 0;
#X connect 65 0 58 0;
#X connect 66 0 52 0;
#X connect 72 0 73 0;
#X connect 72 1 74 0;
#X connect 72 2 77 0;
#X connect 75 0 72 0;
#X connect 76 0 72 1;
#X connect 78 0 79 0;
#X connect 79 0 35 0;
#X connect 80 0 81 0;
#X connect 81 0 2 0;
#X connect 82 0 83 0;
#X connect 83 0 3 0;
#X restore 1039 399 pd swarm-internals;
#X obj 1039 459 outlet~ (signal) L;
#X obj 1159 459 outlet~ (signal) R;
#X obj 1039 279 r instrument-seed;
#X obj 1039 319 olm.control-system swarm 7;
#X connect 10 0 11 0;
#X connect 10 1 12 0;
#X connect 13 0 14 0;
#X connect 14 0 9 0;
#X coords 0 0 1 1 1380 740 1 0 0;
