#N canvas 827 239 527 327 12;
#X obj 176 108 until;
#X obj 176 146 f;
#X obj 214 139 + 1;
#X obj 269 135 sel 0;
#X obj 214 165 mod 128;
#X obj 176 210 pack f 0;
#X obj 177 63 inlet (bang) start;
#X obj 176 269 outlet (midi) note-off;
#X connect 0 0 1 0;
#X connect 1 0 2 0;
#X connect 1 0 5 0;
#X connect 2 0 4 0;
#X connect 3 0 0 1;
#X connect 4 0 1 1;
#X connect 4 0 3 0;
#X connect 5 0 7 0;
#X connect 6 0 0 0;
