#N canvas 827 239 527 327 12;
#X obj 361 491 f;
#X obj 336 428 bng 25 250 50 0 empty empty empty 17 7 0 10 #e4e4e4 #4d4d4d #373737;
#X obj 480 541 -;
#X obj 480 577 abs;
#X obj 336 624 f;
#X obj 480 627 +;
#X msg 260 572 0;
#X obj 260 512 loadbang;
#X obj 364 140 vsl 59 178 0 1 0 0 empty empty empty 0 -9 0 10 #e4e4e4 #4d4d4d #373737 0 1;
#X floatatom 336 686 18 0 0 0 empty - - 36;
#X floatatom 560 584 34 0 0 0 empty - - 36;
#X floatatom 361 541 14 0 0 0 empty - - 24;
#X obj 361 349 t f b f;
#X connect 0 0 2 0;
#X connect 0 0 11 0;
#X connect 1 0 0 0;
#X connect 1 0 4 0;
#X connect 2 0 3 0;
#X connect 2 0 10 0;
#X connect 3 0 5 1;
#X connect 4 0 5 0;
#X connect 4 0 9 0;
#X connect 5 0 4 1;
#X connect 6 0 4 0;
#X connect 7 0 6 0;
#X connect 8 0 12 0;
#X connect 12 0 0 1;
#X connect 12 1 1 0;
#X connect 12 2 2 1;
