#N canvas 827 239 527 327 12;
#X obj 269 294 inlet~;
#X obj 354 294 inlet~;
#X obj 269 394 +~;
#X obj 354 394 -~;
#X obj 269 656 outlet~;
#X obj 356 656 outlet~;
#X obj 354 441 delwrite~ \$0-del \$1;
#X obj 356 495 delread~ \$0-del \$1;
#X connect 0 0 2 0;
#X connect 0 0 3 0;
#X connect 1 0 2 1;
#X connect 1 0 3 1;
#X connect 2 0 4 0;
#X connect 3 0 6 0;
#X connect 7 0 5 0;
